<svg width="24" height="24" viewBox="0 0 24 24" fill="none" xmlns="http://www.w3.org/2000/svg">
<path fill-rule="evenodd" clip-rule="evenodd" d="M15 3H3V16.5H9L9.375 18H3C2.60218 18 2.22064 17.842 1.93934 17.5607C1.65804 17.2794 1.5 16.8978 1.5 16.5V3C1.5 2.60218 1.65804 2.22064 1.93934 1.93934C2.22064 1.65804 2.60218 1.5 3 1.5H15C15.3978 1.5 15.7794 1.65804 16.0607 1.93934C16.342 2.22064 16.5 2.60218 16.5 3V7.5L15 8.25V3ZM4.5 5.25H12.75V6.75H4.5V5.25ZM4.5 8.25H10.5V9.75H4.5V8.25ZM8.25 11.25H4.5V12.75H8.25V11.25ZM16.5 9.65663L22.5286 12.7571L22.4986 13.246C22.399 14.8677 21.9524 17.4057 20.8884 19.4027C20.3711 20.3736 19.2699 21.1377 18.4334 21.6247C17.9942 21.8805 17.584 22.0843 17.2839 22.2241C17.1335 22.2943 17.0096 22.3488 16.9222 22.3863C16.8785 22.4051 16.8439 22.4196 16.8195 22.4296L16.7908 22.4414L16.7825 22.4448L16.7791 22.4461L16.5 21.75L16.2213 22.4463L16.2175 22.4448L16.2092 22.4414L16.1805 22.4296C16.1562 22.4196 16.1215 22.4051 16.0778 22.3863C15.9904 22.3488 15.8665 22.2943 15.7161 22.2241C15.416 22.0843 15.0058 21.8805 14.5666 21.6247C13.7302 21.1377 12.6289 20.3736 12.1116 19.4027C11.0476 17.4057 10.601 14.8677 10.5014 13.246L10.4714 12.7571L16.5 9.65663ZM16.2213 22.4463C16.2214 22.4463 16.2215 22.4464 16.5 21.75C16.7785 22.4464 16.7789 22.4462 16.7791 22.4461L16.5 22.5577L16.2213 22.4463ZM16.5 20.9334C16.5456 20.9129 16.5958 20.8899 16.6502 20.8646C16.9209 20.7384 17.2887 20.5555 17.6787 20.3284C18.5007 19.8498 19.2627 19.2639 19.5646 18.6973C20.3956 17.1377 20.8182 15.1225 20.9627 13.6385L16.5 11.3434L12.0373 13.6385C12.1818 15.1225 12.6044 17.1377 13.4354 18.6973C13.7373 19.2639 14.4993 19.8498 15.3213 20.3284C15.7113 20.5555 16.0791 20.7384 16.3498 20.8646C16.4042 20.8899 16.4544 20.9129 16.5 20.9334ZM17.124 18.041L19.3741 14.666L18 13.875L16.3834 16.4478L15.1553 15.2197L14.0947 16.2803L15.9697 18.1553C16.1286 18.3142 16.3503 18.3935 16.5739 18.3713C16.7975 18.3492 16.9994 18.228 17.124 18.041Z" fill="#606060"/>
<path d="M3 3V2.85C2.91716 2.85 2.85 2.91716 2.85 3H3ZM15 3H15.15C15.15 2.91716 15.0828 2.85 15 2.85V3ZM3 16.5H2.85C2.85 16.5828 2.91716 16.65 3 16.65V16.5ZM9 16.5L9.14552 16.4636C9.12883 16.3968 9.06883 16.35 9 16.35V16.5ZM9.375 18V18.15C9.42119 18.15 9.4648 18.1287 9.49323 18.0923C9.52166 18.0559 9.53172 18.0084 9.52052 17.9636L9.375 18ZM1.93934 17.5607L2.04541 17.4546H2.04541L1.93934 17.5607ZM1.93934 1.93934L2.04541 2.04541L2.04541 2.04541L1.93934 1.93934ZM16.0607 1.93934L15.9546 2.04541V2.04541L16.0607 1.93934ZM16.5 7.5L16.5671 7.63416C16.6179 7.60876 16.65 7.55682 16.65 7.5H16.5ZM15 8.25H14.85C14.85 8.30199 14.8769 8.35027 14.9211 8.3776C14.9654 8.40493 15.0206 8.40741 15.0671 8.38416L15 8.25ZM12.75 5.25H12.9C12.9 5.16716 12.8328 5.1 12.75 5.1V5.25ZM4.5 5.25V5.1C4.41716 5.1 4.35 5.16716 4.35 5.25H4.5ZM12.75 6.75V6.9C12.8328 6.9 12.9 6.83284 12.9 6.75H12.75ZM4.5 6.75H4.35C4.35 6.83284 4.41716 6.9 4.5 6.9V6.75ZM10.5 8.25H10.65C10.65 8.16716 10.5828 8.1 10.5 8.1V8.25ZM4.5 8.25V8.1C4.41716 8.1 4.35 8.16716 4.35 8.25H4.5ZM10.5 9.75V9.9C10.5828 9.9 10.65 9.83284 10.65 9.75H10.5ZM4.5 9.75H4.35C4.35 9.83284 4.41716 9.9 4.5 9.9V9.75ZM4.5 11.25V11.1C4.41716 11.1 4.35 11.1672 4.35 11.25H4.5ZM8.25 11.25H8.4C8.4 11.1672 8.33284 11.1 8.25 11.1V11.25ZM4.5 12.75H4.35C4.35 12.8328 4.41716 12.9 4.5 12.9V12.75ZM8.25 12.75V12.9C8.33284 12.9 8.4 12.8328 8.4 12.75H8.25ZM22.5286 12.7571L22.6783 12.7662C22.682 12.7068 22.6502 12.6509 22.5972 12.6237L22.5286 12.7571ZM16.5 9.65663L16.5686 9.52323C16.5255 9.50109 16.4745 9.50109 16.4314 9.52323L16.5 9.65663ZM22.4986 13.246L22.3489 13.2368L22.4986 13.246ZM20.8884 19.4027L20.756 19.3321L20.8884 19.4027ZM18.4334 21.6247L18.5089 21.7543L18.4334 21.6247ZM17.2839 22.2241L17.3473 22.3601V22.3601L17.2839 22.2241ZM16.9222 22.3863L16.9813 22.5241L16.9222 22.3863ZM16.8195 22.4296L16.8764 22.5684L16.8768 22.5682L16.8195 22.4296ZM16.7908 22.4414L16.8471 22.5804L16.8478 22.5802L16.7908 22.4414ZM16.7825 22.4448L16.8384 22.584L16.8389 22.5838L16.7825 22.4448ZM16.5 21.75L16.6392 21.6942C16.6164 21.6373 16.5613 21.6 16.5 21.6C16.4387 21.6 16.3835 21.6373 16.3607 21.6943L16.5 21.75ZM16.2213 22.4463L16.1654 22.5855L16.1656 22.5856L16.2213 22.4463ZM16.2175 22.4448L16.1611 22.5838L16.1615 22.5839L16.2175 22.4448ZM16.2092 22.4414L16.1522 22.5802L16.1529 22.5804L16.2092 22.4414ZM16.1805 22.4296L16.1232 22.5682L16.1236 22.5684L16.1805 22.4296ZM16.0778 22.3863L16.0187 22.5241L16.0778 22.3863ZM15.7161 22.2241L15.6527 22.3601V22.3601L15.7161 22.2241ZM14.5666 21.6247L14.4911 21.7543H14.4911L14.5666 21.6247ZM12.1116 19.4027L12.244 19.3321L12.1116 19.4027ZM10.5014 13.246L10.3517 13.2552L10.5014 13.246ZM10.4714 12.7571L10.4028 12.6237C10.3499 12.6509 10.318 12.7068 10.3217 12.7662L10.4714 12.7571ZM16.5 22.5577L16.4443 22.697C16.4801 22.7113 16.5199 22.7113 16.5557 22.697L16.5 22.5577ZM16.6502 20.8646L16.5868 20.7286L16.6502 20.8646ZM16.5 20.9334L16.4384 21.0702C16.4776 21.0878 16.5224 21.0878 16.5616 21.0702L16.5 20.9334ZM17.6787 20.3284L17.6032 20.1988V20.1988L17.6787 20.3284ZM19.5646 18.6973L19.697 18.7679L19.5646 18.6973ZM20.9627 13.6385L21.112 13.653C21.1179 13.5918 21.086 13.5332 21.0313 13.5051L20.9627 13.6385ZM16.5 11.3434L16.5686 11.21C16.5255 11.1878 16.4745 11.1878 16.4314 11.21L16.5 11.3434ZM12.0373 13.6385L11.9687 13.5051C11.914 13.5332 11.8821 13.5918 11.888 13.653L12.0373 13.6385ZM13.4354 18.6973L13.303 18.7679L13.4354 18.6973ZM15.3213 20.3284L15.3968 20.1988H15.3968L15.3213 20.3284ZM16.3498 20.8646L16.2864 21.0005H16.2864L16.3498 20.8646ZM19.3741 14.666L19.4989 14.7492C19.5219 14.7147 19.5296 14.6722 19.5201 14.6318C19.5106 14.5914 19.4848 14.5567 19.4489 14.536L19.3741 14.666ZM17.124 18.041L17.2489 18.1242V18.1242L17.124 18.041ZM18 13.875L18.0748 13.745C18.005 13.7048 17.9159 13.727 17.873 13.7952L18 13.875ZM16.3834 16.4478L16.2774 16.5538C16.3097 16.5861 16.3549 16.6019 16.4002 16.5968C16.4456 16.5917 16.4862 16.5662 16.5105 16.5276L16.3834 16.4478ZM15.1553 15.2197L15.2614 15.1136C15.2028 15.055 15.1079 15.055 15.0493 15.1136L15.1553 15.2197ZM14.0947 16.2803L13.9886 16.1743C13.93 16.2328 13.93 16.3278 13.9886 16.3864L14.0947 16.2803ZM15.9697 18.1553L15.8636 18.2614L15.9697 18.1553ZM16.5739 18.3713L16.5591 18.2221H16.5591L16.5739 18.3713ZM3 3.15H15V2.85H3V3.15ZM3.15 16.5V3H2.85V16.5H3.15ZM9 16.35H3V16.65H9V16.35ZM9.52052 17.9636L9.14552 16.4636L8.85448 16.5364L9.22948 18.0364L9.52052 17.9636ZM3 18.15H9.375V17.85H3V18.15ZM1.83327 17.6667C2.14271 17.9762 2.56239 18.15 3 18.15V17.85C2.64196 17.85 2.29858 17.7078 2.04541 17.4546L1.83327 17.6667ZM1.35 16.5C1.35 16.9376 1.52384 17.3573 1.83327 17.6667L2.04541 17.4546C1.79223 17.2014 1.65 16.858 1.65 16.5H1.35ZM1.35 3V16.5H1.65V3H1.35ZM1.83327 1.83327C1.52384 2.14271 1.35 2.56239 1.35 3H1.65C1.65 2.64196 1.79223 2.29858 2.04541 2.04541L1.83327 1.83327ZM3 1.35C2.56239 1.35 2.14271 1.52384 1.83327 1.83327L2.04541 2.04541C2.29858 1.79223 2.64196 1.65 3 1.65V1.35ZM15 1.35H3V1.65H15V1.35ZM16.1667 1.83327C15.8573 1.52384 15.4376 1.35 15 1.35V1.65C15.358 1.65 15.7014 1.79223 15.9546 2.04541L16.1667 1.83327ZM16.65 3C16.65 2.56239 16.4762 2.14271 16.1667 1.83327L15.9546 2.04541C16.2078 2.29858 16.35 2.64196 16.35 3H16.65ZM16.65 7.5V3H16.35V7.5H16.65ZM15.0671 8.38416L16.5671 7.63416L16.4329 7.36584L14.9329 8.11584L15.0671 8.38416ZM14.85 3V8.25H15.15V3H14.85ZM12.75 5.1H4.5V5.4H12.75V5.1ZM12.9 6.75V5.25H12.6V6.75H12.9ZM4.5 6.9H12.75V6.6H4.5V6.9ZM4.35 5.25V6.75H4.65V5.25H4.35ZM10.5 8.1H4.5V8.4H10.5V8.1ZM10.65 9.75V8.25H10.35V9.75H10.65ZM4.5 9.9H10.5V9.6H4.5V9.9ZM4.35 8.25V9.75H4.65V8.25H4.35ZM4.5 11.4H8.25V11.1H4.5V11.4ZM4.65 12.75V11.25H4.35V12.75H4.65ZM8.25 12.6H4.5V12.9H8.25V12.6ZM8.1 11.25V12.75H8.4V11.25H8.1ZM22.5972 12.6237L16.5686 9.52323L16.4314 9.79002L22.46 12.8904L22.5972 12.6237ZM22.6483 13.2552L22.6783 12.7662L22.3789 12.7479L22.3489 13.2368L22.6483 13.2552ZM21.0208 19.4732C22.0986 17.4502 22.548 14.8887 22.6483 13.2552L22.3489 13.2368C22.25 14.8468 21.8061 17.3611 20.756 19.3321L21.0208 19.4732ZM18.5089 21.7543C19.3469 21.2664 20.482 20.4845 21.0208 19.4732L20.756 19.3321C20.2602 20.2627 19.1928 21.009 18.358 21.4951L18.5089 21.7543ZM17.3473 22.3601C17.6503 22.2189 18.0647 22.013 18.5089 21.7543L18.358 21.4951C17.9236 21.748 17.5177 21.9497 17.2205 22.0882L17.3473 22.3601ZM16.9813 22.5241C17.07 22.4861 17.1953 22.4309 17.3473 22.3601L17.2205 22.0882C17.0716 22.1576 16.9492 22.2115 16.8631 22.2484L16.9813 22.5241ZM16.8768 22.5682C16.9017 22.5579 16.937 22.5432 16.9813 22.5241L16.8631 22.2484C16.82 22.2669 16.786 22.2812 16.7622 22.291L16.8768 22.5682ZM16.8478 22.5802L16.8764 22.5684L16.7625 22.2909L16.7339 22.3026L16.8478 22.5802ZM16.8389 22.5838L16.8471 22.5804L16.7345 22.3024L16.7262 22.3057L16.8389 22.5838ZM16.835 22.5853L16.8384 22.584L16.7266 22.3056L16.7232 22.3069L16.835 22.5853ZM16.3608 21.8058L16.6398 22.502L16.9183 22.3903L16.6392 21.6942L16.3608 21.8058ZM16.3605 22.502L16.6393 21.8057L16.3607 21.6943L16.082 22.3905L16.3605 22.502ZM16.1615 22.5839L16.1654 22.5855L16.2772 22.3071L16.2734 22.3056L16.1615 22.5839ZM16.1529 22.5804L16.1611 22.5838L16.2738 22.3057L16.2655 22.3024L16.1529 22.5804ZM16.1236 22.5684L16.1522 22.5802L16.2661 22.3026L16.2374 22.2909L16.1236 22.5684ZM16.0187 22.5241C16.063 22.5432 16.0982 22.5579 16.1232 22.5682L16.2378 22.291C16.2141 22.2812 16.18 22.2669 16.1369 22.2484L16.0187 22.5241ZM15.6527 22.3601C15.8047 22.4309 15.93 22.4861 16.0187 22.5241L16.1369 22.2484C16.0508 22.2115 15.9284 22.1576 15.7795 22.0882L15.6527 22.3601ZM14.4911 21.7543C14.9353 22.013 15.3497 22.2189 15.6527 22.3601L15.7795 22.0882C15.4823 21.9497 15.0764 21.748 14.642 21.4951L14.4911 21.7543ZM11.9792 19.4732C12.518 20.4845 13.6531 21.2664 14.4911 21.7543L14.642 21.4951C13.8072 21.009 12.7398 20.2627 12.244 19.3321L11.9792 19.4732ZM10.3517 13.2552C10.452 14.8887 10.9014 17.4502 11.9792 19.4732L12.244 19.3321C11.1939 17.3611 10.75 14.8468 10.6511 13.2368L10.3517 13.2552ZM10.3217 12.7662L10.3517 13.2552L10.6511 13.2368L10.6211 12.7479L10.3217 12.7662ZM16.4314 9.52323L10.4028 12.6237L10.54 12.8904L16.5686 9.79002L16.4314 9.52323ZM16.3607 21.6943C16.2215 22.0425 16.1519 22.2166 16.117 22.3035C16.0996 22.3471 16.0909 22.3687 16.0866 22.3793C16.0844 22.3849 16.0835 22.3869 16.0833 22.3875C16.0829 22.3885 16.0838 22.3862 16.0852 22.3832C16.0856 22.3823 16.0865 22.3803 16.0878 22.3778C16.0887 22.3761 16.0917 22.3702 16.0965 22.3631C16.0972 22.362 16.1147 22.3331 16.1507 22.3139C16.1748 22.3011 16.2039 22.2941 16.2349 22.2969C16.2599 22.2992 16.2796 22.308 16.2767 22.3069L16.1659 22.5857C16.163 22.5845 16.1827 22.5934 16.2077 22.5957C16.2386 22.5985 16.2677 22.5915 16.2919 22.5786C16.3278 22.5595 16.3454 22.5306 16.3461 22.5294C16.3509 22.5223 16.3539 22.5163 16.3548 22.5146C16.3561 22.5121 16.3571 22.51 16.3575 22.509C16.3591 22.5057 16.3603 22.5027 16.3604 22.5024C16.3613 22.5003 16.3627 22.4969 16.3648 22.4916C16.3693 22.4805 16.3781 22.4586 16.3955 22.4151C16.4304 22.328 16.5001 22.1539 16.6393 21.8057L16.3607 21.6943ZM16.7221 22.3074C16.7221 22.3074 16.7234 22.3069 16.7247 22.3064C16.7259 22.3059 16.7297 22.3045 16.7323 22.3036C16.739 22.3014 16.7494 22.2985 16.7623 22.2971C16.7916 22.2938 16.8198 22.2993 16.8441 22.311C16.8811 22.3288 16.8998 22.3571 16.9013 22.3592C16.9066 22.3667 16.9101 22.373 16.9111 22.375C16.9126 22.3777 16.9137 22.38 16.9142 22.3811C16.9153 22.3833 16.916 22.385 16.9162 22.3854C16.9163 22.3857 16.9164 22.386 16.9165 22.3861C16.9166 22.3863 16.9166 22.3864 16.9166 22.3864C16.9166 22.3864 16.9166 22.3863 16.9164 22.386C16.9163 22.3856 16.9161 22.3852 16.9159 22.3845C16.9153 22.3833 16.9146 22.3814 16.9135 22.3788C16.9092 22.3683 16.9006 22.3468 16.8831 22.3033C16.8482 22.2165 16.7785 22.0425 16.6393 21.6943L16.3607 21.8057C16.5 22.1539 16.5697 22.328 16.6047 22.4152C16.6222 22.4586 16.6311 22.4807 16.6356 22.4918C16.6378 22.4972 16.6393 22.5008 16.6403 22.5032C16.6405 22.5037 16.6419 22.5071 16.6438 22.5109C16.6443 22.5121 16.6454 22.5144 16.6469 22.5172C16.648 22.5192 16.6515 22.5255 16.6568 22.5331C16.6583 22.5352 16.677 22.5635 16.7141 22.5813C16.7383 22.593 16.7665 22.5985 16.7958 22.5952C16.8088 22.5938 16.8191 22.5909 16.8259 22.5887C16.8284 22.5878 16.8322 22.5864 16.8335 22.5859C16.8348 22.5854 16.836 22.5849 16.8361 22.5849L16.7221 22.3074ZM16.5557 22.697L16.8348 22.5854L16.7234 22.3069L16.4443 22.4185L16.5557 22.697ZM16.1656 22.5856L16.4443 22.697L16.5557 22.4185L16.277 22.307L16.1656 22.5856ZM16.5868 20.7286C16.5331 20.7536 16.4834 20.7763 16.4384 20.7966L16.5616 21.0702C16.6077 21.0494 16.6586 21.0262 16.7136 21.0005L16.5868 20.7286ZM17.6032 20.1988C17.2182 20.423 16.8546 20.6038 16.5868 20.7286L16.7136 21.0005C16.9872 20.873 17.3593 20.688 17.7542 20.458L17.6032 20.1988ZM19.4322 18.6268C19.2943 18.8857 19.0448 19.1592 18.7204 19.4308C18.3977 19.701 18.0092 19.9624 17.6032 20.1988L17.7542 20.4581C18.1702 20.2158 18.5737 19.9449 18.913 19.6609C19.2506 19.3782 19.533 19.0755 19.697 18.7679L19.4322 18.6268ZM20.8134 13.6239C20.6699 15.0977 20.2504 17.0912 19.4322 18.6268L19.697 18.7679C20.5408 17.1842 20.9665 15.1474 21.112 13.653L20.8134 13.6239ZM16.4314 11.4768L20.8941 13.7719L21.0313 13.5051L16.5686 11.21L16.4314 11.4768ZM12.1059 13.7719L16.5686 11.4768L16.4314 11.21L11.9687 13.5051L12.1059 13.7719ZM13.5678 18.6268C12.7496 17.0912 12.3301 15.0977 12.1866 13.6239L11.888 13.653C12.0335 15.1474 12.4593 17.1842 13.303 18.7679L13.5678 18.6268ZM15.3968 20.1988C14.9908 19.9624 14.6023 19.701 14.2796 19.4308C13.9552 19.1592 13.7057 18.8857 13.5678 18.6268L13.303 18.7679C13.467 19.0755 13.7494 19.3782 14.087 19.6609C14.4263 19.9449 14.8298 20.2158 15.2458 20.4581L15.3968 20.1988ZM16.4132 20.7286C16.1454 20.6038 15.7818 20.423 15.3968 20.1988L15.2458 20.4581C15.6407 20.688 16.0128 20.873 16.2864 21.0005L16.4132 20.7286ZM16.5616 20.7966C16.5166 20.7763 16.4669 20.7536 16.4131 20.7286L16.2864 21.0005C16.3414 21.0262 16.3923 21.0494 16.4384 21.0702L16.5616 20.7966ZM19.2492 14.5828L16.9992 17.9578L17.2489 18.1242L19.4989 14.7492L19.2492 14.5828ZM17.9252 14.005L19.2992 14.796L19.4489 14.536L18.0748 13.745L17.9252 14.005ZM16.5105 16.5276L18.127 13.9548L17.873 13.7952L16.2564 16.368L16.5105 16.5276ZM15.0493 15.3257L16.2774 16.5538L16.4895 16.3417L15.2614 15.1136L15.0493 15.3257ZM14.2007 16.3864L15.2614 15.3257L15.0493 15.1136L13.9886 16.1743L14.2007 16.3864ZM16.0757 18.0493L14.2007 16.1743L13.9886 16.3864L15.8636 18.2614L16.0757 18.0493ZM16.5591 18.2221C16.3803 18.2398 16.2029 18.1764 16.0757 18.0493L15.8636 18.2614C16.0543 18.4521 16.3204 18.5472 16.5887 18.5206L16.5591 18.2221ZM16.9992 17.9578C16.8995 18.1074 16.738 18.2044 16.5591 18.2221L16.5887 18.5206C16.857 18.4941 17.0993 18.3486 17.2489 18.1242L16.9992 17.9578Z" fill="#F1F3F4"/>
</svg>
