<svg width="21" height="21" viewBox="0 0 21 21" fill="none" xmlns="http://www.w3.org/2000/svg">
<g clip-path="url(#clip0)">
<path d="M19.814 16.6903H19.4233V10.3232C19.4233 9.3539 18.6348 8.56534 17.6655 8.56534H12.2358V5.71378C12.2358 5.39019 11.9735 5.12784 11.6499 5.12784H10.9858V4.35874C12.4597 4.00616 12.5992 2.38605 11.7235 1.50319L10.819 0.577686C10.5891 0.342529 10.2103 0.342568 9.98061 0.577959L9.10025 1.47991C8.73604 1.83409 8.53557 2.30823 8.53557 2.81608C8.53557 3.59792 9.03029 4.17132 9.814 4.35878V5.12788H9.14994C8.82635 5.12788 8.564 5.39022 8.564 5.71382V8.56538H3.13428C2.16502 8.56538 1.37646 9.35394 1.37646 10.3232V16.6904H0.98584C0.662246 16.6904 0.399902 16.9527 0.399902 17.2763V19.8154C0.399902 20.139 0.662246 20.4013 0.98584 20.4013H19.814C20.1376 20.4013 20.3999 20.139 20.3999 19.8154V17.2763C20.3999 16.9527 20.1376 16.6903 19.814 16.6903ZM9.7074 2.81605C9.7074 2.6264 9.78291 2.44925 9.92002 2.3173C9.92975 2.30796 9.92537 2.31222 10.4001 1.82577L10.8872 2.32405C11.0235 2.46038 11.0924 2.6348 11.0924 2.81601C11.0924 2.92405 11.0924 3.2528 10.3999 3.2528C9.70736 3.2528 9.7074 2.92409 9.7074 2.81605ZM9.73584 6.29972H11.064V8.56534H9.73584V6.29972ZM3.13428 9.73722H17.6655C17.9886 9.73722 18.2515 10.0001 18.2515 10.3232V12.2093C18.1173 12.2779 17.9954 12.3153 17.8999 12.3153C17.6163 12.3153 17.2134 12.0089 17.0642 11.862C16.9827 11.7805 16.2432 11.0653 15.3999 11.0653C14.5566 11.0653 13.8171 11.7804 13.7371 11.8604C13.5865 12.0089 13.1835 12.3153 12.8999 12.3153C12.6163 12.3153 12.2134 12.0089 12.0642 11.862C11.9827 11.7805 11.2432 11.0653 10.3999 11.0653C9.55658 11.0653 8.81709 11.7804 8.73713 11.8604C8.58646 12.0089 8.18354 12.3153 7.8999 12.3153C7.61627 12.3153 7.21338 12.0089 7.0642 11.862C6.98268 11.7805 6.24322 11.0653 5.3999 11.0653C4.55658 11.0653 3.81709 11.7804 3.73713 11.8604C3.58646 12.0089 3.18354 12.3153 2.8999 12.3153C2.80443 12.3153 2.68252 12.2778 2.54834 12.2093V10.3232C2.54834 10.0001 2.81119 9.73722 3.13428 9.73722ZM2.54834 13.4483C2.66713 13.4739 2.78443 13.4872 2.8999 13.4872C3.74326 13.4872 4.48272 12.7721 4.56268 12.6921C4.71334 12.5437 5.11627 12.2372 5.3999 12.2372C5.68354 12.2372 6.08643 12.5437 6.23561 12.6906C6.31713 12.7721 7.05658 13.4872 7.8999 13.4872C8.74322 13.4872 9.48271 12.7721 9.56268 12.6921C9.71334 12.5437 10.1163 12.2372 10.3999 12.2372C10.6835 12.2372 11.0864 12.5437 11.2356 12.6906C11.3171 12.7721 12.0566 13.4872 12.8999 13.4872C13.7432 13.4872 14.4827 12.7721 14.5627 12.6921C14.7133 12.5437 15.1163 12.2372 15.3999 12.2372C15.6835 12.2372 16.0864 12.5437 16.2356 12.6906C16.3171 12.7721 17.0566 13.4872 17.8999 13.4872C18.0154 13.4872 18.1327 13.4739 18.2515 13.4483V16.6903H2.54834V13.4483ZM19.228 19.2294H1.57178V17.8622H19.228V19.2294Z" fill="#606060"/>
</g>
<defs>
<clipPath id="clip0">
<rect width="20" height="20" fill="white" transform="translate(0.399902 0.399902)"/>
</clipPath>
</defs>
</svg>
