<svg width="24" height="24" viewBox="0 0 24 24" fill="none" xmlns="http://www.w3.org/2000/svg">
<path d="M18.9337 0V1.46939H20.5912L17.3577 4.53544C16.2129 3.36403 14.6167 2.63559 12.8534 2.63559C10.4813 2.63559 8.41154 3.95334 7.33679 5.89505C7.24472 5.89102 7.15219 5.88858 7.0591 5.88858C3.58482 5.88858 0.758301 8.71509 0.758301 12.1894C0.758301 15.4152 3.19505 18.0821 6.32438 18.4471V20.3998H4.12468V21.8692H6.32447V24H7.79386V21.8692H10.0897V20.3998H7.79386V18.4471C9.85393 18.2068 11.6136 16.969 12.5757 15.2307C12.6678 15.2347 12.7603 15.2372 12.8533 15.2372C16.3276 15.2372 19.1542 12.4107 19.1542 8.93639C19.1542 7.75575 18.8275 6.65011 18.2602 5.70464L21.772 2.37473V4.19972H23.2414V0H18.9337ZM7.05919 17.0208C4.39514 17.0208 2.22779 14.8534 2.22779 12.1893C2.22779 9.62906 4.22958 7.52798 6.75014 7.36809C6.62119 7.86966 6.55257 8.39513 6.55257 8.93639C6.55257 11.7706 8.43375 14.1735 11.0131 14.9627C10.1381 16.2065 8.69204 17.0208 7.05919 17.0208ZM11.6738 13.6219C9.57811 13.0941 8.022 11.1937 8.022 8.93639C8.022 8.43783 8.09794 7.95666 8.2388 7.50384C10.3345 8.03166 11.8906 9.93211 11.8906 12.1894C11.8906 12.6879 11.8147 13.1691 11.6738 13.6219ZM13.1625 13.7576C13.2914 13.256 13.36 12.7306 13.36 12.1893C13.36 9.35508 11.4788 6.95217 8.8996 6.16294C9.77457 4.91925 11.2207 4.10489 12.8535 4.10489C15.5176 4.10489 17.6849 6.27225 17.6849 8.93634C17.6848 11.4966 15.683 13.5977 13.1625 13.7576Z" fill="#606060"/>
</svg>
