<svg width="24" height="24" viewBox="0 0 24 24" fill="none" xmlns="http://www.w3.org/2000/svg">
<path d="M19.8423 4.7998H3.35791C2.38986 4.7998 1.6001 5.58871 1.6001 6.55762V18.2764C1.6001 19.242 2.38635 20.0342 3.35791 20.0342H19.8423C20.8079 20.0342 21.6001 19.2479 21.6001 18.2764V6.55762C21.6001 5.59199 20.8138 4.7998 19.8423 4.7998ZM19.5996 5.97168L11.6374 13.9339L3.60631 5.97168H19.5996ZM2.77197 18.0337V6.79469L8.41568 12.39L2.77197 18.0337ZM3.60061 18.8623L9.24787 13.215L11.2267 15.1768C11.4557 15.4039 11.8254 15.4032 12.0535 15.175L13.9829 13.2456L19.5996 18.8623H3.60061ZM20.4282 18.0337L14.8115 12.417L20.4282 6.80027V18.0337Z" fill="#606060"/>
</svg>
