<svg width="24" height="24" viewBox="0 0 24 24" fill="none" xmlns="http://www.w3.org/2000/svg">
<g clip-path="url(#clip0)">
<path d="M16.8862 18.0278L6.88478 18.0264C6.60892 18.0264 6.38477 18.25 6.38477 18.5264C6.38477 18.8022 6.60841 19.0264 6.88478 19.0264L16.8862 19.0278C17.1621 19.0278 17.3862 18.8042 17.3862 18.5278C17.3862 18.2519 17.1626 18.0278 16.8862 18.0278Z" fill="#606060"/>
<path d="M14.8848 20.0278H8.88478C8.6084 20.0278 8.38477 20.2515 8.38477 20.5278C8.38477 20.8042 8.6084 21.0279 8.88478 21.0279H14.8848C15.1611 21.0279 15.3848 20.8042 15.3848 20.5278C15.3847 20.2514 15.1611 20.0278 14.8848 20.0278Z" fill="#606060"/>
<path d="M12 6.00049C8.96726 6.00049 6.5 8.46774 6.5 11.5004C6.5 14.5331 8.96726 17.0004 12 17.0004C15.0327 17.0004 17.4999 14.5331 17.4999 11.5004C17.4999 8.46774 15.0327 6.00049 12 6.00049ZM7.55051 12.0005H9.51021C9.56557 13.3624 9.84686 14.7169 10.3352 15.6727C8.82724 15.0688 7.73857 13.6722 7.55051 12.0005ZM9.51025 11.0005H7.55056C7.73862 9.32878 8.82729 7.93215 10.3352 7.32822C9.84691 8.28399 9.56561 9.63848 9.51025 11.0005ZM12 16.0005C11.4271 16.0005 10.6214 14.4514 10.52 12.0005H13.4799C13.3785 14.4514 12.5728 16.0005 12 16.0005ZM10.52 11.0005C10.6214 8.54958 11.4271 7.00051 12 7.00051C12.5728 7.00051 13.3785 8.54958 13.4799 11.0005H10.52ZM13.6648 15.6728C14.1531 14.7169 14.4344 13.3625 14.4897 12.0005H16.4494C16.2614 13.6722 15.1727 15.0688 13.6648 15.6728ZM14.4897 11.0005C14.4344 9.63848 14.1531 8.28399 13.6648 7.32822C15.1727 7.93215 16.2614 9.32883 16.4494 11.0005H14.4897Z" fill="#606060"/>
<path d="M18.9999 3.00009H17.9999V1.96687C17.9999 0.874411 17.0755 -0.0109139 15.9999 0.000101693C15.8463 0.00169544 15.7118 0.0229766 15.5532 0.0631014L4.8929 3.01092C3.84047 3.06792 3 3.93379 3 5.0001V22C3 23.1031 3.89695 24.0001 5.00001 24.0001H19C20.103 24.0001 21 23.1031 21 22V5.0001C20.9999 3.89709 20.103 3.00009 18.9999 3.00009ZM15.81 1.02938C16.3935 0.880458 16.9999 1.3531 16.9999 1.96687V3.00009H8.68395L15.81 1.02938ZM19.9999 22C19.9999 22.5513 19.5512 23 19 23H5.00001C4.44876 23 4.00003 22.5513 4.00003 22V5.0001C4.00003 4.44885 4.44876 4.00012 5.00001 4.00012H19C19.5512 4.00012 19.9999 4.44885 19.9999 5.0001V22Z" fill="#606060"/>
</g>
<defs>
<clipPath id="clip0">
<rect width="24" height="24" fill="white"/>
</clipPath>
</defs>
</svg>
