<svg width="24" height="24" viewBox="0 0 24 24" fill="none" xmlns="http://www.w3.org/2000/svg">
<path d="M16.6811 0H4.60188C3.79082 0 3.13037 0.660912 3.13037 1.47182V22.5279C3.13037 23.3401 3.79082 23.9999 4.60188 23.9999H19.3979C20.2096 23.9999 20.8695 23.3401 20.8695 22.5279V4.55096L16.6811 0ZM17.0284 2.20239L18.8642 4.19758H17.0284V2.20239ZM19.6336 22.528C19.6336 22.6576 19.5275 22.7641 19.3972 22.7641H4.60188C4.47183 22.7641 4.36631 22.6576 4.36631 22.528V1.47182C4.36631 1.34187 4.47183 1.23655 4.60188 1.23655H15.7919V4.8158C15.7919 5.15658 16.0695 5.43285 16.4105 5.43285H19.6336V22.528ZM6.54652 6.57342H17.0417C17.2973 6.57342 17.5047 6.78079 17.5047 7.03645C17.5047 7.29212 17.2973 7.49948 17.0417 7.49948H6.54652C6.29091 7.49948 6.08349 7.29212 6.08349 7.03645C6.08349 6.78084 6.29091 6.57342 6.54652 6.57342ZM17.5047 10.148C17.5047 10.4036 17.2973 10.6111 17.0417 10.6111H6.54652C6.29091 10.6111 6.08349 10.4037 6.08349 10.148C6.08349 9.89236 6.29091 9.685 6.54652 9.685H17.0417C17.2973 9.685 17.5047 9.89241 17.5047 10.148ZM17.5047 13.1577C17.5047 13.4134 17.2973 13.6207 17.0417 13.6207H6.54652C6.29091 13.6207 6.08349 13.4134 6.08349 13.1577C6.08349 12.902 6.29091 12.6947 6.54652 12.6947H17.0417C17.2973 12.6947 17.5047 12.902 17.5047 13.1577ZM17.5047 16.2186C17.5047 16.4743 17.2973 16.6817 17.0417 16.6817H6.54652C6.29091 16.6817 6.08349 16.4743 6.08349 16.2186C6.08349 15.963 6.29091 15.7556 6.54652 15.7556H17.0417C17.2973 15.7556 17.5047 15.963 17.5047 16.2186Z" fill="#606060"/>
</svg>
