<svg width="150" height="150" viewBox="0 0 150 150" fill="none" xmlns="http://www.w3.org/2000/svg">
<rect x="0.5" y="0.5" width="149" height="149" rx="3.5" fill="white" stroke="#9C9C9C"/>
<path d="M33.8968 104.718H29.5568L28.7308 107H27.3588L31.0128 97.312H32.4548L36.0948 107H34.7228L33.8968 104.718ZM33.5328 103.724L31.7268 98.74L29.9208 103.724H33.5328ZM40.5343 99.216C41.281 99.216 41.911 99.4027 42.4243 99.776C42.947 100.149 43.311 100.649 43.5163 101.274V96.64H44.7903V107H43.5163V105.04C43.311 105.665 42.947 106.165 42.4243 106.538C41.911 106.911 41.281 107.098 40.5343 107.098C39.853 107.098 39.2463 106.939 38.7143 106.622C38.1823 106.305 37.7623 105.852 37.4543 105.264C37.1556 104.667 37.0063 103.967 37.0063 103.164C37.0063 102.361 37.1556 101.661 37.4543 101.064C37.7623 100.467 38.1823 100.009 38.7143 99.692C39.2463 99.3747 39.853 99.216 40.5343 99.216ZM40.8983 100.35C40.1143 100.35 39.4843 100.602 39.0083 101.106C38.5416 101.601 38.3083 102.287 38.3083 103.164C38.3083 104.041 38.5416 104.732 39.0083 105.236C39.4843 105.731 40.1143 105.978 40.8983 105.978C41.4023 105.978 41.8503 105.861 42.2423 105.628C42.6436 105.395 42.9563 105.068 43.1803 104.648C43.4043 104.219 43.5163 103.724 43.5163 103.164C43.5163 102.604 43.4043 102.109 43.1803 101.68C42.9563 101.251 42.6436 100.924 42.2423 100.7C41.8503 100.467 41.4023 100.35 40.8983 100.35ZM49.9679 99.216C50.7146 99.216 51.3446 99.4027 51.8579 99.776C52.3806 100.149 52.7446 100.649 52.9499 101.274V96.64H54.2239V107H52.9499V105.04C52.7446 105.665 52.3806 106.165 51.8579 106.538C51.3446 106.911 50.7146 107.098 49.9679 107.098C49.2866 107.098 48.6799 106.939 48.1479 106.622C47.6159 106.305 47.1959 105.852 46.8879 105.264C46.5892 104.667 46.4399 103.967 46.4399 103.164C46.4399 102.361 46.5892 101.661 46.8879 101.064C47.1959 100.467 47.6159 100.009 48.1479 99.692C48.6799 99.3747 49.2866 99.216 49.9679 99.216ZM50.3319 100.35C49.5479 100.35 48.9179 100.602 48.4419 101.106C47.9752 101.601 47.7419 102.287 47.7419 103.164C47.7419 104.041 47.9752 104.732 48.4419 105.236C48.9179 105.731 49.5479 105.978 50.3319 105.978C50.8359 105.978 51.2839 105.861 51.6759 105.628C52.0772 105.395 52.3899 105.068 52.6139 104.648C52.8379 104.219 52.9499 103.724 52.9499 103.164C52.9499 102.604 52.8379 102.109 52.6139 101.68C52.3899 101.251 52.0772 100.924 51.6759 100.7C51.2839 100.467 50.8359 100.35 50.3319 100.35ZM69.5945 97.298V107H68.3205V99.258L65.2265 107H64.0925L60.9845 99.286V107H59.7105V97.298H61.2365L64.6805 105.446L68.0685 97.298H69.5945ZM74.7824 99.216C75.529 99.216 76.159 99.4027 76.6724 99.776C77.195 100.149 77.559 100.649 77.7644 101.274V99.314H79.0384V107H77.7644V105.04C77.559 105.665 77.195 106.165 76.6724 106.538C76.159 106.911 75.529 107.098 74.7824 107.098C74.101 107.098 73.4944 106.939 72.9624 106.622C72.4304 106.305 72.0104 105.852 71.7024 105.264C71.4037 104.667 71.2544 103.967 71.2544 103.164C71.2544 102.361 71.4037 101.661 71.7024 101.064C72.0104 100.467 72.4304 100.009 72.9624 99.692C73.4944 99.3747 74.101 99.216 74.7824 99.216ZM75.1464 100.35C74.3624 100.35 73.7324 100.602 73.2564 101.106C72.7897 101.601 72.5564 102.287 72.5564 103.164C72.5564 104.041 72.7897 104.732 73.2564 105.236C73.7324 105.731 74.3624 105.978 75.1464 105.978C75.6504 105.978 76.0984 105.861 76.4904 105.628C76.8917 105.395 77.2044 105.068 77.4284 104.648C77.6524 104.219 77.7644 103.724 77.7644 103.164C77.7644 102.604 77.6524 102.109 77.4284 101.68C77.2044 101.251 76.8917 100.924 76.4904 100.7C76.0984 100.467 75.6504 100.35 75.1464 100.35ZM85.1119 99.188C86.0079 99.188 86.7313 99.4773 87.2819 100.056C87.8326 100.625 88.1079 101.451 88.1079 102.534V107H86.8339V102.646C86.8339 101.881 86.6379 101.293 86.2459 100.882C85.8539 100.471 85.3219 100.266 84.6499 100.266C83.9499 100.266 83.3899 100.495 82.9699 100.952C82.5499 101.4 82.3399 102.058 82.3399 102.926V107H81.0659V99.314H82.3399V101.134C82.5359 100.509 82.8813 100.028 83.3759 99.692C83.8799 99.356 84.4586 99.188 85.1119 99.188ZM96.894 99.314V107H95.62V105.194C95.424 105.819 95.074 106.3 94.57 106.636C94.0754 106.963 93.4967 107.126 92.834 107.126C91.9474 107.126 91.2287 106.841 90.678 106.272C90.1274 105.693 89.852 104.867 89.852 103.794V99.314H91.126V103.668C91.126 104.433 91.322 105.026 91.714 105.446C92.106 105.857 92.638 106.062 93.31 106.062C94.01 106.062 94.57 105.838 94.99 105.39C95.41 104.933 95.62 104.27 95.62 103.402V99.314H96.894ZM102.085 99.216C102.832 99.216 103.462 99.4027 103.975 99.776C104.498 100.149 104.862 100.649 105.067 101.274V99.314H106.341V107H105.067V105.04C104.862 105.665 104.498 106.165 103.975 106.538C103.462 106.911 102.832 107.098 102.085 107.098C101.404 107.098 100.797 106.939 100.265 106.622C99.7331 106.305 99.3131 105.852 99.0051 105.264C98.7064 104.667 98.5571 103.967 98.5571 103.164C98.5571 102.361 98.7064 101.661 99.0051 101.064C99.3131 100.467 99.7331 100.009 100.265 99.692C100.797 99.3747 101.404 99.216 102.085 99.216ZM102.449 100.35C101.665 100.35 101.035 100.602 100.559 101.106C100.092 101.601 99.8591 102.287 99.8591 103.164C99.8591 104.041 100.092 104.732 100.559 105.236C101.035 105.731 101.665 105.978 102.449 105.978C102.953 105.978 103.401 105.861 103.793 105.628C104.194 105.395 104.507 105.068 104.731 104.648C104.955 104.219 105.067 103.724 105.067 103.164C105.067 102.604 104.955 102.109 104.731 101.68C104.507 101.251 104.194 100.924 103.793 100.7C103.401 100.467 102.953 100.35 102.449 100.35ZM109.643 96.64V107H108.369V96.64H109.643ZM112.965 96.64V107H111.691V96.64H112.965ZM115.545 99.314L118.037 105.362L120.347 99.314H121.761L117.197 110.64H115.755L117.351 106.874L114.117 99.314H115.545Z" fill="#101425"/>
<path fill-rule="evenodd" clip-rule="evenodd" d="M88.25 53.8125H75.1875V40.75H72.8125V53.8125H59.75V56.1875H72.8125V69.25H75.1875V56.1875H88.25V53.8125Z" fill="#9C9C9C" stroke="white"/>
</svg>
