<svg width="44" height="44" viewBox="0 0 44 44" fill="none" xmlns="http://www.w3.org/2000/svg">
<rect width="44" height="44" rx="22" fill="#FFF4D2"/>
<mask id="mask0" mask-type="alpha" maskUnits="userSpaceOnUse" x="0" y="0" width="44" height="44">
<rect width="44" height="44" rx="22" fill="white"/>
</mask>
<g mask="url(#mask0)">
<g opacity="0.01">
<rect width="44" height="44" fill="#FFF4D2"/>
</g>
</g>
<path d="M13.6686 29.208C12.8046 29.208 12.0206 28.9787 11.3166 28.52L11.8286 26.664C12.3086 27.0693 12.826 27.272 13.3806 27.272C13.7966 27.272 14.1166 27.1387 14.3406 26.872C14.5753 26.6053 14.6926 26.232 14.6926 25.752V17.96H16.7886V25.672C16.7886 28.0293 15.7486 29.208 13.6686 29.208ZM21.0118 29L18.0678 17.96H20.1798L22.2598 26.856L24.3398 18.024H26.4838L28.5478 26.888L30.6118 17.96H32.6278L29.6998 29H27.3798L25.3478 20.744L23.3318 29H21.0118Z" fill="#7D6E00"/>
</svg>
