<svg width="150" height="150" viewBox="0 0 150 150" fill="none" xmlns="http://www.w3.org/2000/svg">
<rect x="0.5" y="0.5" width="149" height="149" rx="3.5" fill="white" stroke="#9C9C9C"/>
<path d="M39.8829 101.89C40.4896 102.021 40.9796 102.31 41.3529 102.758C41.7356 103.206 41.9269 103.733 41.9269 104.34C41.9269 105.143 41.6516 105.787 41.1009 106.272C40.5596 106.757 39.7709 107 38.7349 107H35.0669V97.13H38.6789C39.6683 97.13 40.4196 97.3493 40.9329 97.788C41.4463 98.2267 41.7029 98.8287 41.7029 99.594C41.7029 100.229 41.5303 100.742 41.1849 101.134C40.8489 101.526 40.4149 101.778 39.8829 101.89ZM36.3409 101.456H38.4689C39.0943 101.456 39.5703 101.311 39.8969 101.022C40.2329 100.733 40.4009 100.327 40.4009 99.804C40.4009 99.3 40.2376 98.9033 39.9109 98.614C39.5843 98.3247 39.0849 98.18 38.4129 98.18H36.3409V101.456ZM38.4969 105.936C39.1689 105.936 39.6869 105.782 40.0509 105.474C40.4243 105.166 40.6109 104.732 40.6109 104.172C40.6109 103.621 40.4196 103.192 40.0369 102.884C39.6636 102.567 39.1409 102.408 38.4689 102.408H36.3409V105.936H38.4969ZM50.3481 99.314V107H49.0741V105.194C48.8781 105.819 48.5281 106.3 48.0241 106.636C47.5295 106.963 46.9508 107.126 46.2881 107.126C45.4015 107.126 44.6828 106.841 44.1321 106.272C43.5815 105.693 43.3061 104.867 43.3061 103.794V99.314H44.5801V103.668C44.5801 104.433 44.7761 105.026 45.1681 105.446C45.5601 105.857 46.0921 106.062 46.7641 106.062C47.4641 106.062 48.0241 105.838 48.4441 105.39C48.8641 104.933 49.0741 104.27 49.0741 103.402V99.314H50.3481ZM53.6632 96.64V107H52.3892V96.64H53.6632ZM59.9255 107L56.9855 103.542V107H55.7115V96.64H56.9855V102.66L59.8835 99.314H61.4375L57.9935 103.136L61.5215 107H59.9255ZM67.3061 97.13V103.052C67.3061 104.023 67.5207 104.741 67.9501 105.208C68.3794 105.665 68.9721 105.894 69.7281 105.894C70.4747 105.894 71.0581 105.661 71.4781 105.194C71.8981 104.727 72.1081 104.013 72.1081 103.052V97.13H73.3821V103.052C73.3821 104.396 73.0461 105.409 72.3741 106.09C71.7114 106.762 70.8201 107.098 69.7001 107.098C68.5894 107.098 67.6981 106.762 67.0261 106.09C66.3634 105.409 66.0321 104.396 66.0321 103.052V97.13H67.3061ZM79.5999 99.216C80.2813 99.216 80.8879 99.3747 81.4199 99.692C81.9519 100.009 82.3673 100.467 82.6659 101.064C82.9739 101.661 83.1279 102.361 83.1279 103.164C83.1279 103.967 82.9739 104.667 82.6659 105.264C82.3673 105.852 81.9519 106.305 81.4199 106.622C80.8879 106.939 80.2813 107.098 79.5999 107.098C78.8533 107.098 78.2186 106.911 77.6959 106.538C77.1826 106.155 76.8279 105.656 76.6319 105.04V110.64H75.3579V99.314H76.6319V101.274C76.8279 100.658 77.1826 100.163 77.6959 99.79C78.2186 99.4073 78.8533 99.216 79.5999 99.216ZM79.2359 100.35C78.7413 100.35 78.2933 100.467 77.8919 100.7C77.4906 100.924 77.1779 101.251 76.9539 101.68C76.7299 102.109 76.6179 102.604 76.6179 103.164C76.6179 103.724 76.7299 104.219 76.9539 104.648C77.1779 105.068 77.4906 105.395 77.8919 105.628C78.2933 105.861 78.7413 105.978 79.2359 105.978C80.0293 105.978 80.6593 105.731 81.1259 105.236C81.6019 104.732 81.8399 104.041 81.8399 103.164C81.8399 102.287 81.6019 101.601 81.1259 101.106C80.6593 100.602 80.0293 100.35 79.2359 100.35ZM86.0655 96.64V107H84.7915V96.64H86.0655ZM91.5998 99.216C92.3371 99.216 92.9951 99.3747 93.5738 99.692C94.1618 100.009 94.6191 100.467 94.9458 101.064C95.2818 101.661 95.4498 102.361 95.4498 103.164C95.4498 103.967 95.2818 104.667 94.9458 105.264C94.6191 105.852 94.1618 106.305 93.5738 106.622C92.9951 106.939 92.3371 107.098 91.5998 107.098C90.8625 107.098 90.1998 106.939 89.6118 106.622C89.0331 106.305 88.5758 105.852 88.2398 105.264C87.9038 104.667 87.7358 103.967 87.7358 103.164C87.7358 102.361 87.9038 101.661 88.2398 101.064C88.5758 100.467 89.0331 100.009 89.6118 99.692C90.1998 99.3747 90.8625 99.216 91.5998 99.216ZM91.5998 100.336C91.1425 100.336 90.7178 100.439 90.3258 100.644C89.9431 100.849 89.6305 101.167 89.3878 101.596C89.1545 102.016 89.0378 102.539 89.0378 103.164C89.0378 103.78 89.1545 104.303 89.3878 104.732C89.6305 105.152 89.9431 105.465 90.3258 105.67C90.7178 105.875 91.1425 105.978 91.5998 105.978C92.0571 105.978 92.4771 105.875 92.8598 105.67C93.2518 105.465 93.5645 105.152 93.7978 104.732C94.0405 104.303 94.1618 103.78 94.1618 103.164C94.1618 102.539 94.0405 102.016 93.7978 101.596C93.5645 101.167 93.2518 100.849 92.8598 100.644C92.4771 100.439 92.0571 100.336 91.5998 100.336ZM100.26 99.216C101.007 99.216 101.637 99.4027 102.15 99.776C102.673 100.149 103.037 100.649 103.242 101.274V99.314H104.516V107H103.242V105.04C103.037 105.665 102.673 106.165 102.15 106.538C101.637 106.911 101.007 107.098 100.26 107.098C99.5786 107.098 98.9719 106.939 98.4399 106.622C97.9079 106.305 97.4879 105.852 97.1799 105.264C96.8812 104.667 96.7319 103.967 96.7319 103.164C96.7319 102.361 96.8812 101.661 97.1799 101.064C97.4879 100.467 97.9079 100.009 98.4399 99.692C98.9719 99.3747 99.5786 99.216 100.26 99.216ZM100.624 100.35C99.8399 100.35 99.2099 100.602 98.7339 101.106C98.2672 101.601 98.0339 102.287 98.0339 103.164C98.0339 104.041 98.2672 104.732 98.7339 105.236C99.2099 105.731 99.8399 105.978 100.624 105.978C101.128 105.978 101.576 105.861 101.968 105.628C102.369 105.395 102.682 105.068 102.906 104.648C103.13 104.219 103.242 103.724 103.242 103.164C103.242 102.604 103.13 102.109 102.906 101.68C102.682 101.251 102.369 100.924 101.968 100.7C101.576 100.467 101.128 100.35 100.624 100.35ZM109.693 99.216C110.44 99.216 111.07 99.4027 111.583 99.776C112.106 100.149 112.47 100.649 112.675 101.274V96.64H113.949V107H112.675V105.04C112.47 105.665 112.106 106.165 111.583 106.538C111.07 106.911 110.44 107.098 109.693 107.098C109.012 107.098 108.405 106.939 107.873 106.622C107.341 106.305 106.921 105.852 106.613 105.264C106.315 104.667 106.165 103.967 106.165 103.164C106.165 102.361 106.315 101.661 106.613 101.064C106.921 100.467 107.341 100.009 107.873 99.692C108.405 99.3747 109.012 99.216 109.693 99.216ZM110.057 100.35C109.273 100.35 108.643 100.602 108.167 101.106C107.701 101.601 107.467 102.287 107.467 103.164C107.467 104.041 107.701 104.732 108.167 105.236C108.643 105.731 109.273 105.978 110.057 105.978C110.561 105.978 111.009 105.861 111.401 105.628C111.803 105.395 112.115 105.068 112.339 104.648C112.563 104.219 112.675 103.724 112.675 103.164C112.675 102.604 112.563 102.109 112.339 101.68C112.115 101.251 111.803 100.924 111.401 100.7C111.009 100.467 110.561 100.35 110.057 100.35Z" fill="#101425"/>
<path fill-rule="evenodd" clip-rule="evenodd" d="M88.25 60.9375V63.3125V66.875H59.75V63.3125V60.9375H57.375V66.875C57.375 68.1813 58.4438 69.25 59.75 69.25H88.25C89.5563 69.25 90.625 68.1813 90.625 66.875V60.9375H88.25Z" fill="#9C9C9C" stroke="white"/>
<path fill-rule="evenodd" clip-rule="evenodd" d="M74.0107 42.4778L77.9889 46.6875H76.3751V49.0625V56.1875H71.6251V49.0625V46.6875H70.0219L74.0107 42.4778ZM69.2502 58.5625H78.7502V49.0625H83.5002L74.8885 39.9484C74.6534 39.6907 74.3327 39.5625 74.0121 39.5625C73.6927 39.5625 73.3721 39.6896 73.1381 39.9461L64.5002 49.0625H69.2502V58.5625Z" fill="#9C9C9C"/>
<path d="M74.0107 42.4778L74.3742 42.1344L74.0112 41.7503L73.6478 42.1339L74.0107 42.4778ZM77.9889 46.6875V47.1875H79.1493L78.3523 46.3441L77.9889 46.6875ZM76.3751 46.6875V46.1875H75.8751V46.6875H76.3751ZM76.3751 56.1875V56.6875H76.8751V56.1875H76.3751ZM71.6251 56.1875H71.1251V56.6875H71.6251V56.1875ZM71.6251 46.6875H72.1251V46.1875H71.6251V46.6875ZM70.0219 46.6875L69.659 46.3436L68.8594 47.1875H70.0219V46.6875ZM69.2502 58.5625H68.7502V59.0625H69.2502V58.5625ZM78.7502 58.5625V59.0625H79.2502V58.5625H78.7502ZM78.7502 49.0625V48.5625H78.2502V49.0625H78.7502ZM83.5002 49.0625V49.5625H84.6606L83.8637 48.7191L83.5002 49.0625ZM74.8885 39.9484L74.5191 40.2855L74.5251 40.2918L74.8885 39.9484ZM73.1381 39.9461L73.5011 40.29L73.5075 40.283L73.1381 39.9461ZM64.5002 49.0625L64.1373 48.7186L63.3377 49.5625H64.5002V49.0625ZM69.2502 49.0625H69.7502V48.5625H69.2502V49.0625ZM73.6473 42.8212L77.6255 47.0309L78.3523 46.3441L74.3742 42.1344L73.6473 42.8212ZM77.9889 46.1875H76.3751V47.1875H77.9889V46.1875ZM75.8751 46.6875V49.0625H76.8751V46.6875H75.8751ZM75.8751 49.0625V56.1875H76.8751V49.0625H75.8751ZM76.3751 55.6875H71.6251V56.6875H76.3751V55.6875ZM72.1251 56.1875V49.0625H71.1251V56.1875H72.1251ZM72.1251 49.0625V46.6875H71.1251V49.0625H72.1251ZM71.6251 46.1875H70.0219V47.1875H71.6251V46.1875ZM70.3849 47.0314L74.3737 42.8217L73.6478 42.1339L69.659 46.3436L70.3849 47.0314ZM69.2502 59.0625H78.7502V58.0625H69.2502V59.0625ZM79.2502 58.5625V49.0625H78.2502V58.5625H79.2502ZM78.7502 49.5625H83.5002V48.5625H78.7502V49.5625ZM83.8637 48.7191L75.2519 39.605L74.5251 40.2918L83.1368 49.4059L83.8637 48.7191ZM75.2578 39.6114C74.9232 39.2447 74.466 39.0625 74.0121 39.0625V40.0625C74.1994 40.0625 74.3835 40.1368 74.5191 40.2855L75.2578 39.6114ZM74.0121 39.0625C73.5608 39.0625 73.1031 39.2425 72.7687 39.6091L73.5075 40.283C73.6411 40.1366 73.8246 40.0625 74.0121 40.0625V39.0625ZM72.7752 39.6022L64.1373 48.7186L64.8632 49.4064L73.5011 40.29L72.7752 39.6022ZM64.5002 49.5625H69.2502V48.5625H64.5002V49.5625ZM68.7502 49.0625V58.5625H69.7502V49.0625H68.7502Z" fill="white"/>
<path fill-rule="evenodd" clip-rule="evenodd" d="M69.25 63.3125H78.75V60.9375H69.25V63.3125Z" fill="#9C9C9C" stroke="white"/>
</svg>
