<svg width="14" height="14" viewBox="0 0 14 14" fill="none" xmlns="http://www.w3.org/2000/svg">
<path fill-rule="evenodd" clip-rule="evenodd" d="M11 1.5H12.5C12.7652 1.5 13.0196 1.60536 13.2071 1.79289C13.3946 1.98043 13.5 2.23478 13.5 2.5V6H0.5V2.5C0.5 2.23478 0.605357 1.98043 0.792893 1.79289C0.98043 1.60536 1.23478 1.5 1.5 1.5H3V0.5H4V1.5H10V0.5H11V1.5ZM1.5 5H12.5V2.5H11V4H10V2.5H4V4H3V2.5H1.5V5ZM1.5 12.5H12.5V7H13.5V12.5C13.5 12.7652 13.3946 13.0196 13.2071 13.2071C13.0196 13.3946 12.7652 13.5 12.5 13.5H1.5C1.23478 13.5 0.98043 13.3946 0.792893 13.2071C0.605357 13.0196 0.5 12.7652 0.5 12.5V7H1.5V12.5ZM5 8V9H3V8H5ZM5 11V10H3V11H5ZM6 8H8V9H6V8ZM8 10H6V11H8V10ZM11 8V9H9V8H11ZM11 11V10H9V11H11Z" fill="#9C9C9C"/>
</svg>
