<svg width="221" height="288" viewBox="0 0 221 288" fill="none" xmlns="http://www.w3.org/2000/svg">
<path d="M54.1823 270.576C55.6223 270.576 56.8116 270.955 57.7503 271.712C58.6996 272.469 59.313 273.493 59.5903 274.784H56.6943C56.481 274.261 56.1503 273.851 55.7023 273.552C55.265 273.253 54.7423 273.104 54.1343 273.104C53.3343 273.104 52.689 273.397 52.1983 273.984C51.7076 274.571 51.4623 275.355 51.4623 276.336C51.4623 277.317 51.7076 278.101 52.1983 278.688C52.689 279.264 53.3343 279.552 54.1343 279.552C54.7423 279.552 55.265 279.403 55.7023 279.104C56.1503 278.805 56.481 278.4 56.6943 277.888H59.5903C59.313 279.168 58.6996 280.192 57.7503 280.96C56.8116 281.717 55.6223 282.096 54.1823 282.096C53.0836 282.096 52.1183 281.856 51.2863 281.376C50.4543 280.885 49.809 280.203 49.3503 279.328C48.9023 278.453 48.6783 277.456 48.6783 276.336C48.6783 275.216 48.9023 274.219 49.3503 273.344C49.809 272.469 50.4543 271.792 51.2863 271.312C52.1183 270.821 53.0836 270.576 54.1823 270.576ZM65.2997 272.96C66.185 272.96 66.9744 273.147 67.6677 273.52C68.3717 273.883 68.921 274.411 69.3157 275.104C69.721 275.797 69.9237 276.608 69.9237 277.536C69.9237 278.464 69.721 279.275 69.3157 279.968C68.921 280.661 68.3717 281.195 67.6677 281.568C66.9744 281.931 66.185 282.112 65.2997 282.112C64.4144 282.112 63.6197 281.931 62.9157 281.568C62.2117 281.195 61.657 280.661 61.2517 279.968C60.857 279.275 60.6597 278.464 60.6597 277.536C60.6597 276.608 60.857 275.797 61.2517 275.104C61.657 274.411 62.2117 273.883 62.9157 273.52C63.6197 273.147 64.4144 272.96 65.2997 272.96ZM65.2997 275.328C64.777 275.328 64.3344 275.52 63.9717 275.904C63.6197 276.277 63.4437 276.821 63.4437 277.536C63.4437 278.251 63.6197 278.795 63.9717 279.168C64.3344 279.541 64.777 279.728 65.2997 279.728C65.8224 279.728 66.2597 279.541 66.6117 279.168C66.9637 278.795 67.1397 278.251 67.1397 277.536C67.1397 276.821 66.9637 276.277 66.6117 275.904C66.2597 275.52 65.8224 275.328 65.2997 275.328ZM82.9104 272.976C84.0091 272.976 84.8731 273.317 85.5024 274C86.1318 274.672 86.4464 275.611 86.4464 276.816V282H83.7264V277.136C83.7264 276.571 83.5718 276.133 83.2624 275.824C82.9638 275.504 82.5531 275.344 82.0304 275.344C81.4864 275.344 81.0544 275.515 80.7344 275.856C80.4251 276.187 80.2704 276.656 80.2704 277.264V282H77.5344V277.136C77.5344 276.571 77.3851 276.133 77.0864 275.824C76.7878 275.504 76.3771 275.344 75.8544 275.344C75.3104 275.344 74.8784 275.509 74.5584 275.84C74.2384 276.171 74.0784 276.645 74.0784 277.264V282H71.3424V273.072H74.0784V274.592C74.3131 274.091 74.6704 273.696 75.1504 273.408C75.6411 273.12 76.2118 272.976 76.8624 272.976C77.5451 272.976 78.1478 273.136 78.6704 273.456C79.1931 273.765 79.5878 274.213 79.8544 274.8C80.1638 274.245 80.5851 273.803 81.1184 273.472C81.6624 273.141 82.2598 272.976 82.9104 272.976ZM88.0083 270.56C88.0083 270.144 88.1576 269.803 88.4563 269.536C88.755 269.259 89.1496 269.12 89.6403 269.12C90.131 269.12 90.5256 269.259 90.8243 269.536C91.123 269.803 91.2723 270.144 91.2723 270.56C91.2723 270.965 91.123 271.307 90.8243 271.584C90.5256 271.851 90.131 271.984 89.6403 271.984C89.1496 271.984 88.755 271.851 88.4563 271.584C88.1576 271.307 88.0083 270.965 88.0083 270.56ZM91.0003 273.072V282H88.2643V273.072H91.0003ZM98.5533 272.976C99.5773 272.976 100.388 273.317 100.985 274C101.593 274.683 101.897 275.621 101.897 276.816V282H99.1613V277.136C99.1613 276.539 99.0013 276.075 98.6813 275.744C98.372 275.403 97.956 275.232 97.4333 275.232C96.8786 275.232 96.436 275.408 96.1053 275.76C95.7853 276.112 95.6253 276.613 95.6253 277.264V282H92.8893V273.072H95.6253V274.704C95.8813 274.171 96.26 273.749 96.7613 273.44C97.2733 273.131 97.8706 272.976 98.5533 272.976ZM107.094 272.96C107.776 272.96 108.363 273.115 108.854 273.424C109.344 273.733 109.707 274.155 109.942 274.688V273.072H112.662V281.952C112.662 282.784 112.502 283.531 112.182 284.192C111.862 284.864 111.371 285.397 110.71 285.792C110.048 286.187 109.227 286.384 108.246 286.384C106.902 286.384 105.824 286.064 105.014 285.424C104.214 284.795 103.734 283.936 103.574 282.848H106.278C106.363 283.211 106.555 283.493 106.854 283.696C107.163 283.899 107.563 284 108.054 284C108.619 284 109.072 283.835 109.414 283.504C109.766 283.184 109.942 282.667 109.942 281.952V280.384C109.707 280.917 109.344 281.339 108.854 281.648C108.363 281.957 107.776 282.112 107.094 282.112C106.358 282.112 105.696 281.931 105.11 281.568C104.534 281.195 104.075 280.661 103.734 279.968C103.403 279.275 103.238 278.464 103.238 277.536C103.238 276.597 103.403 275.787 103.734 275.104C104.075 274.411 104.534 273.883 105.11 273.52C105.696 273.147 106.358 272.96 107.094 272.96ZM107.974 275.36C107.387 275.36 106.912 275.552 106.55 275.936C106.198 276.32 106.022 276.853 106.022 277.536C106.022 278.219 106.198 278.752 106.55 279.136C106.912 279.52 107.387 279.712 107.974 279.712C108.55 279.712 109.019 279.515 109.382 279.12C109.755 278.725 109.942 278.197 109.942 277.536C109.942 276.864 109.755 276.336 109.382 275.952C109.019 275.557 108.55 275.36 107.974 275.36ZM120.997 272.96C122.127 272.96 123.029 273.243 123.701 273.808C124.383 274.373 124.81 275.12 124.981 276.048H122.421C122.346 275.685 122.175 275.403 121.909 275.2C121.653 274.987 121.327 274.88 120.933 274.88C120.623 274.88 120.389 274.949 120.229 275.088C120.069 275.216 119.989 275.403 119.989 275.648C119.989 275.925 120.133 276.133 120.421 276.272C120.719 276.411 121.183 276.549 121.813 276.688C122.495 276.848 123.055 277.013 123.493 277.184C123.93 277.344 124.309 277.611 124.629 277.984C124.949 278.357 125.109 278.859 125.109 279.488C125.109 280 124.97 280.453 124.693 280.848C124.415 281.243 124.015 281.552 123.493 281.776C122.97 282 122.351 282.112 121.637 282.112C120.431 282.112 119.466 281.845 118.741 281.312C118.015 280.779 117.573 280.016 117.413 279.024H120.053C120.095 279.408 120.255 279.701 120.533 279.904C120.821 280.107 121.189 280.208 121.637 280.208C121.946 280.208 122.181 280.139 122.341 280C122.501 279.851 122.581 279.659 122.581 279.424C122.581 279.115 122.431 278.896 122.133 278.768C121.845 278.629 121.37 278.485 120.709 278.336C120.047 278.197 119.503 278.048 119.077 277.888C118.65 277.728 118.282 277.472 117.973 277.12C117.663 276.757 117.509 276.267 117.509 275.648C117.509 274.848 117.813 274.203 118.421 273.712C119.029 273.211 119.887 272.96 120.997 272.96ZM130.8 272.96C131.685 272.96 132.474 273.147 133.168 273.52C133.872 273.883 134.421 274.411 134.816 275.104C135.221 275.797 135.424 276.608 135.424 277.536C135.424 278.464 135.221 279.275 134.816 279.968C134.421 280.661 133.872 281.195 133.168 281.568C132.474 281.931 131.685 282.112 130.8 282.112C129.914 282.112 129.12 281.931 128.416 281.568C127.712 281.195 127.157 280.661 126.752 279.968C126.357 279.275 126.16 278.464 126.16 277.536C126.16 276.608 126.357 275.797 126.752 275.104C127.157 274.411 127.712 273.883 128.416 273.52C129.12 273.147 129.914 272.96 130.8 272.96ZM130.8 275.328C130.277 275.328 129.834 275.52 129.472 275.904C129.12 276.277 128.944 276.821 128.944 277.536C128.944 278.251 129.12 278.795 129.472 279.168C129.834 279.541 130.277 279.728 130.8 279.728C131.322 279.728 131.76 279.541 132.112 279.168C132.464 278.795 132.64 278.251 132.64 277.536C132.64 276.821 132.464 276.277 132.112 275.904C131.76 275.52 131.322 275.328 130.8 275.328ZM141.018 272.96C141.904 272.96 142.693 273.147 143.386 273.52C144.09 273.883 144.64 274.411 145.034 275.104C145.44 275.797 145.642 276.608 145.642 277.536C145.642 278.464 145.44 279.275 145.034 279.968C144.64 280.661 144.09 281.195 143.386 281.568C142.693 281.931 141.904 282.112 141.018 282.112C140.133 282.112 139.338 281.931 138.634 281.568C137.93 281.195 137.376 280.661 136.97 279.968C136.576 279.275 136.378 278.464 136.378 277.536C136.378 276.608 136.576 275.797 136.97 275.104C137.376 274.411 137.93 273.883 138.634 273.52C139.338 273.147 140.133 272.96 141.018 272.96ZM141.018 275.328C140.496 275.328 140.053 275.52 139.69 275.904C139.338 276.277 139.162 276.821 139.162 277.536C139.162 278.251 139.338 278.795 139.69 279.168C140.053 279.541 140.496 279.728 141.018 279.728C141.541 279.728 141.978 279.541 142.33 279.168C142.682 278.795 142.858 278.251 142.858 277.536C142.858 276.821 142.682 276.277 142.33 275.904C141.978 275.52 141.541 275.328 141.018 275.328ZM152.725 272.976C153.749 272.976 154.56 273.317 155.157 274C155.765 274.683 156.069 275.621 156.069 276.816V282H153.333V277.136C153.333 276.539 153.173 276.075 152.853 275.744C152.544 275.403 152.128 275.232 151.605 275.232C151.051 275.232 150.608 275.408 150.277 275.76C149.957 276.112 149.797 276.613 149.797 277.264V282H147.061V273.072H149.797V274.704C150.053 274.171 150.432 273.749 150.933 273.44C151.445 273.131 152.043 272.976 152.725 272.976Z" fill="#101425"/>
<path d="M221 169.021H0V169.131H221V169.021Z" fill="#EBEBEB"/>
<path d="M198.856 176.133H184.217V176.243H198.856V176.133Z" fill="#EBEBEB"/>
<path d="M146.399 177.335H142.558V177.445H146.399V177.335Z" fill="#EBEBEB"/>
<path d="M183.775 172.031H175.293V172.142H183.775V172.031Z" fill="#EBEBEB"/>
<path d="M42.2773 172.773H23.1873V172.884H42.2773V172.773Z" fill="#EBEBEB"/>
<path d="M49.0134 172.773H46.2155V172.884H49.0134V172.773Z" fill="#EBEBEB"/>
<path d="M99.5163 174.639H58.1097V174.749H99.5163V174.639Z" fill="#EBEBEB"/>
<path d="M104.754 149.308H19.4082C18.7396 149.306 18.0988 149.04 17.6264 148.567C17.1541 148.094 16.8888 147.452 16.8888 146.784V26.8118C16.8946 26.147 17.1625 25.5114 17.6342 25.043C18.1059 24.5746 18.7434 24.3112 19.4082 24.3101H104.754C105.423 24.3101 106.065 24.576 106.539 25.0493C107.012 25.5226 107.278 26.1645 107.278 26.8339V146.784C107.278 147.453 107.012 148.095 106.539 148.568C106.065 149.042 105.423 149.308 104.754 149.308ZM19.4082 24.3985C18.7689 24.3996 18.1562 24.6544 17.7046 25.1069C17.2529 25.5593 16.9993 26.1725 16.9993 26.8118V146.784C16.9993 147.423 17.2529 148.036 17.7046 148.489C18.1562 148.941 18.7689 149.196 19.4082 149.197H104.754C105.394 149.196 106.007 148.941 106.459 148.489C106.912 148.037 107.166 147.424 107.167 146.784V26.8118C107.166 26.1721 106.912 25.5589 106.459 25.1066C106.007 24.6543 105.394 24.3996 104.754 24.3985H19.4082Z" fill="#EBEBEB"/>
<path d="M200.363 149.308H115.013C114.344 149.306 113.703 149.04 113.23 148.567C112.756 148.094 112.49 147.453 112.489 146.784V26.8118C112.496 26.1466 112.765 25.511 113.237 25.0427C113.71 24.5744 114.348 24.3112 115.013 24.3101H200.363C201.027 24.3124 201.663 24.5763 202.134 25.0445C202.605 25.5128 202.872 26.1478 202.878 26.8118V146.784C202.878 147.452 202.613 148.092 202.142 148.565C201.671 149.038 201.031 149.305 200.363 149.308ZM115.013 24.3985C114.373 24.3996 113.76 24.6543 113.308 25.1066C112.855 25.5589 112.601 26.1721 112.6 26.8118V146.784C112.601 147.424 112.855 148.037 113.308 148.489C113.76 148.941 114.373 149.196 115.013 149.197H200.363C201.003 149.196 201.616 148.941 202.068 148.489C202.521 148.037 202.775 147.424 202.776 146.784V26.8118C202.775 26.1721 202.521 25.5589 202.068 25.1066C201.616 24.6543 201.003 24.3996 200.363 24.3985H115.013Z" fill="#EBEBEB"/>
<path d="M186.939 35.2629H100.842V110.889H186.939V35.2629Z" fill="#E6E6E6"/>
<path d="M189.189 35.2629H101.894V110.889H189.189V35.2629Z" fill="#F0F0F0"/>
<path d="M186.939 110.885H100.842V112.971H186.939V110.885Z" fill="#E6E6E6"/>
<path d="M192.929 110.885H105.634V112.971H192.929V110.885Z" fill="#F0F0F0"/>
<path d="M186.042 107.746V38.4055L105.037 38.4055V107.746H186.042Z" fill="#FAFAFA"/>
<path d="M115.879 107.742L124.812 38.4055H140.278L131.34 107.742H115.879Z" fill="white"/>
<path d="M134.66 107.742L143.597 38.4055H149.626L140.689 107.742H134.66Z" fill="white"/>
<path d="M186.047 107.742V38.4011H185.649V107.742H186.047Z" fill="#E6E6E6"/>
<path opacity="0.5" d="M189.927 45.0132H103.83L103.543 39.6252H189.64L189.927 45.0132Z" fill="#E0E0E0"/>
<path opacity="0.5" d="M189.927 53.8667H103.83L103.543 48.4832H189.64L189.927 53.8667Z" fill="#E0E0E0"/>
<path opacity="0.5" d="M189.927 62.7197H103.83L103.543 57.3362H189.64L189.927 62.7197Z" fill="#E0E0E0"/>
<path opacity="0.5" d="M189.927 71.5777H103.83L103.543 66.1897H189.64L189.927 71.5777Z" fill="#E0E0E0"/>
<path opacity="0.5" d="M189.927 80.4307H103.83L103.543 75.0427H189.64L189.927 80.4307Z" fill="#E0E0E0"/>
<path opacity="0.5" d="M189.927 89.284H103.83L103.543 83.896H189.64L189.927 89.284Z" fill="#E0E0E0"/>
<path d="M52.819 51.1482H25.9233V104.325H52.819V51.1482Z" fill="#E0E0E0"/>
<path d="M54.4146 51.1482H26.9885V104.325H54.4146V51.1482Z" fill="#F5F5F5"/>
<path d="M29.2825 54.2247L29.2825 101.249H52.1118V54.2247H29.2825Z" fill="white"/>
<path d="M88.7271 43.0332H61.8314V96.2102H88.7271V43.0332Z" fill="#E0E0E0"/>
<path d="M90.3227 43.0332H62.8966V96.2102H90.3227V43.0332Z" fill="#F5F5F5"/>
<path d="M65.195 46.1094V93.1338H88.0287V46.1094H65.195Z" fill="white"/>
<path d="M83.9491 120.012H72.6295V169.021H83.9491V120.012Z" fill="#E6E6E6"/>
<path d="M81.801 169.021H83.9491V164.031H79.5468L81.801 169.021Z" fill="#F0F0F0"/>
<path d="M41.6364 120.012H30.3168V169.021H41.6364V120.012Z" fill="#E6E6E6"/>
<path d="M83.949 120.012H39.7579V165.958H83.949V120.012Z" fill="#F0F0F0"/>
<path d="M62.5739 123.066V159.717H82.2783V123.066H62.5739Z" fill="#E6E6E6"/>
<path d="M41.4243 123.066V159.717H61.1286V123.066H41.4243Z" fill="#E6E6E6"/>
<path d="M53.23 124.467H49.3316C47.6978 124.483 46.1113 123.919 44.8541 122.876H57.7075C56.4503 123.919 54.8638 124.483 53.23 124.467Z" fill="#F0F0F0"/>
<path d="M74.5787 124.467H70.6802C69.0463 124.484 67.4596 123.92 66.2028 122.876H79.0561C77.7989 123.919 76.2124 124.483 74.5787 124.467Z" fill="#F0F0F0"/>
<path d="M41.9104 169.021H39.7579V164.031H44.1646L41.9104 169.021Z" fill="#F0F0F0"/>
<path d="M50.1317 115.336C50.1317 115.336 50.4676 120.012 63.3519 120.012C76.2362 120.012 76.5721 115.336 76.5721 115.336H50.1317Z" fill="#E6E6E6"/>
<path d="M100.917 136.3H197.636V128.202H100.917V136.3Z" fill="#EBEBEB"/>
<path d="M100.922 136.3H128.375V128.202H100.922V136.3Z" fill="#E0E0E0"/>
<path d="M191.85 169.021H197.64V136.299H191.85V169.021Z" fill="#EBEBEB"/>
<path d="M191.85 138.567L197.64 137.436V136.3H191.85V138.567Z" fill="#E0E0E0"/>
<path d="M100.917 169.021H106.708V136.299H100.917V169.021Z" fill="#E0E0E0"/>
<path d="M122.584 169.021H128.375V136.299H122.584V169.021Z" fill="#EBEBEB"/>
<path d="M122.584 138.567L128.374 137.436V136.3H122.584V138.567Z" fill="#E0E0E0"/>
<path d="M173.724 169.021H179.514V136.299H173.724V169.021Z" fill="#E0E0E0"/>
<path d="M110.5 188.981C157.83 188.981 196.199 186.741 196.199 183.978C196.199 181.215 157.83 178.975 110.5 178.975C63.1695 178.975 24.8006 181.215 24.8006 183.978C24.8006 186.741 63.1695 188.981 110.5 188.981Z" fill="#F5F5F5"/>
<path d="M102.769 57.1639H50.0432C49.2084 57.1553 48.3808 57.3204 47.6132 57.6488C46.8455 57.9772 46.1546 58.4617 45.5843 59.0715C45.014 59.6813 44.5768 60.4031 44.3004 61.191C44.024 61.9788 43.9146 62.8156 43.979 63.648L51.5372 176.093C51.6798 177.844 52.4695 179.48 53.7523 180.681C55.0352 181.883 56.7194 182.563 58.4766 182.59H111.203C112.039 182.6 112.868 182.435 113.637 182.106C114.405 181.777 115.097 181.291 115.667 180.679C116.237 180.068 116.674 179.344 116.949 178.554C117.223 177.765 117.33 176.926 117.263 176.093L109.704 63.648C109.559 61.8995 108.768 60.2676 107.487 59.0692C106.205 57.8709 104.524 57.1918 102.769 57.1639Z" fill="#006AFF"/>
<path opacity="0.3" d="M102.769 57.1639H50.0432C49.2084 57.1553 48.3808 57.3204 47.6132 57.6488C46.8455 57.9772 46.1546 58.4617 45.5843 59.0715C45.014 59.6813 44.5768 60.4031 44.3004 61.191C44.024 61.9788 43.9146 62.8156 43.979 63.648L51.5372 176.093C51.6798 177.844 52.4695 179.48 53.7523 180.681C55.0352 181.883 56.7194 182.563 58.4766 182.59H111.203C112.039 182.6 112.868 182.435 113.637 182.106C114.405 181.777 115.097 181.291 115.667 180.679C116.237 180.068 116.674 179.344 116.949 178.554C117.223 177.765 117.33 176.926 117.263 176.093L109.704 63.648C109.559 61.8995 108.768 60.2676 107.487 59.0692C106.205 57.8709 104.524 57.1918 102.769 57.1639Z" fill="white"/>
<path d="M44.0437 81.2568L43.6027 81.2864L44.3146 91.8926L44.7556 91.863L44.0437 81.2568Z" fill="#006AFF"/>
<path d="M45.1471 97.4393L44.7061 97.469L45.026 102.223L45.467 102.193L45.1471 97.4393Z" fill="#006AFF"/>
<path d="M55.3649 177.242C55.4009 177.671 55.2794 178.098 55.0232 178.443C54.7669 178.789 54.3936 179.029 53.973 179.119C53.5524 179.209 53.1134 179.142 52.7383 178.932C52.3631 178.722 52.0775 178.382 51.935 177.976C51.7152 177.377 51.5813 176.751 51.5372 176.115L43.979 63.6481C43.9343 63.015 43.9849 62.3788 44.1293 61.7607C44.2181 61.3395 44.4576 60.9653 44.8027 60.708C45.1479 60.4508 45.575 60.3284 46.004 60.3636C46.433 60.3989 46.8344 60.5894 47.133 60.8995C47.4315 61.2096 47.6066 61.618 47.6255 62.048L55.3649 177.242Z" fill="#006AFF"/>
<path d="M111.203 180.482H62.2159C60.9997 180.449 59.8378 179.971 58.9505 179.138C58.0633 178.306 57.5125 177.176 57.4026 175.965L49.8444 63.5242C49.7959 62.9813 49.8622 62.4343 50.0391 61.9187C50.2159 61.403 50.4992 60.9304 50.8706 60.5315C51.2421 60.1325 51.6933 59.8162 52.195 59.603C52.6967 59.3899 53.2376 59.2847 53.7826 59.2943H102.769C103.985 59.3271 105.146 59.8046 106.033 60.6363C106.921 61.468 107.472 62.5962 107.583 63.8071L115.141 176.252C115.188 176.795 115.121 177.341 114.943 177.856C114.766 178.371 114.483 178.843 114.112 179.242C113.74 179.64 113.29 179.957 112.789 180.17C112.288 180.384 111.747 180.49 111.203 180.482ZM53.7826 59.7672C53.3026 59.7584 52.8261 59.8509 52.3842 60.0386C51.9423 60.2263 51.5449 60.505 51.218 60.8565C50.891 61.2081 50.6418 61.6246 50.4866 62.0789C50.3314 62.5333 50.2737 63.0152 50.3173 63.4933L57.8755 175.916C57.9737 177.009 58.4701 178.028 59.2702 178.78C60.0704 179.531 61.1187 179.962 62.2159 179.991H111.203C111.683 180 112.159 179.908 112.601 179.72C113.043 179.532 113.44 179.254 113.767 178.902C114.094 178.55 114.344 178.134 114.499 177.68C114.654 177.225 114.712 176.743 114.668 176.265L107.11 63.8248C107.012 62.7316 106.515 61.7125 105.715 60.9613C104.915 60.21 103.867 59.7787 102.769 59.7496L53.7826 59.7672Z" fill="white"/>
<g opacity="0.5">
<path opacity="0.5" d="M99.0021 110.325C106.473 102.425 105.37 89.2514 96.5388 80.9004C87.7078 72.5494 74.4929 72.1836 67.0224 80.0834C59.552 87.9832 60.6549 101.157 69.4858 109.508C78.3168 117.859 91.5317 118.225 99.0021 110.325Z" fill="#006AFF"/>
<path opacity="0.5" d="M95.8035 107.305C101.78 100.985 100.897 90.4466 93.8329 83.7661C86.7684 77.0857 76.1971 76.793 70.221 83.1125C64.245 89.432 65.1273 99.9705 72.1917 106.651C79.2561 113.331 89.8275 113.624 95.8035 107.305Z" fill="white"/>
<path opacity="0.5" d="M92.6025 104.299C97.0849 99.5609 96.4246 91.6575 91.1276 86.6467C85.8306 81.6358 77.9028 81.4149 73.4204 86.1533C68.9379 90.8917 69.5983 98.795 74.8952 103.806C80.1922 108.817 88.12 109.038 92.6025 104.299Z" fill="#006AFF"/>
<path opacity="0.5" d="M89.4095 101.258C92.3984 98.0975 91.9572 92.8268 88.4241 89.4858C84.891 86.1447 79.6039 85.9984 76.615 89.159C73.6262 92.3196 74.0674 97.5903 77.6005 100.931C81.1336 104.272 86.4206 104.419 89.4095 101.258Z" fill="white"/>
<path opacity="0.5" d="M86.2095 98.2471C87.7042 96.6671 87.484 94.0317 85.7178 92.3608C83.9515 90.69 81.308 90.6164 79.8133 92.1964C78.3186 93.7765 78.5387 96.4119 80.305 98.0827C82.0712 99.7536 84.7148 99.8272 86.2095 98.2471Z" fill="#006AFF"/>
</g>
<path d="M87.0254 123.544C86.9458 123.544 86.8707 123.544 86.7911 123.544C86.1845 122.372 85.2712 121.387 84.1487 120.695C83.0261 120.002 81.7365 119.627 80.4175 119.61C79.741 119.609 79.0685 119.713 78.4241 119.919C77.7884 118.754 76.8539 117.779 75.7166 117.095C74.5794 116.41 73.2804 116.041 71.9532 116.025C71.119 116.013 70.2906 116.165 69.5154 116.474C68.7403 116.783 68.0337 117.241 67.4362 117.824C66.8387 118.406 66.3621 119.1 66.0336 119.867C65.7052 120.634 65.5313 121.458 65.5221 122.293C64.8623 122.332 64.2171 122.502 63.6243 122.795C63.0316 123.087 62.5033 123.495 62.0708 123.995C61.6382 124.494 61.3101 125.075 61.1058 125.704C60.9015 126.333 60.8251 126.996 60.8811 127.654C60.9956 129.106 61.6484 130.462 62.7115 131.457C63.7745 132.453 65.1711 133.015 66.6271 133.033H87.6751C88.2861 133.04 88.8918 132.92 89.4534 132.679C90.015 132.438 90.5201 132.083 90.9363 131.635C91.3524 131.188 91.6705 130.658 91.8701 130.081C92.0697 129.503 92.1463 128.891 92.0951 128.282C91.9908 127.003 91.4136 125.809 90.4761 124.933C89.5387 124.057 88.3084 123.561 87.0254 123.544Z" fill="white"/>
<path d="M100.431 72.1168H100.25C99.777 71.2042 99.0649 70.4372 98.1899 69.8977C97.3149 69.3582 96.3098 69.0665 95.2819 69.0537C94.7541 69.0526 94.2293 69.1331 93.7261 69.2924C93.2299 68.3851 92.5014 67.6262 91.6151 67.0934C90.7289 66.5605 89.7169 66.273 88.6829 66.2603C87.3738 66.2414 86.1107 66.7428 85.1709 67.6543C84.2311 68.5659 83.6915 69.8132 83.6706 71.1223C83.1561 71.1529 82.653 71.2861 82.1908 71.5142C81.7286 71.7422 81.3167 72.0604 80.9794 72.45C80.6421 72.8397 80.3861 73.2929 80.2266 73.7829C80.0671 74.273 80.0073 74.7901 80.0506 75.3036C80.1408 76.4343 80.6499 77.4906 81.478 78.2656C82.3062 79.0407 83.3939 79.4786 84.5281 79.4938H100.935C101.412 79.5004 101.885 79.4071 102.324 79.2199C102.762 79.0327 103.157 78.7558 103.482 78.4069C103.807 78.058 104.056 77.6449 104.212 77.1942C104.368 76.7434 104.427 76.265 104.387 75.7898C104.3 74.7964 103.847 73.8708 103.116 73.1922C102.385 72.5137 101.428 72.1305 100.431 72.1168Z" fill="white"/>
<path opacity="0.3" d="M106.964 140.936H76.6605C76.4415 140.934 76.2244 140.977 76.023 141.063C75.8217 141.149 75.6405 141.276 75.4912 141.436C75.3418 141.597 75.2275 141.786 75.1557 141.993C75.0838 142.2 75.0559 142.42 75.0737 142.638L76.3025 160.711C76.3378 161.171 76.5439 161.6 76.8801 161.915C77.2164 162.23 77.6584 162.408 78.1191 162.413H82.1855L82.5258 167.412L87.1801 162.413H108.396C108.615 162.416 108.833 162.373 109.034 162.288C109.236 162.202 109.418 162.074 109.567 161.914C109.717 161.754 109.831 161.564 109.902 161.357C109.974 161.15 110.001 160.93 109.983 160.711L108.759 142.638C108.722 142.183 108.518 141.758 108.187 141.444C107.856 141.13 107.42 140.949 106.964 140.936Z" fill="white"/>
<path d="M106.73 152.817H78.5036L78.3489 150.532H106.579L106.73 152.817Z" fill="white"/>
<path d="M98.124 157.564H78.8263L78.6716 155.279H97.9693L98.124 157.564Z" fill="white"/>
<path d="M106.411 148.07H78.1809L78.0262 145.785H106.257L106.411 148.07Z" fill="white"/>
<path d="M130.673 64.5321L131.835 65.3674C132.239 65.6621 132.646 65.9406 133.055 66.2028C133.873 66.7465 134.695 67.2901 135.526 67.7852C136.357 68.2802 137.197 68.7487 138.028 69.1642C138.807 69.5569 139.613 69.8923 140.441 70.1676C140.257 70.1221 140.067 70.1131 139.88 70.141C139.768 70.1547 139.659 70.1861 139.557 70.2339C139.429 70.3002 139.469 70.3046 139.535 70.2648C139.791 70.0876 140.021 69.8764 140.22 69.6372C140.802 68.9429 141.328 68.204 141.794 67.4272C142.311 66.6139 142.806 65.752 143.279 64.868C143.752 63.984 144.225 63.0779 144.662 62.216L144.693 62.1585C144.917 61.7178 145.297 61.3763 145.759 61.2005C146.221 61.0248 146.732 61.0274 147.192 61.2078C147.653 61.3883 148.029 61.7336 148.249 62.1766C148.468 62.6196 148.515 63.1284 148.379 63.6039C147.779 65.7098 147.018 67.7666 146.103 69.7565C145.607 70.8272 145.023 71.8547 144.357 72.8284C143.94 73.4318 143.452 73.9824 142.903 74.4682C142.501 74.8182 142.046 75.1017 141.555 75.308C141.209 75.4498 140.847 75.5463 140.476 75.5953C140.033 75.6457 139.585 75.6203 139.15 75.5202C137.97 75.2462 136.814 74.8751 135.694 74.4108C134.646 73.9844 133.622 73.5019 132.627 72.9654C131.645 72.4439 130.689 71.8943 129.758 71.3168C129.294 71.025 128.834 70.7289 128.379 70.4328C127.924 70.1366 127.495 69.8272 126.995 69.4648C126.437 68.9503 126.088 68.2486 126.014 67.4932C125.939 66.7378 126.145 65.9815 126.592 65.368C127.039 64.7545 127.696 64.3268 128.438 64.1661C129.18 64.0055 129.955 64.1231 130.615 64.4967L130.673 64.5321Z" fill="#006AFF"/>
<path opacity="0.2" d="M130.673 64.5321L131.835 65.3674C132.239 65.6621 132.646 65.9406 133.055 66.2028C133.873 66.7465 134.695 67.2901 135.526 67.7852C136.357 68.2802 137.197 68.7487 138.028 69.1642C138.807 69.5569 139.613 69.8923 140.441 70.1676C140.257 70.1221 140.067 70.1131 139.88 70.141C139.768 70.1547 139.659 70.1861 139.557 70.2339C139.429 70.3002 139.469 70.3046 139.535 70.2648C139.791 70.0876 140.021 69.8764 140.22 69.6372C140.802 68.9429 141.328 68.204 141.794 67.4272C142.311 66.6139 142.806 65.752 143.279 64.868C143.752 63.984 144.225 63.0779 144.662 62.216L144.693 62.1585C144.917 61.7178 145.297 61.3763 145.759 61.2005C146.221 61.0248 146.732 61.0274 147.192 61.2078C147.653 61.3883 148.029 61.7336 148.249 62.1766C148.468 62.6196 148.515 63.1284 148.379 63.6039C147.779 65.7098 147.018 67.7666 146.103 69.7565C145.607 70.8272 145.023 71.8547 144.357 72.8284C143.94 73.4318 143.452 73.9824 142.903 74.4682C142.501 74.8182 142.046 75.1017 141.555 75.308C141.209 75.4498 140.847 75.5463 140.476 75.5953C140.033 75.6457 139.585 75.6203 139.15 75.5202C137.97 75.2462 136.814 74.8751 135.694 74.4108C134.646 73.9844 133.622 73.5019 132.627 72.9654C131.645 72.4439 130.689 71.8943 129.758 71.3168C129.294 71.025 128.834 70.7289 128.379 70.4328C127.924 70.1366 127.495 69.8272 126.995 69.4648C126.437 68.9503 126.088 68.2486 126.014 67.4932C125.939 66.7378 126.145 65.9815 126.592 65.368C127.039 64.7545 127.696 64.3268 128.438 64.1661C129.18 64.0055 129.955 64.1231 130.615 64.4967L130.673 64.5321Z" fill="black"/>
<path d="M145.776 61.3894L146.974 59.365L149.272 61.8446C148.94 62.5647 148.341 63.1274 147.601 63.4137C147.435 63.4703 147.258 63.4878 147.084 63.4648C146.91 63.4418 146.744 63.379 146.598 63.2811L146.156 62.9982C145.898 62.8303 145.715 62.5694 145.644 62.2699C145.573 61.9703 145.621 61.655 145.776 61.3894Z" fill="#FFB573"/>
<path d="M150.231 58.1583L150.74 58.4722C150.899 58.5709 151.033 58.7055 151.131 58.8653C151.229 59.0251 151.289 59.2056 151.305 59.3924C151.321 59.5792 151.293 59.7672 151.223 59.9412C151.153 60.1153 151.044 60.2706 150.903 60.3949L149.272 61.8446L146.974 59.365L148.976 58.1539C149.165 58.0385 149.383 57.9777 149.604 57.9785C149.826 57.9793 150.043 58.0416 150.231 58.1583Z" fill="#FFB573"/>
<path d="M102.553 180.389L106.053 180.491L107.371 172.385L103.874 172.283L102.553 180.389Z" fill="#FFB573"/>
<path d="M106.606 179.505L102.694 179.01C102.629 179 102.562 179.016 102.508 179.055C102.454 179.094 102.418 179.152 102.407 179.218L101.828 182.285C101.807 182.448 101.85 182.612 101.95 182.742C102.049 182.872 102.196 182.957 102.358 182.979C103.724 183.129 104.383 183.129 106.102 183.346C107.158 183.483 109.912 184.146 111.375 183.965C112.838 183.784 112.617 182.347 111.981 182.294C109.13 182.047 108.06 180.69 107.176 179.792C107.023 179.637 106.822 179.536 106.606 179.505Z" fill="#263238"/>
<path opacity="0.2" d="M103.87 172.287L107.371 172.389L106.69 176.566L103.189 176.464L103.87 172.287Z" fill="black"/>
<path d="M123.004 94.588C123.004 94.588 119.95 123.579 117.917 133.427C115.707 144.211 108.56 175.761 108.56 175.761L102.155 175.288C102.155 175.288 105.665 142.651 108.538 132.087C108.538 121.117 111.19 90.3713 111.19 90.3713L123.004 94.588Z" fill="#263238"/>
<path opacity="0.3" d="M112.798 104.387C112.741 102.12 111.512 101.39 110.301 101.417C109.859 106.871 109.386 113.559 109.028 119.592C111.176 116.109 112.958 110.686 112.798 104.387Z" fill="black"/>
<path d="M101.965 175.333L108.825 175.841L109.612 173.255L101.713 173.176L101.965 175.333Z" fill="white"/>
<path d="M67.0558 153.219L69.2614 155.946L75.8605 151.186L73.6505 148.463L67.0558 153.219Z" fill="#FFB573"/>
<path d="M69.7387 155.951L67.7763 152.534C67.7452 152.476 67.6927 152.433 67.6299 152.413C67.5671 152.393 67.4991 152.399 67.4404 152.428L64.6425 153.816C64.5005 153.897 64.3962 154.03 64.3523 154.188C64.3085 154.345 64.3286 154.513 64.4082 154.656C65.111 155.836 65.5088 156.362 66.3707 157.865C66.9011 158.789 68.2978 161.445 69.0227 162.727C69.7476 164.009 70.9985 163.244 70.7907 162.638C69.9067 159.916 69.6548 157.834 69.836 156.592C69.8764 156.373 69.8422 156.148 69.7387 155.951Z" fill="#263238"/>
<path opacity="0.2" d="M73.6504 148.463L75.8604 151.191L72.457 153.639L70.247 150.916L73.6504 148.463Z" fill="black"/>
<path d="M116.617 92.0952C116.617 92.0952 108.003 116.75 104.087 126.014C99.8036 136.158 74.1897 154.174 74.1897 154.174L70.1454 149.184C70.1454 149.184 87.5513 131.738 94.0134 123.464C97.5936 112.197 105.236 88.0244 105.236 88.0244L116.617 92.0952Z" fill="#263238"/>
<path d="M69.9819 148.981L74.3532 154.373L76.4881 153.14L71.3698 147.429L69.9819 148.981Z" fill="white"/>
<path d="M122.969 94.756L105.218 88.0244C105.66 86.4022 107.981 81.6375 110.045 75.0031C111.606 70.1005 112.741 65.0726 113.439 59.9751C113.457 59.8265 113.506 59.6831 113.581 59.5538C113.656 59.4245 113.757 59.3119 113.878 59.223C113.998 59.134 114.135 59.0706 114.281 59.0365C114.427 59.0024 114.578 58.9984 114.725 59.0248C115.057 59.0822 115.45 59.1574 115.884 59.2413C117.002 59.4668 118.399 59.785 119.729 60.1916C122.283 60.9403 124.791 61.8346 127.243 62.8702C128.064 63.2397 128.862 63.6574 129.634 64.121C130.093 64.3825 130.519 64.6986 130.903 65.0625C131.041 65.1736 131.156 65.3115 131.24 65.4679C131.325 65.6243 131.377 65.7961 131.393 65.973C131.393 68.5101 128.852 78.3402 122.969 94.756Z" fill="#F0F0F0"/>
<path d="M126.889 62.7067C124.891 61.4072 124.989 59.9221 125.665 58.49C125.835 58.1359 126.025 57.792 126.235 57.4602L124.312 54.2115L122.898 51.8291C122.589 54.4457 121.643 59.0779 119.433 60.1033C120.641 61.8087 122.366 63.0796 124.352 63.7277C127.614 64.7443 126.889 62.7067 126.889 62.7067Z" fill="#FFB573"/>
<path d="M124.228 63.6745L124.198 62.8435L121.988 63.2767L124.228 63.6745Z" fill="#E0E0E0"/>
<path d="M124.229 63.6746L124.64 62.9983L126.067 64.7354L124.229 63.6746Z" fill="#E0E0E0"/>
<path d="M119.733 59.7053C121.078 60.9422 122.579 61.9973 124.198 62.8435C123.314 63.3872 122.474 64.8192 122.156 66.0038C121.44 65.5043 118.575 60.7926 118.178 59.4976L119.733 59.7053Z" fill="white"/>
<path d="M126.474 62.2029C125.95 62.6398 125.312 62.9161 124.635 62.9985C125.108 63.6924 125.519 65.4914 125.519 66.5345C126.346 65.9952 127.623 64.1123 127.826 63.2593L126.474 62.2029Z" fill="white"/>
<path opacity="0.3" d="M126.545 62.1409C126.545 62.1409 128.476 63.0691 130.182 64.121C130.881 64.5519 131.421 65.1984 131.721 65.9629C132.021 66.7274 132.064 67.5686 131.844 68.3598C129.736 75.8119 126.889 83.0475 125.709 87.0741C124.458 91.3659 122.717 96.7495 122.717 96.7495L119.707 97.4611C119.707 97.4611 127.252 68.6029 126.545 62.1409Z" fill="black"/>
<path opacity="0.3" d="M119.689 59.3696C119.689 59.3696 117.095 59.0292 114.827 58.9276C114.032 58.8918 113.249 59.1312 112.61 59.6054C111.97 60.0796 111.514 60.7596 111.318 61.531C110.168 66.0747 109.32 74.7644 108.157 78.1457C106.712 82.3713 104.754 90.6101 104.754 90.6101L115.035 96.5506C115.035 96.5506 125.422 64.6426 119.689 59.3696Z" fill="black"/>
<path d="M119.689 59.3696C119.689 59.3696 117.095 59.0292 114.827 58.9276C114.032 58.8918 113.249 59.1312 112.61 59.6054C111.97 60.0796 111.514 60.7596 111.318 61.531C110.168 66.0747 108.604 74.5611 107.437 77.9468C105.983 82.1724 102.898 89.3548 102.898 89.3548L115.866 95.4368C115.866 95.4368 125.422 64.6426 119.689 59.3696Z" fill="#006AFF"/>
<path opacity="0.2" d="M119.689 59.3696C119.689 59.3696 117.095 59.0292 114.827 58.9276C114.032 58.8918 113.249 59.1312 112.61 59.6054C111.97 60.0796 111.514 60.7596 111.318 61.531C110.168 66.0747 108.604 74.5611 107.437 77.9468C105.983 82.1724 102.898 89.3548 102.898 89.3548L115.866 95.4368C115.866 95.4368 125.422 64.6426 119.689 59.3696Z" fill="black"/>
<path d="M126.545 62.1409C126.545 62.1409 128.476 63.0691 130.182 64.121C130.881 64.5519 131.421 65.1983 131.721 65.9629C132.021 66.7274 132.064 67.5686 131.844 68.3598C129.736 75.8119 128.069 83.6221 127.23 87.7327C126.346 92.1085 125.422 96.0909 125.422 96.0909L120.56 96.7495C120.56 96.7495 127.252 68.6029 126.545 62.1409Z" fill="#006AFF"/>
<path opacity="0.2" d="M126.545 62.1409C126.545 62.1409 128.476 63.0691 130.182 64.121C130.881 64.5519 131.421 65.1983 131.721 65.9629C132.021 66.7274 132.064 67.5686 131.844 68.3598C129.736 75.8119 128.069 83.6221 127.23 87.7327C126.346 92.1085 125.422 96.0909 125.422 96.0909L120.56 96.7495C120.56 96.7495 127.252 68.6029 126.545 62.1409Z" fill="black"/>
<path opacity="0.2" d="M126.235 57.4601C126.025 57.7963 125.834 58.1446 125.665 58.5032C124.719 57.9331 123.747 56.3595 123.977 55.2678C124.049 54.9043 124.161 54.5499 124.312 54.2114L126.235 57.4601Z" fill="black"/>
<path d="M128.962 44.0586C131.314 44.3636 132.176 47.5371 130.876 49.6322C128.746 46.5426 128.962 44.0586 128.962 44.0586Z" fill="#263238"/>
<path d="M121.643 49.9108C122.438 53.3098 122.726 55.3341 124.763 56.859C125.42 57.3624 126.202 57.6766 127.024 57.7675C127.847 57.8584 128.678 57.7226 129.429 57.3748C130.18 57.027 130.821 56.4804 131.283 55.7943C131.746 55.1081 132.011 54.3086 132.052 53.4822C132.273 50.3042 130.938 45.2786 127.336 44.3681C126.561 44.1495 125.742 44.1387 124.962 44.3368C124.181 44.5348 123.467 44.9348 122.89 45.4965C122.313 46.0582 121.894 46.7618 121.675 47.5366C121.456 48.3115 121.445 49.1303 121.643 49.9108Z" fill="#FFB573"/>
<path d="M122.69 52.9384C124.737 52.9959 124.419 49.6057 123.526 48.3239C126.363 48.7659 131.066 46.2598 131.539 43.6343C132.224 39.8287 126.421 39.8287 124.542 41.0398C125.351 41.0972 125.762 41.7823 125.568 42.1359C125.568 42.1359 122.765 41.2873 120.953 42.273C121.744 42.5647 122.584 43.705 119.574 44.0675C116.71 44.4122 117.576 47.2941 119.022 47.241C118.253 48.4212 117.329 51.1041 119.062 52.2445C120.794 53.3848 121.979 54.87 121.603 55.4799C122.209 55.4578 123.495 54.7285 122.69 52.9384Z" fill="#263238"/>
<path d="M119.433 46.9758C118.063 47.1084 117.276 48.1781 117.223 49.6278C117.81 48.6291 118.556 47.7332 119.433 46.9758Z" fill="#263238"/>
<path d="M120.825 52.9827C121.174 53.6803 121.774 54.2202 122.505 54.4943C123.464 54.8435 123.968 53.9949 123.72 53.049C123.495 52.1915 122.726 50.9848 121.753 51.0467C120.781 51.1086 120.401 52.1164 120.825 52.9827Z" fill="#FFB573"/>
<path d="M127.031 50.1715C127.075 50.4499 127.265 50.6532 127.446 50.6135C127.627 50.5737 127.738 50.3438 127.694 50.0654C127.65 49.7869 127.459 49.5792 127.274 49.6234C127.088 49.6676 126.982 49.893 127.031 50.1715Z" fill="#263238"/>
<path d="M130.2 49.7473C130.244 50.0257 130.43 50.229 130.615 50.1893C130.801 50.1495 130.907 49.9196 130.863 49.6368C130.819 49.3539 130.629 49.155 130.443 49.1948C130.257 49.2345 130.151 49.4644 130.2 49.7473Z" fill="#263238"/>
<path d="M129.214 50.0212C129.695 50.8313 130.281 51.5744 130.956 52.2312C130.54 52.7572 129.661 52.6732 129.661 52.6732L129.214 50.0212Z" fill="#ED893E"/>
<path d="M128.644 53.5616C128.317 53.5704 127.992 53.5126 127.688 53.3918C127.384 53.271 127.108 53.0896 126.876 52.8588C126.861 52.8432 126.853 52.8227 126.853 52.8013C126.853 52.78 126.861 52.7594 126.876 52.7439C126.884 52.736 126.893 52.7297 126.903 52.7255C126.914 52.7212 126.925 52.719 126.936 52.719C126.947 52.719 126.958 52.7212 126.968 52.7255C126.978 52.7297 126.988 52.736 126.995 52.7439C127.251 52.992 127.561 53.1774 127.901 53.2855C128.241 53.3936 128.601 53.4216 128.953 53.3671C128.965 53.3632 128.978 53.3619 128.99 53.3634C129.002 53.3648 129.014 53.369 129.024 53.3755C129.035 53.382 129.044 53.3908 129.051 53.4012C129.057 53.4116 129.062 53.4233 129.063 53.4355C129.065 53.4478 129.064 53.4602 129.06 53.472C129.056 53.4838 129.05 53.4946 129.042 53.5037C129.033 53.5128 129.023 53.5199 129.012 53.5246C129 53.5292 128.988 53.5313 128.976 53.5306C128.866 53.5496 128.755 53.5599 128.644 53.5616Z" fill="#263238"/>
<path d="M127.76 54.481C127.496 54.2862 127.274 54.0395 127.108 53.756C126.943 53.4725 126.837 53.1582 126.797 52.8323C126.795 52.8107 126.802 52.7895 126.816 52.7731C126.83 52.7566 126.85 52.7462 126.872 52.7439C126.882 52.7427 126.893 52.7437 126.904 52.7469C126.914 52.75 126.924 52.7553 126.932 52.7623C126.94 52.7694 126.947 52.7781 126.952 52.7878C126.957 52.7976 126.96 52.8082 126.96 52.8191C127.012 53.1718 127.143 53.5083 127.343 53.8031C127.544 54.0978 127.809 54.3432 128.118 54.5207C128.128 54.5258 128.136 54.5327 128.143 54.5411C128.149 54.5495 128.154 54.5591 128.157 54.5694C128.16 54.5797 128.161 54.5905 128.159 54.6012C128.158 54.6118 128.154 54.622 128.149 54.6312C128.144 54.6408 128.136 54.6493 128.127 54.656C128.119 54.6628 128.109 54.6677 128.098 54.6706C128.087 54.6735 128.076 54.6742 128.065 54.6728C128.054 54.6713 128.044 54.6677 128.034 54.6622C127.94 54.6064 127.848 54.5459 127.76 54.481Z" fill="#263238"/>
<path d="M125.877 49.2831C125.851 49.2896 125.824 49.2896 125.798 49.2831C125.778 49.2733 125.76 49.2596 125.746 49.2428C125.732 49.226 125.721 49.2065 125.714 49.1855C125.708 49.1644 125.705 49.1422 125.707 49.1202C125.71 49.0983 125.716 49.077 125.727 49.0576C125.844 48.8208 126.017 48.6163 126.231 48.4621C126.445 48.308 126.694 48.2089 126.956 48.1737C126.978 48.1718 126.999 48.1745 127.02 48.1813C127.041 48.1882 127.06 48.1991 127.077 48.2136C127.093 48.228 127.107 48.2456 127.116 48.2653C127.126 48.285 127.131 48.3065 127.132 48.3283C127.134 48.3502 127.132 48.3722 127.125 48.393C127.118 48.4138 127.107 48.433 127.093 48.4495C127.078 48.466 127.061 48.4794 127.041 48.489C127.021 48.4985 127 48.504 126.978 48.5051C126.775 48.5343 126.582 48.6117 126.415 48.7309C126.248 48.8501 126.112 49.0076 126.019 49.1902C126.007 49.2178 125.987 49.2412 125.962 49.2577C125.937 49.2742 125.907 49.283 125.877 49.2831Z" fill="#263238"/>
<path d="M131.376 48.4785C131.349 48.4793 131.322 48.4733 131.298 48.4609C131.274 48.4485 131.254 48.4303 131.239 48.4078C131.121 48.2302 130.964 48.082 130.78 47.9747C130.596 47.8674 130.39 47.8039 130.178 47.789C130.139 47.7826 130.103 47.7624 130.077 47.732C130.051 47.7016 130.037 47.6631 130.037 47.6233C130.037 47.5834 130.051 47.5449 130.077 47.5145C130.103 47.4842 130.139 47.464 130.178 47.4575C130.443 47.4724 130.701 47.5489 130.931 47.6808C131.161 47.8128 131.357 47.9967 131.504 48.2178C131.517 48.2354 131.526 48.2554 131.53 48.2765C131.535 48.2977 131.536 48.3196 131.532 48.341C131.528 48.3624 131.521 48.3829 131.509 48.4012C131.497 48.4195 131.482 48.4352 131.464 48.4476C131.439 48.4673 131.408 48.4782 131.376 48.4785Z" fill="#263238"/>
<path d="M115.777 64.6471C114.893 65.3676 113.961 66.1676 113.072 66.9499C112.184 67.7323 111.278 68.5367 110.42 69.3588C108.714 70.9379 107.117 72.6302 105.638 74.4241L105.134 75.0783L105.072 75.1623C105.086 75.1425 105.097 75.1219 105.108 75.1004C105.134 75.0509 105.156 74.9991 105.174 74.9457C105.208 74.8566 105.225 74.7624 105.227 74.6672C105.227 74.517 105.2 74.517 105.227 74.5877C105.246 74.7236 105.285 74.8561 105.342 74.9811C105.52 75.3984 105.742 75.7955 106.005 76.1656C106.309 76.6126 106.637 77.0434 106.986 77.4563C107.698 78.3403 108.493 79.1845 109.329 80.0198C110.164 80.8552 111.048 81.6994 111.892 82.4729L111.95 82.5216C112.322 82.8562 112.554 83.3192 112.6 83.8178C112.645 84.3163 112.5 84.8136 112.195 85.21C111.889 85.6064 111.444 85.8726 110.951 85.9552C110.457 86.0377 109.95 85.9306 109.532 85.6553C107.315 84.2499 105.242 82.6287 103.344 80.8154C102.862 80.3337 102.389 79.8298 101.925 79.2729C101.423 78.6692 100.979 78.0195 100.599 77.3325C100.369 76.9101 100.181 76.4659 100.038 76.0065C99.8456 75.388 99.7766 74.7377 99.8345 74.0926C99.8707 73.6885 99.9629 73.2913 100.109 72.9125C100.185 72.7163 100.275 72.5258 100.378 72.3423L100.537 72.0815L100.608 71.9755L101.183 71.1224C102.714 68.9841 104.419 66.9751 106.279 65.1156C107.163 64.1963 108.091 63.299 109.033 62.4327C109.974 61.5664 110.907 60.731 111.945 59.8823C112.584 59.5043 113.337 59.3682 114.067 59.4988C114.797 59.6294 115.456 60.0181 115.924 60.594C116.391 61.1699 116.637 61.8946 116.615 62.6362C116.593 63.3777 116.305 64.0867 115.804 64.6338L115.777 64.6471Z" fill="#006AFF"/>
<path opacity="0.2" d="M115.777 64.6471C114.893 65.3676 113.961 66.1676 113.072 66.9499C112.184 67.7323 111.278 68.5367 110.42 69.3588C108.714 70.9379 107.117 72.6302 105.638 74.4241L105.134 75.0783L105.072 75.1623C105.086 75.1425 105.097 75.1219 105.108 75.1004C105.134 75.0509 105.156 74.9991 105.174 74.9457C105.208 74.8566 105.225 74.7624 105.227 74.6672C105.227 74.517 105.2 74.517 105.227 74.5877C105.246 74.7236 105.285 74.8561 105.342 74.9811C105.52 75.3984 105.742 75.7955 106.005 76.1656C106.309 76.6126 106.637 77.0434 106.986 77.4563C107.698 78.3403 108.493 79.1845 109.329 80.0198C110.164 80.8552 111.048 81.6994 111.892 82.4729L111.95 82.5216C112.322 82.8562 112.554 83.3192 112.6 83.8178C112.645 84.3163 112.5 84.8136 112.195 85.21C111.889 85.6064 111.444 85.8726 110.951 85.9552C110.457 86.0377 109.95 85.9306 109.532 85.6553C107.315 84.2499 105.242 82.6287 103.344 80.8154C102.862 80.3337 102.389 79.8298 101.925 79.2729C101.423 78.6692 100.979 78.0195 100.599 77.3325C100.369 76.9101 100.181 76.4659 100.038 76.0065C99.8456 75.388 99.7766 74.7377 99.8345 74.0926C99.8707 73.6885 99.9629 73.2913 100.109 72.9125C100.185 72.7163 100.275 72.5258 100.378 72.3423L100.537 72.0815L100.608 71.9755L101.183 71.1224C102.714 68.9841 104.419 66.9751 106.279 65.1156C107.163 64.1963 108.091 63.299 109.033 62.4327C109.974 61.5664 110.907 60.731 111.945 59.8823C112.584 59.5043 113.337 59.3682 114.067 59.4988C114.797 59.6294 115.456 60.0181 115.924 60.594C116.391 61.1699 116.637 61.8946 116.615 62.6362C116.593 63.3777 116.305 64.0867 115.804 64.6338L115.777 64.6471Z" fill="black"/>
<path d="M112.564 83.2022L115.57 85.0409L111.729 87.2288C111.729 87.2288 109.174 85.3194 110.266 84.0862L111.548 83.2022C111.699 83.1039 111.875 83.0515 112.056 83.0515C112.236 83.0515 112.413 83.1039 112.564 83.2022Z" fill="#FFB573"/>
<path d="M115.733 88.4002L114.08 89.3726C113.966 89.4408 113.839 89.4854 113.707 89.5037C113.575 89.5219 113.441 89.5135 113.312 89.4789C113.183 89.4442 113.063 89.3841 112.958 89.3021C112.853 89.22 112.766 89.1178 112.701 89.0013L111.729 87.2333L115.57 85.0454L116.189 87.2554C116.25 87.4697 116.239 87.6983 116.156 87.9055C116.074 88.1126 115.925 88.2866 115.733 88.4002Z" fill="#FFB573"/>
<path d="M144.485 57.186L148.556 56.386C147.438 58.3573 149.082 60.2446 150.558 61.4292C151.261 61.995 150.766 63.0071 149.674 63.1972L147.023 63.7188C143.822 64.3641 144.485 57.186 144.485 57.186Z" fill="#006AFF"/>
<path d="M142.868 57.4997L152.203 55.6919C153.66 55.4014 154.944 54.5454 155.772 53.3113C156.6 52.0771 156.906 50.5652 156.623 49.1061C156.33 47.6496 155.474 46.3678 154.24 45.5399C153.006 44.712 151.496 44.4051 150.037 44.6861L140.706 46.516C139.249 46.8097 137.968 47.6671 137.14 48.9013C136.312 50.1356 136.005 51.6469 136.286 53.1062C136.584 54.5575 137.442 55.8328 138.674 56.6554C139.906 57.4779 141.413 57.7813 142.868 57.4997Z" fill="#006AFF"/>
<path opacity="0.3" d="M142.868 57.4997L152.203 55.6919C153.66 55.4014 154.944 54.5454 155.772 53.3113C156.6 52.0771 156.906 50.5652 156.623 49.1061C156.33 47.6496 155.474 46.3678 154.24 45.5399C153.006 44.712 151.496 44.4051 150.037 44.6861L140.706 46.516C139.249 46.8097 137.968 47.6671 137.14 48.9013C136.312 50.1356 136.005 51.6469 136.286 53.1062C136.584 54.5575 137.442 55.8328 138.674 56.6554C139.906 57.4779 141.413 57.7813 142.868 57.4997Z" fill="white"/>
<path d="M168.274 59.4047L152.362 59.1925C150.983 59.4621 147.5 41.6053 148.861 41.3357L163.509 35.1477L168.274 59.4047Z" fill="#006AFF"/>
<path d="M164.623 47.5195C165.949 54.2202 167.571 59.5418 168.274 59.4048C168.977 59.2678 168.482 53.7207 167.164 47.0288C165.847 40.337 164.216 35.0064 163.514 35.1435C162.811 35.2805 163.31 40.8143 164.623 47.5195Z" fill="#006AFF"/>
<path opacity="0.3" d="M164.623 47.5195C165.949 54.2202 167.571 59.5418 168.274 59.4048C168.977 59.2678 168.482 53.7207 167.164 47.0288C165.847 40.337 164.216 35.0064 163.514 35.1435C162.811 35.2805 163.31 40.8143 164.623 47.5195Z" fill="black"/>
<path d="M170.612 46.6928C170.289 45.053 166.634 44.3856 165.861 44.5403C165.087 44.695 164.711 46.1447 165.03 47.7845C165.348 49.4244 166.245 50.6266 167.023 50.4763C167.801 50.326 170.921 48.3282 170.612 46.6928Z" fill="#006AFF"/>
<path d="M195.225 42.4385L174.522 45.7881L174.597 46.255L195.301 42.9054L195.225 42.4385Z" fill="#006AFF"/>
<path d="M181.059 33.4997L172.57 40.7375L172.877 41.0974L181.366 33.8595L181.059 33.4997Z" fill="#006AFF"/>
<path d="M185.262 55.8831L185.105 56.3291L188.218 57.428L188.376 56.982L185.262 55.8831Z" fill="#006AFF"/>
<path d="M173.981 52.0399L173.831 52.4883L181.709 55.1305L181.859 54.6821L173.981 52.0399Z" fill="#006AFF"/>
</svg>
