<svg width="20" height="20" viewBox="0 0 20 20" fill="none" xmlns="http://www.w3.org/2000/svg">
<path fill-rule="evenodd" clip-rule="evenodd" d="M15 17.5H5V5.625H3.75V17.5C3.75 18.19 4.31 18.75 5 18.75H15C15.69 18.75 16.25 18.19 16.25 17.5V5.625H15V17.5Z" fill="#9C9C9C"/>
<path fill-rule="evenodd" clip-rule="evenodd" d="M6.875 16.25H8.125V6.875H6.875V16.25Z" fill="#9C9C9C"/>
<path fill-rule="evenodd" clip-rule="evenodd" d="M11.875 16.25H13.125V6.875H11.875V16.25Z" fill="#9C9C9C"/>
<path fill-rule="evenodd" clip-rule="evenodd" d="M9.375 16.25H10.625V6.875H9.375V16.25Z" fill="#9C9C9C"/>
<path fill-rule="evenodd" clip-rule="evenodd" d="M11.875 3.125C11.875 2.08938 11.0356 1.25 10 1.25C8.96438 1.25 8.125 2.08938 8.125 3.125H2.5V4.375H17.5V3.125H11.875Z" fill="#9C9C9C"/>
</svg>
