<svg width="24" height="24" viewBox="0 0 24 24" fill="none" xmlns="http://www.w3.org/2000/svg">
<path fill-rule="evenodd" clip-rule="evenodd" d="M18 21H6V6.75H4.5V21C4.5 21.828 5.172 22.5 6 22.5H18C18.828 22.5 19.5 21.828 19.5 21V6.75H18V21Z" fill="#9C9C9C"/>
<path fill-rule="evenodd" clip-rule="evenodd" d="M8.25 19.5H9.75V8.25H8.25V19.5Z" fill="#9C9C9C"/>
<path fill-rule="evenodd" clip-rule="evenodd" d="M14.25 19.5H15.75V8.25H14.25V19.5Z" fill="#9C9C9C"/>
<path fill-rule="evenodd" clip-rule="evenodd" d="M11.25 19.5H12.75V8.25H11.25V19.5Z" fill="#9C9C9C"/>
<path fill-rule="evenodd" clip-rule="evenodd" d="M14.25 3.75C14.25 2.50725 13.2428 1.5 12 1.5C10.7572 1.5 9.75 2.50725 9.75 3.75H3V5.25H21V3.75H14.25Z" fill="#9C9C9C"/>
</svg>
