<svg width="24" height="25" viewBox="0 0 24 25" fill="none" xmlns="http://www.w3.org/2000/svg">
<path fill-rule="evenodd" clip-rule="evenodd" d="M18 21.0278H6V6.77783H4.5V21.0278C4.5 21.8558 5.172 22.5278 6 22.5278H18C18.828 22.5278 19.5 21.8558 19.5 21.0278V6.77783H18V21.0278Z" fill="white"/>
<path fill-rule="evenodd" clip-rule="evenodd" d="M8.25 19.5278H9.75V8.27783H8.25V19.5278Z" fill="white"/>
<path fill-rule="evenodd" clip-rule="evenodd" d="M14.25 19.5278H15.75V8.27783H14.25V19.5278Z" fill="white"/>
<path fill-rule="evenodd" clip-rule="evenodd" d="M11.25 19.5278H12.75V8.27783H11.25V19.5278Z" fill="white"/>
<path fill-rule="evenodd" clip-rule="evenodd" d="M14.25 3.77783C14.25 2.53508 13.2428 1.52783 12 1.52783C10.7572 1.52783 9.75 2.53508 9.75 3.77783H3V5.27783H21V3.77783H14.25Z" fill="white"/>
</svg>
