<svg width="16" height="24" viewBox="0 0 16 24" fill="none" xmlns="http://www.w3.org/2000/svg">
<path fill-rule="evenodd" clip-rule="evenodd" d="M14 14.5V17H2V14.5H1V17C1 17.55 1.45 18 2 18H14C14.55 18 15 17.55 15 17V14.5H14Z" fill="#006AFF"/>
<path fill-rule="evenodd" clip-rule="evenodd" d="M7 12.5V11.5V8.5H9V11.5V12.5H9.675L7.9955 14.2725L6.3205 12.5H7ZM7.995 15.5C8.1295 15.5 8.264 15.4465 8.363 15.3385L12 11.5H10V7.5H6V11.5H4L7.626 15.3375C7.725 15.446 7.86 15.5 7.995 15.5Z" fill="#006AFF"/>
<path fill-rule="evenodd" clip-rule="evenodd" d="M6 6.5H10V5.5H6V6.5Z" fill="#006AFF"/>
</svg>
