<svg width="186" height="24" viewBox="0 0 186 24" fill="none" xmlns="http://www.w3.org/2000/svg">
<path fill-rule="evenodd" clip-rule="evenodd" d="M14 14.5V17H2V14.5H1V17C1 17.55 1.45 18 2 18H14C14.55 18 15 17.55 15 17V14.5H14Z" fill="#006AFF"/>
<path fill-rule="evenodd" clip-rule="evenodd" d="M7 12.5V11.5V8.5H9V11.5V12.5H9.675L7.9955 14.2725L6.3205 12.5H7ZM7.995 15.5C8.1295 15.5 8.264 15.4465 8.363 15.3385L12 11.5H10V7.5H6V11.5H4L7.626 15.3375C7.725 15.446 7.86 15.5 7.995 15.5Z" fill="#006AFF"/>
<path fill-rule="evenodd" clip-rule="evenodd" d="M6 6.5H10V5.5H6V6.5Z" fill="#006AFF"/>
<path d="M34.672 12.352C34.672 13.4933 34.4427 14.4907 33.984 15.344C33.5253 16.1867 32.848 16.8427 31.952 17.312C31.0667 17.7707 30 18 28.752 18H25.168V6.72H28.752C30 6.72 31.0667 6.94933 31.952 7.408C32.848 7.856 33.5253 8.50667 33.984 9.36C34.4427 10.2027 34.672 11.2 34.672 12.352ZM28.64 16.688C30.112 16.688 31.2373 16.3093 32.016 15.552C32.7947 14.7947 33.184 13.728 33.184 12.352C33.184 10.976 32.7947 9.90933 32.016 9.152C31.248 8.384 30.1227 8 28.64 8H26.624V16.688H28.64ZM40.6208 9.104C41.4634 9.104 42.2154 9.28533 42.8768 9.648C43.5488 10.0107 44.0714 10.5333 44.4448 11.216C44.8288 11.8987 45.0208 12.6987 45.0208 13.616C45.0208 14.5333 44.8288 15.3333 44.4448 16.016C44.0714 16.688 43.5488 17.2053 42.8768 17.568C42.2154 17.9307 41.4634 18.112 40.6208 18.112C39.7781 18.112 39.0208 17.9307 38.3488 17.568C37.6874 17.2053 37.1648 16.688 36.7808 16.016C36.3968 15.3333 36.2048 14.5333 36.2048 13.616C36.2048 12.6987 36.3968 11.8987 36.7808 11.216C37.1648 10.5333 37.6874 10.0107 38.3488 9.648C39.0208 9.28533 39.7781 9.104 40.6208 9.104ZM40.6208 10.384C40.0981 10.384 39.6128 10.5013 39.1648 10.736C38.7274 10.9707 38.3701 11.3333 38.0928 11.824C37.8261 12.304 37.6928 12.9013 37.6928 13.616C37.6928 14.32 37.8261 14.9173 38.0928 15.408C38.3701 15.888 38.7274 16.2453 39.1648 16.48C39.6128 16.7147 40.0981 16.832 40.6208 16.832C41.1434 16.832 41.6234 16.7147 42.0608 16.48C42.5088 16.2453 42.8661 15.888 43.1328 15.408C43.4101 14.9173 43.5487 14.32 43.5487 13.616C43.5487 12.9013 43.4101 12.304 43.1328 11.824C42.8661 11.3333 42.5088 10.9707 42.0608 10.736C41.6234 10.5013 41.1434 10.384 40.6208 10.384ZM58.982 9.216L56.454 18H54.886L52.47 10.848L50.038 18H48.454L45.958 9.216H47.43L49.302 16.608L51.734 9.216H53.254L55.702 16.592L57.59 9.216H58.982ZM64.9639 9.072C65.9879 9.072 66.8145 9.40267 67.4439 10.064C68.0732 10.7147 68.3879 11.6587 68.3879 12.896V18H66.9319V13.024C66.9319 12.1493 66.7079 11.4773 66.2599 11.008C65.8119 10.5387 65.2039 10.304 64.4359 10.304C63.6359 10.304 62.9959 10.5653 62.5159 11.088C62.0359 11.6 61.7959 12.352 61.7959 13.344V18H60.3399V9.216H61.7959V11.296C62.0199 10.5813 62.4145 10.032 62.9799 9.648C63.5559 9.264 64.2172 9.072 64.9639 9.072ZM72.0771 6.16V18H70.6211V6.16H72.0771ZM78.402 9.104C79.2447 9.104 79.9967 9.28533 80.658 9.648C81.33 10.0107 81.8527 10.5333 82.226 11.216C82.61 11.8987 82.802 12.6987 82.802 13.616C82.802 14.5333 82.61 15.3333 82.226 16.016C81.8527 16.688 81.33 17.2053 80.658 17.568C79.9967 17.9307 79.2447 18.112 78.402 18.112C77.5593 18.112 76.802 17.9307 76.13 17.568C75.4687 17.2053 74.946 16.688 74.562 16.016C74.178 15.3333 73.986 14.5333 73.986 13.616C73.986 12.6987 74.178 11.8987 74.562 11.216C74.946 10.5333 75.4687 10.0107 76.13 9.648C76.802 9.28533 77.5593 9.104 78.402 9.104ZM78.402 10.384C77.8793 10.384 77.394 10.5013 76.946 10.736C76.5087 10.9707 76.1513 11.3333 75.874 11.824C75.6073 12.304 75.474 12.9013 75.474 13.616C75.474 14.32 75.6073 14.9173 75.874 15.408C76.1513 15.888 76.5087 16.2453 76.946 16.48C77.394 16.7147 77.8793 16.832 78.402 16.832C78.9247 16.832 79.4047 16.7147 79.842 16.48C80.29 16.2453 80.6473 15.888 80.914 15.408C81.1913 14.9173 81.33 14.32 81.33 13.616C81.33 12.9013 81.1913 12.304 80.914 11.824C80.6473 11.3333 80.29 10.9707 79.842 10.736C79.4047 10.5013 78.9247 10.384 78.402 10.384ZM88.2993 9.104C89.1526 9.104 89.8726 9.31733 90.4593 9.744C91.0566 10.1707 91.4726 10.7413 91.7073 11.456V9.216H93.1633V18H91.7073V15.76C91.4726 16.4747 91.0566 17.0453 90.4593 17.472C89.8726 17.8987 89.1526 18.112 88.2993 18.112C87.5206 18.112 86.8273 17.9307 86.2193 17.568C85.6113 17.2053 85.1313 16.688 84.7793 16.016C84.4379 15.3333 84.2673 14.5333 84.2673 13.616C84.2673 12.6987 84.4379 11.8987 84.7793 11.216C85.1313 10.5333 85.6113 10.0107 86.2193 9.648C86.8273 9.28533 87.5206 9.104 88.2993 9.104ZM88.7153 10.4C87.8193 10.4 87.0993 10.688 86.5553 11.264C86.0219 11.8293 85.7553 12.6133 85.7553 13.616C85.7553 14.6187 86.0219 15.408 86.5553 15.984C87.0993 16.5493 87.8193 16.832 88.7153 16.832C89.2913 16.832 89.8033 16.6987 90.2513 16.432C90.7099 16.1653 91.0673 15.792 91.3233 15.312C91.5793 14.8213 91.7073 14.256 91.7073 13.616C91.7073 12.976 91.5793 12.4107 91.3233 11.92C91.0673 11.4293 90.7099 11.056 90.2513 10.8C89.8033 10.5333 89.2913 10.4 88.7153 10.4ZM99.0805 9.104C99.9338 9.104 100.654 9.31733 101.241 9.744C101.838 10.1707 102.254 10.7413 102.489 11.456V6.16H103.945V18H102.489V15.76C102.254 16.4747 101.838 17.0453 101.241 17.472C100.654 17.8987 99.9338 18.112 99.0805 18.112C98.3018 18.112 97.6085 17.9307 97.0005 17.568C96.3925 17.2053 95.9125 16.688 95.5605 16.016C95.2192 15.3333 95.0485 14.5333 95.0485 13.616C95.0485 12.6987 95.2192 11.8987 95.5605 11.216C95.9125 10.5333 96.3925 10.0107 97.0005 9.648C97.6085 9.28533 98.3018 9.104 99.0805 9.104ZM99.4965 10.4C98.6005 10.4 97.8805 10.688 97.3365 11.264C96.8032 11.8293 96.5365 12.6133 96.5365 13.616C96.5365 14.6187 96.8032 15.408 97.3365 15.984C97.8805 16.5493 98.6005 16.832 99.4965 16.832C100.073 16.832 100.585 16.6987 101.033 16.432C101.491 16.1653 101.849 15.792 102.105 15.312C102.361 14.8213 102.489 14.256 102.489 13.616C102.489 12.976 102.361 12.4107 102.105 11.92C101.849 11.4293 101.491 11.056 101.033 10.8C100.585 10.5333 100.073 10.4 99.4965 10.4ZM117.127 6.72V7.904H113.943V18H112.487V7.904H109.303V6.72H117.127ZM126.654 13.12C126.654 13.4293 126.633 13.696 126.59 13.92H119.566C119.598 14.9227 119.881 15.6747 120.414 16.176C120.958 16.6773 121.62 16.928 122.398 16.928C123.102 16.928 123.689 16.752 124.158 16.4C124.638 16.0373 124.932 15.5573 125.038 14.96H126.59C126.484 15.568 126.244 16.112 125.87 16.592C125.508 17.072 125.033 17.4453 124.446 17.712C123.86 17.9787 123.198 18.112 122.462 18.112C121.62 18.112 120.873 17.9307 120.222 17.568C119.572 17.2053 119.06 16.688 118.686 16.016C118.324 15.3333 118.142 14.5333 118.142 13.616C118.142 12.6987 118.324 11.8987 118.686 11.216C119.06 10.5333 119.572 10.0107 120.222 9.648C120.873 9.28533 121.62 9.104 122.462 9.104C123.316 9.104 124.057 9.28533 124.686 9.648C125.326 10.0107 125.812 10.496 126.142 11.104C126.484 11.712 126.654 12.384 126.654 13.12ZM125.182 13.216C125.214 12.5653 125.108 12.0213 124.862 11.584C124.617 11.1467 124.281 10.8213 123.854 10.608C123.428 10.3947 122.964 10.288 122.462 10.288C121.662 10.288 120.99 10.5387 120.446 11.04C119.902 11.5307 119.609 12.256 119.566 13.216H125.182ZM139.359 9.072C140.383 9.072 141.204 9.40267 141.823 10.064C142.452 10.7147 142.767 11.6587 142.767 12.896V18H141.311V13.024C141.311 12.16 141.097 11.4987 140.671 11.04C140.255 10.5813 139.679 10.352 138.943 10.352C138.175 10.352 137.556 10.608 137.087 11.12C136.628 11.6213 136.399 12.3627 136.399 13.344V18H134.943V13.024C134.943 12.16 134.729 11.4987 134.303 11.04C133.876 10.5813 133.3 10.352 132.575 10.352C131.796 10.352 131.172 10.608 130.703 11.12C130.244 11.6213 130.015 12.3627 130.015 13.344V18H128.559V9.216H130.015V11.216C130.228 10.5227 130.607 9.99467 131.151 9.632C131.705 9.25867 132.34 9.072 133.055 9.072C133.801 9.072 134.447 9.264 134.991 9.648C135.545 10.0213 135.94 10.576 136.175 11.312C136.42 10.5973 136.831 10.048 137.407 9.664C137.983 9.26933 138.633 9.072 139.359 9.072ZM149.875 9.104C150.654 9.104 151.347 9.28533 151.955 9.648C152.563 10.0107 153.038 10.5333 153.379 11.216C153.731 11.8987 153.907 12.6987 153.907 13.616C153.907 14.5333 153.731 15.3333 153.379 16.016C153.038 16.688 152.563 17.2053 151.955 17.568C151.347 17.9307 150.654 18.112 149.875 18.112C149.022 18.112 148.297 17.8987 147.699 17.472C147.113 17.0347 146.707 16.464 146.483 15.76V22.16H145.027V9.216H146.483V11.456C146.707 10.752 147.113 10.1867 147.699 9.76C148.297 9.32267 149.022 9.104 149.875 9.104ZM149.459 10.4C148.894 10.4 148.382 10.5333 147.923 10.8C147.465 11.056 147.107 11.4293 146.851 11.92C146.595 12.4107 146.467 12.976 146.467 13.616C146.467 14.256 146.595 14.8213 146.851 15.312C147.107 15.792 147.465 16.1653 147.923 16.432C148.382 16.6987 148.894 16.832 149.459 16.832C150.366 16.832 151.086 16.5493 151.619 15.984C152.163 15.408 152.435 14.6187 152.435 13.616C152.435 12.6133 152.163 11.8293 151.619 11.264C151.086 10.688 150.366 10.4 149.459 10.4ZM157.265 6.16V18H155.809V6.16H157.265ZM163.206 9.104C164.059 9.104 164.779 9.31733 165.366 9.744C165.963 10.1707 166.379 10.7413 166.614 11.456V9.216H168.07V18H166.614V15.76C166.379 16.4747 165.963 17.0453 165.366 17.472C164.779 17.8987 164.059 18.112 163.206 18.112C162.427 18.112 161.734 17.9307 161.126 17.568C160.518 17.2053 160.038 16.688 159.686 16.016C159.344 15.3333 159.174 14.5333 159.174 13.616C159.174 12.6987 159.344 11.8987 159.686 11.216C160.038 10.5333 160.518 10.0107 161.126 9.648C161.734 9.28533 162.427 9.104 163.206 9.104ZM163.622 10.4C162.726 10.4 162.006 10.688 161.462 11.264C160.928 11.8293 160.662 12.6133 160.662 13.616C160.662 14.6187 160.928 15.408 161.462 15.984C162.006 16.5493 162.726 16.832 163.622 16.832C164.198 16.832 164.71 16.6987 165.158 16.432C165.616 16.1653 165.974 15.792 166.23 15.312C166.486 14.8213 166.614 14.256 166.614 13.616C166.614 12.976 166.486 12.4107 166.23 11.92C165.974 11.4293 165.616 11.056 165.158 10.8C164.71 10.5333 164.198 10.4 163.622 10.4ZM174.579 16.72V18H173.491C172.595 18 171.923 17.7867 171.475 17.36C171.037 16.9333 170.819 16.2187 170.819 15.216V10.48H169.507V9.216H170.819V7.024H172.291V9.216H174.563V10.48H172.291V15.248C172.291 15.8133 172.392 16.2027 172.595 16.416C172.808 16.6187 173.171 16.72 173.683 16.72H174.579ZM184.436 13.12C184.436 13.4293 184.414 13.696 184.372 13.92H177.348C177.38 14.9227 177.662 15.6747 178.196 16.176C178.74 16.6773 179.401 16.928 180.18 16.928C180.884 16.928 181.47 16.752 181.94 16.4C182.42 16.0373 182.713 15.5573 182.82 14.96H184.372C184.265 15.568 184.025 16.112 183.652 16.592C183.289 17.072 182.814 17.4453 182.228 17.712C181.641 17.9787 180.98 18.112 180.244 18.112C179.401 18.112 178.654 17.9307 178.004 17.568C177.353 17.2053 176.841 16.688 176.468 16.016C176.105 15.3333 175.924 14.5333 175.924 13.616C175.924 12.6987 176.105 11.8987 176.468 11.216C176.841 10.5333 177.353 10.0107 178.004 9.648C178.654 9.28533 179.401 9.104 180.244 9.104C181.097 9.104 181.838 9.28533 182.468 9.648C183.108 10.0107 183.593 10.496 183.924 11.104C184.265 11.712 184.436 12.384 184.436 13.12ZM182.964 13.216C182.996 12.5653 182.889 12.0213 182.644 11.584C182.398 11.1467 182.062 10.8213 181.636 10.608C181.209 10.3947 180.745 10.288 180.244 10.288C179.444 10.288 178.772 10.5387 178.228 11.04C177.684 11.5307 177.39 12.256 177.348 13.216H182.964Z" fill="#006AFF"/>
</svg>
