<svg width="24" height="25" viewBox="0 0 24 25" fill="none" xmlns="http://www.w3.org/2000/svg">
<path fill-rule="evenodd" clip-rule="evenodd" d="M20.5602 4.95552C21.1467 5.54202 21.1467 6.49302 20.5602 7.07952L19.4787 8.16102L18.4174 7.10052L19.4989 6.01902L16.5087 3.02877L15.4272 4.11027L14.3667 3.04977L15.4482 1.96827C16.0347 1.38102 16.9857 1.38102 17.5722 1.96827L20.5602 4.95552Z" fill="white"/>
<path fill-rule="evenodd" clip-rule="evenodd" d="M5.71576 14.2223L8.30626 16.8121L4.97551 17.5523L5.71576 14.2223ZM9.56702 15.9518L6.57602 12.9608L13.305 6.23184L16.296 9.22209L9.56702 15.9518ZM18.4177 9.22209L17.3565 8.16159L13.3095 4.11309L13.3057 4.11084L4.46025 12.9556L3 19.5278L9.57225 18.0676L18.4177 9.22209Z" fill="white"/>
<path fill-rule="evenodd" clip-rule="evenodd" d="M3 22.5278H21V21.0278H3V22.5278Z" fill="white"/>
</svg>
