<svg width="36" height="36" viewBox="0 0 36 36" fill="none" xmlns="http://www.w3.org/2000/svg">
<path d="M10.543 19.2734L11.6094 17.3125H12.957L11.3008 20.1328L13 23H11.6367L10.543 21.0078L9.44922 23H8.08594L9.78516 20.1328L8.12891 17.3125H9.47656L10.543 19.2734ZM14.7656 22.0586H17.2539V23H13.5938V17.3125H14.7656V22.0586ZM19.9648 19.2734L21.0312 17.3125H22.3789L20.7227 20.1328L22.4219 23H21.0586L19.9648 21.0078L18.8711 23H17.5078L19.207 20.1328L17.5508 17.3125H18.8984L19.9648 19.2734ZM25.9648 21.5078C25.9648 21.2865 25.8867 21.1172 25.7305 21C25.5742 20.8802 25.293 20.7552 24.8867 20.625C24.4805 20.4922 24.1589 20.362 23.9219 20.2344C23.276 19.8854 22.9531 19.4154 22.9531 18.8242C22.9531 18.5169 23.0391 18.2435 23.2109 18.0039C23.3854 17.7617 23.6341 17.5729 23.957 17.4375C24.2826 17.3021 24.6471 17.2344 25.0508 17.2344C25.457 17.2344 25.819 17.3086 26.1367 17.457C26.4544 17.6029 26.7005 17.8099 26.875 18.0781C27.0521 18.3464 27.1406 18.651 27.1406 18.9922H25.9688C25.9688 18.7318 25.8867 18.5299 25.7227 18.3867C25.5586 18.2409 25.3281 18.168 25.0312 18.168C24.7448 18.168 24.5221 18.2292 24.3633 18.3516C24.2044 18.4714 24.125 18.6302 24.125 18.8281C24.125 19.013 24.2174 19.168 24.4023 19.293C24.5898 19.418 24.8646 19.5352 25.2266 19.6445C25.8932 19.8451 26.3789 20.0938 26.6836 20.3906C26.9883 20.6875 27.1406 21.0573 27.1406 21.5C27.1406 21.9922 26.9544 22.3789 26.582 22.6602C26.2096 22.9388 25.7083 23.0781 25.0781 23.0781C24.6406 23.0781 24.2422 22.9987 23.8828 22.8398C23.5234 22.6784 23.2487 22.4583 23.0586 22.1797C22.8711 21.901 22.7773 21.5781 22.7773 21.2109H23.9531C23.9531 21.8385 24.3281 22.1523 25.0781 22.1523C25.3568 22.1523 25.5742 22.0964 25.7305 21.9844C25.8867 21.8698 25.9648 21.7109 25.9648 21.5078Z" fill="#4D984D"/>
<g opacity="0.7">
<path d="M29.25 31.5H6.75V4.5H20.25V2.25H6.75C6.15326 2.25 5.58097 2.48705 5.15901 2.90901C4.73705 3.33097 4.5 3.90326 4.5 4.5V31.5C4.5 32.0967 4.73705 32.669 5.15901 33.091C5.58097 33.5129 6.15326 33.75 6.75 33.75H29.25C29.8467 33.75 30.419 33.5129 30.841 33.091C31.2629 32.669 31.5 32.0967 31.5 31.5V13.5H29.25V31.5Z" fill="#006C00"/>
<path d="M24.75 11.25H31.5L22.5 2.25V9C22.5 9.59674 22.7371 10.169 23.159 10.591C23.581 11.0129 24.1533 11.25 24.75 11.25Z" fill="#006C00"/>
</g>
</svg>
