<svg width="243" height="260" viewBox="0 0 243 260" fill="none" xmlns="http://www.w3.org/2000/svg">
<path d="M183.567 159.209C175.893 152.048 175.169 140.317 176.539 130.011C176.768 128.289 176.777 126.443 177.696 125.019C178.615 123.594 180.515 122.762 181.885 123.656C183.023 124.4 183.397 125.949 183.941 127.265C184.675 129.014 185.854 130.506 187.343 131.571C188.315 132.257 189.55 132.756 190.624 132.273C192.082 131.612 192.475 129.569 192.636 127.853C192.94 124.649 193.245 121.444 193.549 118.238C193.71 116.522 193.885 114.764 194.546 113.194C195.207 111.623 196.465 110.235 198.04 109.949C199.615 109.663 201.408 110.828 201.559 112.549C201.548 113.266 201.491 113.982 201.389 114.691C201.364 115.409 201.593 116.251 202.205 116.506C202.817 116.761 203.517 116.371 204.052 115.924C205.884 114.364 207.23 112.284 208.508 110.173C209.787 108.061 211.031 105.914 212.727 104.198C214.423 102.482 216.649 101.218 218.962 101.343C221.276 101.468 223.574 103.272 223.91 105.753C224.245 108.233 222.685 110.547 221.047 112.341C218.624 115.007 215.852 117.284 212.819 119.101C212.238 119.364 211.75 119.817 211.424 120.396C210.963 121.498 211.862 122.757 212.882 123.251C214.034 123.817 215.346 123.833 216.581 124.135C217.815 124.436 219.118 125.175 219.463 126.506C219.949 128.336 218.384 130.021 216.911 131.071C213.962 133.173 210.697 134.717 207.259 135.637C206.035 135.959 204.747 136.225 203.707 136.999C202.667 137.774 201.933 139.256 202.39 140.535C202.847 141.815 204.28 142.371 205.544 142.267C206.807 142.163 207.974 141.57 209.208 141.227C211.507 140.593 214.34 141.081 215.526 143.307C216.323 144.753 216.216 146.63 215.585 148.174C214.888 149.688 213.915 151.037 212.722 152.142C208.772 156.233 203.879 159.129 198.541 160.535C193.233 161.84 188.437 161.809 183.552 159.235" fill="#F5F5F5"/>
<path d="M186.716 153.005C188.89 147.554 191.353 142.242 194.094 137.093L196.232 133.026C196.937 131.695 197.632 130.374 198.39 129.126C199.854 126.724 201.442 124.412 203.148 122.2C204.752 120.083 206.346 118.139 207.852 116.329C209.359 114.519 210.793 112.871 212.163 111.42C214.312 109.124 216.628 107.013 219.089 105.107C219.959 104.431 220.649 103.932 221.12 103.599L221.66 103.225C221.72 103.181 221.784 103.141 221.849 103.105C221.799 103.162 221.742 103.211 221.679 103.251L221.154 103.651C220.693 104 220.017 104.52 219.157 105.211C216.728 107.15 214.439 109.281 212.309 111.587C210.953 113.043 209.534 114.707 208.032 116.511C206.531 118.315 204.956 120.276 203.357 122.392C201.675 124.596 200.106 126.896 198.657 129.282C197.904 130.52 197.199 131.83 196.509 133.167L194.381 137.233C191.642 142.371 189.176 147.669 186.993 153.103" fill="#E0E0E0"/>
<path d="M198.473 129.121C198.42 128.875 198.393 128.624 198.39 128.372C198.356 127.889 198.322 127.182 198.298 126.292C198.244 124.556 198.244 122.158 198.254 119.532C198.264 116.906 198.254 114.488 198.157 112.772C198.118 111.904 198.079 111.212 198.05 110.724C198.024 110.471 198.024 110.217 198.05 109.964C198.115 110.207 198.158 110.456 198.176 110.708C198.244 111.192 198.312 111.888 198.38 112.757C198.511 114.488 198.575 116.917 198.565 119.548C198.555 122.179 198.536 124.519 198.521 126.308V128.388C198.533 128.634 198.517 128.88 198.473 129.121Z" fill="#E0E0E0"/>
<path d="M219.536 127.4C219.258 127.427 218.978 127.427 218.7 127.4C218.165 127.4 217.393 127.369 216.435 127.4C214.52 127.4 211.881 127.499 208.97 127.743C206.059 127.987 203.435 128.346 201.539 128.653C200.592 128.804 199.829 128.944 199.304 129.038C199.031 129.106 198.753 129.146 198.473 129.157C198.735 129.054 199.005 128.974 199.279 128.918C199.804 128.783 200.562 128.606 201.51 128.429C203.396 128.06 206.03 127.675 208.946 127.426C211.438 127.203 213.94 127.118 216.44 127.171C217.412 127.171 218.17 127.249 218.705 127.296C218.984 127.303 219.262 127.338 219.536 127.4Z" fill="#E0E0E0"/>
<path d="M187.008 152.63C186.958 152.542 186.92 152.445 186.896 152.344C186.823 152.116 186.731 151.824 186.624 151.502C186.391 150.774 186.08 149.708 185.706 148.382C184.967 145.735 184.048 142.048 183.091 137.982C182.133 133.916 181.249 130.182 180.559 127.546C180.219 126.251 179.942 125.19 179.737 124.4C179.645 124.056 179.577 123.776 179.514 123.542C179.451 123.308 179.446 123.24 179.46 123.235C179.508 123.325 179.546 123.421 179.572 123.521C179.645 123.75 179.737 124.041 179.844 124.363C180.078 125.091 180.394 126.157 180.763 127.483C181.502 130.125 182.42 133.817 183.378 137.883C184.335 141.95 185.22 145.683 185.91 148.32C186.25 149.614 186.527 150.675 186.731 151.44C186.823 151.783 186.891 152.069 186.955 152.298C187.018 152.526 187.023 152.625 187.008 152.63Z" fill="#E0E0E0"/>
<path d="M215.395 146.333C215.305 146.375 215.21 146.405 215.113 146.422L214.287 146.614L211.245 147.295C208.679 147.872 205.14 148.71 201.233 149.64C197.326 150.571 193.778 151.372 191.202 151.892C189.909 152.152 188.864 152.35 188.14 152.469L187.304 152.604C187.206 152.617 187.106 152.617 187.008 152.604C187.099 152.562 187.196 152.532 187.295 152.516L188.121 152.324L191.158 151.642C193.724 151.065 197.262 150.228 201.17 149.297C205.077 148.366 208.625 147.566 211.206 147.046C212.494 146.786 213.539 146.588 214.263 146.468L215.099 146.333C215.197 146.321 215.297 146.321 215.395 146.333Z" fill="#E0E0E0"/>
<path d="M23.6 70.2988C23.6 70.2988 20.5722 71.6092 24.0617 78.4888C27.5512 85.3684 29.9472 88.7588 29.9472 88.7588C29.9472 88.7588 30.5741 90.3656 29.3056 90.6516C28.0372 90.9376 25.2232 90.5372 24.6984 92.2116C24.1735 93.886 25.3642 95.5552 27.7796 96.9176C30.195 98.28 35.3806 101.483 35.852 101.774C36.3235 102.066 36.7803 102.814 35.9493 103.147C35.1182 103.48 28.8245 104.369 29.3931 107.536C29.9617 110.703 37.2712 113.36 38.0682 113.641C38.8653 113.922 39.0402 114.296 39.0062 114.759C38.9722 115.222 36.8095 115.305 35.0307 115.632C33.252 115.96 31.2399 116.672 31.7113 118.472C32.1828 120.271 36.5713 123.958 47.0155 124.764L51.8755 124.795L54.4318 120.328C59.2918 110.417 58.7135 104.489 57.5325 103.111C56.3515 101.733 54.7283 103.178 53.523 104.619C52.3177 106.059 51.127 107.962 50.7285 107.765C50.33 107.567 50.1599 107.203 50.3397 106.324C50.5195 105.446 52.2837 97.4168 50.0967 95.2224C47.9097 93.028 43.8565 98.28 43.142 98.8624C42.4276 99.4448 42.0923 98.618 42.1069 98.0512C42.1215 97.4844 42.3304 91.0676 42.5248 88.1712C42.7192 85.2748 42.0923 83.3092 40.4205 82.8828C38.7486 82.4564 37.6357 85.2436 36.7366 86.242C35.8375 87.2404 34.8995 85.8208 34.8995 85.8208C34.8995 85.8208 33.4755 81.8636 29.8645 75.0516C26.2536 68.2396 23.5465 70.3716 23.5465 70.3716" fill="#EBEBEB"/>
<path d="M52.1575 126.011C49.5233 120.999 44.9841 112.003 41.0524 104.301C37.1206 96.6002 33.5339 89.6322 30.9387 84.6038L27.8429 78.655C27.4832 77.953 27.1965 77.4122 27.0021 77.0326C26.9098 76.8558 26.8369 76.7154 26.7883 76.6114C26.763 76.5643 26.7403 76.5157 26.7202 76.4658L26.8028 76.6062L27.0313 77.017L27.8963 78.6238C28.6448 80.0174 29.7188 82.0402 31.031 84.5518C33.6652 89.5646 37.247 96.5118 41.1836 104.223C45.1202 111.935 49.6448 120.926 52.2498 125.954" fill="#E0E0E0"/>
<path d="M28.6157 92.9497C28.7322 92.9661 28.8465 92.9975 28.9559 93.0433C29.1746 93.1109 29.4857 93.2201 29.8696 93.3553C30.6326 93.6309 31.6824 94.0417 32.8293 94.5201L35.7453 95.7473L36.6347 96.1165C36.7478 96.1524 36.857 96.2012 36.9603 96.2621C36.8425 96.2469 36.7267 96.2173 36.6153 96.1737C36.4014 96.1061 36.0904 95.9969 35.7065 95.8565C34.9434 95.5705 33.8985 95.1441 32.7516 94.6709L29.8064 93.4645L28.9122 93.1005C28.8089 93.061 28.7096 93.0105 28.6157 92.9497Z" fill="#E0E0E0"/>
<path d="M37.3053 95.9242C37.2664 95.9242 37.9662 93.5582 38.8653 90.6722C39.7644 87.7862 40.5226 85.4722 40.5615 85.4722C40.6003 85.4722 39.9054 87.833 39.0063 90.719C38.1072 93.605 37.349 95.9346 37.3053 95.9242Z" fill="#E0E0E0"/>
<path d="M42.8506 108.04C42.8997 107.922 42.9635 107.812 43.0401 107.713L43.5942 106.855C44.0802 106.127 44.7071 105.123 45.3778 103.984C46.0485 102.845 46.6268 101.8 47.035 101.036L47.521 100.131C47.5721 100.015 47.6375 99.9063 47.7154 99.8086C47.6761 99.9306 47.6273 100.049 47.5696 100.162C47.4724 100.386 47.3169 100.682 47.1225 101.093C46.7386 101.873 46.1505 102.934 45.4993 104.073C44.848 105.211 44.1676 106.21 43.6768 106.922C43.4338 107.276 43.2297 107.557 43.0839 107.749C43.0155 107.854 42.9374 107.952 42.8506 108.04Z" fill="#E0E0E0"/>
<path d="M34.438 107.203C34.5478 107.191 34.6586 107.191 34.7685 107.203L35.6676 107.255C36.4306 107.307 37.4803 107.385 38.637 107.484C39.7937 107.583 40.8435 107.687 41.6016 107.765L42.5007 107.869C42.6109 107.875 42.7202 107.894 42.8263 107.926C42.7165 107.938 42.6057 107.938 42.4959 107.926L41.5968 107.874C40.8337 107.822 39.784 107.744 38.6273 107.64C37.4706 107.536 36.4209 107.442 35.6627 107.364L34.7636 107.26C34.6532 107.256 34.5438 107.237 34.438 107.203Z" fill="#E0E0E0"/>
<path d="M38.0586 118.56C38.2009 118.546 38.344 118.546 38.4863 118.56L39.6381 118.622C40.6101 118.679 41.9612 118.773 43.4483 118.882C44.9355 118.991 46.2769 119.106 47.2489 119.194L48.4007 119.309C48.543 119.317 48.6844 119.338 48.8235 119.371C48.6828 119.385 48.5413 119.385 48.4007 119.371L47.244 119.309C46.272 119.252 44.9209 119.158 43.4338 119.043C41.9466 118.929 40.6052 118.825 39.6332 118.737L38.4814 118.622C38.3391 118.614 38.1977 118.593 38.0586 118.56Z" fill="#E0E0E0"/>
<path d="M48.5708 119.278C48.635 119.13 48.7114 118.989 48.7992 118.856L49.4699 117.744C50.0337 116.802 50.8015 115.497 51.618 114.026C52.4345 112.554 53.1392 111.212 53.6446 110.235C53.8876 109.767 54.0918 109.377 54.2424 109.075C54.3115 108.93 54.3911 108.791 54.4806 108.659C54.43 108.813 54.3683 108.963 54.2959 109.106C54.1695 109.387 53.98 109.793 53.7418 110.292C53.2558 111.285 52.5657 112.642 51.7492 114.109C50.9328 115.575 50.1454 116.88 49.5574 117.806C49.2658 118.269 49.0228 118.643 48.8478 118.893C48.7666 119.03 48.6739 119.159 48.5708 119.278Z" fill="#E0E0E0"/>
<path d="M187.95 179.733L182.619 209.105L223.348 217.568L228.679 188.196L187.95 179.733Z" fill="#EBEBEB"/>
<path d="M228.75 188.583C228.608 188.701 228.457 188.805 228.299 188.895L226.962 189.722L222.044 192.702L205.709 202.431L205.573 202.509L205.476 202.384L205.233 202.082L192.995 186.607L189.321 181.886L188.349 180.591C188.227 180.444 188.118 180.286 188.024 180.118C188.162 180.247 188.291 180.387 188.408 180.539L189.443 181.782L193.214 186.42C196.388 190.388 200.733 195.822 205.534 201.817L205.777 202.124L205.544 202.077L221.932 192.457L226.909 189.587C227.472 189.27 227.924 189.015 228.269 188.828C228.423 188.732 228.584 188.65 228.75 188.583Z" fill="#E0E0E0"/>
<path d="M182.687 209.492C182.624 209.409 186.415 206.018 191.158 201.921C195.902 197.823 199.804 194.578 199.872 194.667C199.94 194.755 196.145 198.14 191.396 202.238C186.648 206.336 182.736 209.56 182.687 209.492Z" fill="#E0E0E0"/>
<path d="M213.476 197.111C213.568 197.059 215.872 201.687 218.613 207.444C221.354 213.2 223.511 217.906 223.419 217.958C223.327 218.01 221.023 213.382 218.277 207.626C215.531 201.869 213.383 197.163 213.476 197.111Z" fill="#E0E0E0"/>
<path d="M210.963 51.8128C210.733 51.8523 210.5 51.8697 210.268 51.8648L208.275 51.9064L200.937 51.9844L176.739 52.0572H174.795V51.8128C174.819 42.1408 174.843 33.4672 174.863 27.1492C174.892 24.0292 174.916 21.5384 174.936 19.7392C174.936 18.9072 174.965 18.2364 174.974 17.732C174.967 17.4985 174.983 17.2648 175.023 17.0352C175.056 17.2656 175.071 17.4988 175.067 17.732L175.106 19.7392C175.106 21.5384 175.149 24.0552 175.179 27.1492C175.179 33.4672 175.222 42.1408 175.247 51.8128L175.023 51.5684H176.748L200.946 51.6412L208.285 51.7192L210.278 51.766C210.507 51.7619 210.736 51.7776 210.963 51.8128Z" fill="#E0E0E0"/>
<path d="M206.968 25.48C206.639 25.8738 206.282 26.239 205.899 26.572L202.861 29.4268C200.286 31.8188 196.709 35.0948 192.738 38.688L192.135 39.208L191.98 39.3484L191.834 39.2028L187.329 34.7256H187.596L180.996 40.5912L179.076 42.2292C178.859 42.4417 178.619 42.6266 178.362 42.7804C178.552 42.5384 178.763 42.3172 178.994 42.12C179.473 41.6624 180.087 41.0817 180.836 40.378L187.343 34.4032L187.484 34.2732L187.62 34.4136L192.145 38.8648H191.844L192.446 38.3448C196.417 34.7464 200.028 31.512 202.652 29.1876L205.782 26.4524C206.152 26.094 206.548 25.7687 206.968 25.48Z" fill="#E0E0E0"/>
<path d="M206.968 33.5297C206.843 32.738 206.791 31.9351 206.812 31.1325C206.769 29.6453 206.744 27.5809 206.74 25.2825L206.968 25.5269H206.579C204.344 25.5269 202.322 25.5009 200.854 25.4541C200.06 25.4802 199.266 25.4227 198.482 25.2825C199.266 25.1455 200.06 25.088 200.854 25.1109C202.312 25.0693 204.344 25.0381 206.579 25.0381H207.196V25.2825C207.196 27.5809 207.167 29.6453 207.128 31.1325C207.15 31.9353 207.096 32.7384 206.968 33.5297Z" fill="#E0E0E0"/>
<path d="M22.1033 180.013C22.7886 179.563 23.5275 179.213 24.3 178.973L24.752 176.649L28.4213 176.576L28.9511 178.885C29.7284 179.09 30.4769 179.405 31.1769 179.821L33.0335 178.521L35.6724 181.251L34.506 183.3C34.9264 184.03 35.2533 184.817 35.478 185.64L37.6505 186.123L37.7136 190.049L35.5607 190.616C35.3695 191.448 35.0753 192.249 34.6859 192.998L35.9009 194.984L33.3494 197.813L31.454 196.581C30.7687 197.031 30.0298 197.381 29.2572 197.621L28.8053 199.945L25.136 200.018L24.6062 197.709C23.8286 197.504 23.08 197.19 22.3803 196.773L20.5238 198.073L17.88 195.343L19.0318 193.315C18.6106 192.582 18.2837 191.791 18.0598 190.965L15.8874 190.481L15.8193 186.555L17.982 185.978C18.174 185.146 18.4682 184.345 18.8568 183.596L17.6418 181.61L20.1933 178.781L22.0887 180.013H22.1033ZM24.0473 185.245C23.513 185.848 23.1574 186.606 23.0252 187.425C22.893 188.244 22.99 189.086 23.3042 189.846C23.6184 190.606 24.1356 191.25 24.7908 191.696C25.446 192.142 26.2099 192.371 26.9863 192.353C27.7627 192.336 28.5171 192.073 29.1543 191.598C29.7916 191.123 30.2833 190.458 30.5676 189.684C30.8519 188.911 30.9161 188.065 30.7522 187.253C30.5882 186.441 30.2033 185.698 29.646 185.12C29.2726 184.734 28.8314 184.431 28.3481 184.228C27.8647 184.026 27.3487 183.927 26.8297 183.939C26.3107 183.951 25.7989 184.072 25.3239 184.296C24.8489 184.52 24.42 184.842 24.0619 185.245H24.0473Z" fill="#E0E0E0"/>
<path d="M24.0619 185.245C24.2668 184.976 24.5114 184.744 24.786 184.559C25.5445 184.029 26.4521 183.799 27.3521 183.909C28.0225 183.986 28.6637 184.243 29.216 184.657C29.7684 185.07 30.2139 185.627 30.5111 186.275C30.8649 187.043 30.9985 187.906 30.895 188.755C30.7827 189.67 30.3986 190.523 29.7992 191.186C29.1998 191.85 28.4169 192.29 27.5659 192.442C27.1652 192.512 26.7565 192.512 26.3558 192.442C25.9692 192.388 25.5924 192.272 25.238 192.099C24.6224 191.805 24.0865 191.348 23.6803 190.773C23.274 190.197 23.0107 189.521 22.9149 188.807C22.7806 187.847 22.9645 186.866 23.4349 186.035C23.5965 185.73 23.8052 185.456 24.0521 185.224C24.0521 185.224 23.814 185.505 23.5078 186.082C23.0864 186.905 22.9341 187.855 23.0753 188.781C23.1678 189.414 23.3993 190.015 23.7508 190.533C24.1506 191.13 24.6928 191.6 25.3206 191.896C25.6586 192.058 26.0174 192.165 26.3849 192.213C26.7661 192.269 27.1533 192.26 27.5319 192.187C28.3341 192.04 29.0714 191.623 29.6363 190.997C30.2011 190.37 30.5638 189.566 30.6715 188.703C30.7347 188.297 30.7347 187.882 30.6715 187.476C30.616 187.085 30.5046 186.707 30.341 186.353C30.0421 185.69 29.5821 185.126 29.0093 184.72C28.5093 184.367 27.9378 184.148 27.3424 184.08C26.4733 183.959 25.5913 184.155 24.8395 184.637C24.3 184.985 24.0813 185.271 24.0619 185.245Z" fill="#E0E0E0"/>
<path d="M22.1032 180.013L21.9817 179.946L21.6172 179.722L20.1884 178.817H20.2321L17.6952 181.657V181.584L18.954 183.56V183.596V183.633C18.5716 184.379 18.2824 185.177 18.0937 186.004V186.051H18.05L15.897 186.623L15.9602 186.539C15.9845 187.772 16.0088 189.087 16.0331 190.465L15.9602 190.372L18.1375 190.85H18.1909V190.907C18.4094 191.724 18.7281 192.505 19.1386 193.232L19.1678 193.284L19.1386 193.336L17.982 195.39V195.255C18.813 196.113 19.7073 197.038 20.6258 197.979H20.4946L22.3462 196.674L22.4046 196.638L22.458 196.669C23.1405 197.081 23.871 197.394 24.6304 197.6H24.6936V197.667C24.8589 198.39 25.0387 199.175 25.2234 199.971L25.1116 199.883L28.7857 199.81L28.674 199.909C28.8198 199.17 28.9704 198.38 29.1259 197.584V197.511H29.194C29.954 197.281 30.6815 196.941 31.3567 196.503L31.415 196.466L31.4733 196.503L33.3687 197.735H33.2278L35.7793 194.906V195.057L34.5643 193.071L34.5254 193.008L34.5594 192.946C34.9639 192.212 35.2729 191.423 35.478 190.601V190.528H35.546L37.699 189.966L37.6164 190.081C37.5969 188.739 37.5775 187.429 37.558 186.149L37.6407 186.259L35.478 185.754H35.4196V185.692C35.2063 184.875 34.8908 184.093 34.4817 183.367L34.4476 183.31L34.4817 183.258L35.6335 181.23V181.355L32.9994 178.62H33.1063L31.2206 179.92L31.1817 179.951L31.138 179.925C30.4448 179.509 29.7028 179.194 28.9315 178.989H28.8878V178.942L28.3678 176.633L28.431 176.685L24.7617 176.737L24.8103 176.696C24.6256 177.621 24.4701 178.381 24.3243 179.015C23.7445 179.188 23.1815 179.42 22.6427 179.707L22.249 179.925L22.1178 179.998L22.2393 179.909C22.3219 179.852 22.4532 179.769 22.6281 179.67C23.1618 179.366 23.7238 179.122 24.3048 178.942L24.2757 178.968C24.3972 178.334 24.543 177.569 24.7179 176.644V176.602H24.7617L28.431 176.519H28.4844V176.571C28.6545 177.283 28.8295 178.037 29.0239 178.875L28.9656 178.817C29.7517 179.022 30.5085 179.338 31.2157 179.759H31.1331L32.9848 178.453L33.0431 178.412L33.0917 178.464L35.7404 181.189L35.7939 181.246L35.755 181.313L34.608 183.347V183.237C35.0278 183.979 35.3546 184.776 35.58 185.609L35.5023 185.536L37.6795 186.014H37.7573V186.16C37.7767 187.436 37.7994 188.744 37.8253 190.086V190.179H37.7427L35.5849 190.746L35.6675 190.658C35.473 191.5 35.1756 192.311 34.783 193.071V192.951C35.1815 193.606 35.5897 194.267 35.998 194.932L36.0466 195.015L35.9834 195.083L33.4368 197.912L33.3736 197.979L33.2958 197.927L31.4004 196.7H31.5122C30.8192 197.153 30.072 197.503 29.2912 197.74L29.3738 197.647C29.2183 198.442 29.0628 199.238 28.9218 199.971V200.065H28.8295L25.1602 200.132H25.0727V200.039L24.5478 197.73L24.6304 197.818C23.8426 197.61 23.0842 197.29 22.3754 196.867H22.4872L20.6307 198.167L20.5578 198.219L20.4994 198.156L17.8605 195.421L17.8021 195.364L17.8459 195.291C18.2444 194.584 18.6381 193.887 18.9977 193.263V193.367C18.5767 192.625 18.2498 191.825 18.0257 190.991L18.0986 191.063L15.9262 190.575H15.8581V190.497C15.8387 189.11 15.8209 187.801 15.8047 186.571V186.503H15.863L17.982 185.9L17.9285 185.957C18.1243 185.12 18.4216 184.314 18.813 183.56V183.633L17.6029 181.641V181.605L17.632 181.568L20.1981 178.755L21.5978 179.686L21.9574 179.93L22.1032 180.013Z" fill="#E0E0E0"/>
<path d="M48.5366 169C48.9464 168.735 49.3878 168.53 49.8488 168.392L50.1209 166.998L52.3177 166.957L52.6336 168.34C53.1008 168.461 53.5504 168.65 53.9701 168.901L55.0781 168.121L56.6576 169.754L55.9724 170.971C56.2202 171.409 56.4115 171.882 56.541 172.375L57.8338 172.64L57.8726 174.991L56.5799 175.329C56.4671 175.827 56.2905 176.307 56.055 176.753L56.784 177.944L55.258 179.634L54.1207 178.901C53.7099 179.164 53.2688 179.368 52.8085 179.509L52.5364 180.903L50.3396 180.945L50.0237 179.561C49.5578 179.441 49.1097 179.252 48.6921 179L47.5792 179.78L45.9997 178.147L46.6849 176.93C46.4391 176.491 46.2479 176.019 46.1163 175.526L44.8235 175.24L44.7847 172.89L46.0774 172.552C46.191 172.052 46.3676 171.571 46.6023 171.122L45.8733 169.936L47.3993 168.246L48.5366 169ZM49.7078 172.12C49.3842 172.479 49.1672 172.933 49.0844 173.423C49.0016 173.914 49.0566 174.42 49.2425 174.878C49.4285 175.335 49.737 175.723 50.1291 175.993C50.5211 176.262 50.9791 176.402 51.4452 176.393C51.9113 176.384 52.3644 176.228 52.7474 175.944C53.1304 175.659 53.4261 175.26 53.597 174.796C53.7678 174.332 53.8063 173.824 53.7075 173.337C53.6087 172.849 53.377 172.404 53.0418 172.058C52.8191 171.828 52.5562 171.647 52.2681 171.525C51.98 171.404 51.6724 171.344 51.3627 171.35C51.0531 171.356 50.7476 171.427 50.4637 171.559C50.1797 171.691 49.9229 171.882 49.7078 172.12Z" fill="#F5F5F5"/>
<path d="M49.7081 172.12C49.8312 171.956 49.979 171.815 50.1455 171.704C50.6025 171.39 51.1465 171.254 51.6861 171.319C52.059 171.36 52.4173 171.495 52.731 171.714C53.0945 171.974 53.3864 172.333 53.5767 172.754C53.6804 172.977 53.7525 173.216 53.7905 173.462C53.8294 173.718 53.8294 173.98 53.7905 174.236C53.7207 174.783 53.49 175.292 53.1317 175.69C52.7735 176.087 52.3063 176.352 51.7979 176.446C51.5581 176.488 51.3136 176.488 51.0738 176.446C50.8415 176.418 50.6151 176.349 50.4031 176.244C50.0131 176.051 49.6777 175.751 49.4311 175.375C49.2161 175.047 49.0762 174.669 49.0229 174.273C48.9441 173.698 49.0541 173.112 49.3339 172.614C49.4299 172.431 49.5549 172.267 49.7033 172.13C49.7033 172.13 49.5623 172.292 49.3776 172.65C49.1264 173.144 49.0358 173.713 49.1201 174.268C49.1794 174.674 49.334 175.058 49.5694 175.384C49.8048 175.709 50.1133 175.966 50.4663 176.129C50.6662 176.228 50.8794 176.293 51.0981 176.322C51.3267 176.36 51.5596 176.36 51.7882 176.322C52.2676 176.234 52.7083 175.985 53.0465 175.611C53.3846 175.237 53.6027 174.757 53.669 174.242C53.7056 173.999 53.7056 173.751 53.669 173.508C53.6337 173.274 53.5665 173.046 53.4698 172.832C53.2881 172.438 53.0134 172.101 52.6727 171.855C52.3046 171.594 51.8751 171.451 51.4339 171.441C50.9927 171.431 50.5578 171.554 50.1795 171.798C50.0162 171.894 49.8588 172.002 49.7081 172.12Z" fill="#F5F5F5"/>
<path d="M48.5368 169L48.4639 168.958L48.2452 168.823C48.0459 168.698 47.7592 168.521 47.3898 168.303L45.8735 170.003V169.957C46.0971 170.315 46.3595 170.716 46.6074 171.142C46.3785 171.589 46.2053 172.067 46.0922 172.562V172.588L44.8043 172.931L44.8383 172.879C44.8383 173.617 44.8675 174.403 44.8821 175.229L44.8432 175.172L46.1408 175.463H46.17V175.5C46.3015 175.987 46.4927 176.454 46.7386 176.888V176.919V176.951C46.5248 177.33 46.2915 177.746 46.0485 178.167V178.089C46.5345 178.609 47.0837 179.129 47.6328 179.722H47.5551L48.6632 178.942H48.6972H48.7312C49.1461 179.186 49.5888 179.371 50.0483 179.493H50.0871V179.535C50.1892 179.967 50.2961 180.44 50.403 180.913L50.3399 180.861L52.5366 180.819L52.4734 180.877C52.556 180.435 52.6484 179.961 52.7407 179.483V179.441H52.7796C53.2357 179.304 53.6722 179.101 54.0772 178.838H54.1161H54.1501L55.2825 179.571H55.1999L56.7259 177.876V177.965L55.9969 176.779V176.743V176.706C56.2299 176.264 56.4049 175.79 56.5169 175.297V175.255H56.5558L57.8486 174.917L57.8 174.985C57.8 174.184 57.8 173.399 57.7611 172.635L57.8097 172.697L56.5121 172.406H56.4732V172.364C56.3456 171.876 56.1559 171.409 55.9094 170.976V170.945V170.908L56.6044 169.697V169.769L55.0298 168.137H55.0929L53.98 168.911C53.5648 168.663 53.1201 168.476 52.6581 168.355V168.329C52.5463 167.809 52.4442 167.372 52.347 166.946L52.3859 166.977L50.1892 167.008L50.2184 166.982C50.1066 167.539 50.0142 168.022 49.9413 168.376C49.5956 168.479 49.2603 168.618 48.9402 168.792L48.702 168.922L48.6243 168.963L48.6972 168.911C48.7458 168.88 48.8235 168.828 48.9305 168.771C49.2493 168.588 49.5848 168.44 49.9316 168.329C50.0045 167.949 50.0871 167.492 50.1941 166.935V166.909L52.3908 166.857H52.4199V166.889C52.5171 167.315 52.6241 167.767 52.7407 168.267L52.7067 168.235C53.1767 168.358 53.6294 168.547 54.0529 168.797H53.946L55.0541 168.017H55.0881L55.1172 168.048C55.6032 168.568 56.1476 169.088 56.7016 169.681L56.7356 169.712V169.754C56.5121 170.149 56.2885 170.555 56.0504 170.971V170.903C56.3017 171.348 56.4962 171.827 56.6287 172.328L56.585 172.281L57.8874 172.567H57.936V172.619C57.936 173.389 57.936 174.179 57.9749 174.975V175.027H57.9263L56.6384 175.365L56.6822 175.313C56.5678 175.818 56.3896 176.304 56.1524 176.758V176.685L56.8814 177.871L56.9106 177.918L56.8717 177.959L55.3457 179.655L55.3068 179.696L55.263 179.665L54.1258 178.927H54.1938C53.78 179.195 53.3335 179.402 52.8671 179.54L52.9157 179.488C52.8185 179.967 52.7261 180.44 52.6435 180.877V180.934H52.59L50.3885 180.975H50.335V180.923C50.2281 180.445 50.1163 179.972 50.0191 179.54L50.0677 179.592C49.5965 179.466 49.1424 179.275 48.7166 179.025H48.7847L47.628 179.857L47.5891 179.883L47.5502 179.847L45.9707 178.214L45.9367 178.178V178.131C46.1797 177.71 46.4227 177.294 46.6268 176.919V176.982C46.3771 176.538 46.1842 176.061 46.0533 175.562L46.0971 175.604L44.7946 175.313H44.7557V175.24C44.7557 174.418 44.7557 173.628 44.7266 172.889V172.848H44.7654L46.0582 172.515L46.0242 172.551C46.142 172.05 46.3218 171.567 46.5588 171.116V171.158L45.8346 169.967V169.941L47.3704 168.261L48.2112 168.818L48.425 168.963L48.5368 169Z" fill="#F5F5F5"/>
<path d="M55.5984 230.573L54.5972 226.205C53.1242 225.821 51.7067 225.224 50.3836 224.432L46.8601 226.902L41.8397 221.702L44.017 217.859C43.2332 216.472 42.6267 214.978 42.2139 213.418L38.0878 212.498L37.9663 205.036L42.0487 203.965C42.42 202.381 42.9889 200.857 43.74 199.435L41.4315 195.665L46.2915 190.294L49.883 192.629C51.1822 191.79 52.5795 191.14 54.0383 190.694L54.8937 186.285L61.8678 186.149L62.8641 190.517C64.3373 190.906 65.7558 191.503 67.0826 192.291L70.6012 189.821L75.6167 195.021L73.4395 198.863C74.2233 200.253 74.8298 201.748 75.2425 203.309L79.3687 204.23L79.4902 211.687L75.4078 212.758C75.0433 214.332 74.4861 215.848 73.7505 217.266L76.059 221.031L71.199 226.397L67.5929 224.12C66.2945 224.959 64.897 225.607 63.4376 226.049L62.5822 230.464L55.5984 230.573ZM50.3788 224.39C51.7044 225.182 53.1232 225.78 54.5972 226.169L55.5984 230.531L62.5433 230.401L63.3987 225.997C64.8599 225.554 66.2591 224.903 67.5588 224.063L71.1504 226.392L75.9715 221.047L73.6679 217.282C74.4071 215.861 74.9661 214.342 75.33 212.763L79.4124 211.723L79.2909 204.292L75.2182 203.32C74.8036 201.757 74.1955 200.26 73.4103 198.869L75.5876 195.026L70.5866 189.867L67.068 192.332C65.7413 191.544 64.3227 190.948 62.8495 190.559L61.8338 186.16L54.8888 186.29L54.0335 190.694C52.5697 191.134 51.1686 191.785 49.8684 192.629L46.2623 190.32L41.4412 195.665L43.74 199.435C43.0007 200.856 42.4418 202.376 42.0779 203.954L37.9955 205.025L38.117 212.456L42.2382 213.371C42.6547 214.934 43.2627 216.431 44.0462 217.823L41.8737 221.66L46.8698 226.824L50.3788 224.39ZM58.9421 216.127C57.473 216.127 56.0366 215.664 54.8119 214.796C53.5871 213.928 52.6282 212.693 52.0546 211.246C51.4809 209.799 51.318 208.204 51.5861 206.658C51.8541 205.113 52.5413 203.686 53.562 202.555C54.2445 201.798 55.0599 201.193 55.9614 200.774C56.8629 200.354 57.8328 200.129 58.8157 200.111H58.9518C60.9054 200.144 62.7696 200.993 64.1462 202.476C65.5228 203.96 66.3027 205.96 66.3192 208.051C66.3357 210.141 65.5875 212.156 64.2345 213.664C62.8815 215.172 61.0309 216.054 59.0781 216.122L58.9421 216.127ZM53.5961 202.566C52.5821 203.692 51.8996 205.112 51.6333 206.649C51.367 208.187 51.5285 209.774 52.098 211.214C52.6674 212.654 53.6196 213.883 54.8363 214.75C56.053 215.616 57.4807 216.08 58.9421 216.086H59.0781C61.0246 216.018 62.869 215.139 64.2175 213.635C65.5661 212.132 66.3117 210.124 66.2952 208.04C66.2787 205.957 65.5014 203.963 64.1292 202.484C62.7571 201.005 60.899 200.16 58.9518 200.127H58.806C57.8263 200.141 56.8591 200.364 55.9605 200.782C55.062 201.199 54.25 201.804 53.5718 202.561L53.5961 202.566Z" fill="#E0E0E0"/>
<path d="M53.5719 202.566C53.9648 202.052 54.4345 201.611 54.9619 201.261C56.4005 200.262 58.1175 199.827 59.8219 200.029C61.0937 200.174 62.3103 200.662 63.3581 201.447C64.406 202.232 65.251 203.288 65.8143 204.516C66.1449 205.224 66.3743 205.982 66.4947 206.763C66.6292 207.575 66.6423 208.405 66.5336 209.222C66.3222 210.959 65.5936 212.577 64.4556 213.835C63.3176 215.094 61.8308 215.927 60.2156 216.211C58.7176 216.483 57.1778 216.271 55.793 215.603C54.6271 215.044 53.6122 214.179 52.8424 213.088C52.0726 211.997 51.5729 210.715 51.3898 209.363C51.1375 207.543 51.4809 205.685 52.3618 204.105C52.6708 203.529 53.0665 203.01 53.5331 202.571C53.1656 203.093 52.8234 203.635 52.5076 204.194C51.704 205.752 51.4131 207.554 51.6814 209.311C51.8731 210.599 52.3637 211.815 53.1083 212.848C53.8529 213.881 54.8278 214.697 55.9436 215.223C57.258 215.847 58.7163 216.039 60.1329 215.774C61.6558 215.497 63.0559 214.706 64.1288 213.517C65.2016 212.328 65.891 210.803 66.0962 209.165C66.291 207.642 66.061 206.092 65.4352 204.709C64.9055 203.533 64.1087 202.519 63.1178 201.759C62.127 200.999 60.9737 200.516 59.7636 200.356C58.1151 200.125 56.4416 200.491 55.0105 201.396C54.5132 201.76 54.033 202.151 53.5719 202.566Z" fill="#E0E0E0"/>
<path d="M49.8586 192.644L49.6253 192.509L48.9352 192.083L46.2233 190.372H46.3108L41.4994 195.764V195.619L43.8225 199.378L43.8613 199.446L43.8273 199.514C43.0981 200.927 42.5474 202.438 42.1895 204.006V204.095H42.1069L38.0196 205.182L38.1363 205.02C38.18 207.366 38.2286 209.856 38.2772 212.467L38.1411 212.295L42.2818 213.2H42.3888L42.4179 213.314C42.8338 214.861 43.4384 216.342 44.2161 217.719L44.2744 217.818L44.2161 217.922L42.0388 221.775L42.0097 221.52L47.0009 226.72H46.753L50.2668 224.245L50.3737 224.172L50.4807 224.24C51.7935 225.019 53.1974 225.608 54.6554 225.992L54.7769 226.023L54.8061 226.153C55.122 227.526 55.467 229.018 55.8121 230.526L55.6031 230.355L62.5675 230.225L62.3634 230.407C62.6355 229.013 62.9271 227.51 63.2187 225.997L63.2479 225.857L63.3694 225.82C64.8126 225.381 66.1951 224.739 67.4809 223.912L67.5927 223.844L67.7045 223.917L71.3009 226.247L71.0385 226.283L75.8985 220.927L75.8742 221.208C75.1014 219.939 74.3287 218.686 73.5705 217.443L73.5025 217.329L73.5608 217.209C74.2927 215.805 74.8468 214.303 75.2083 212.742L75.2375 212.612L75.359 212.581L79.4463 211.515L79.2907 211.728C79.2519 209.187 79.2146 206.703 79.179 204.277L79.3345 204.48L75.2132 203.559L75.1014 203.533L75.0674 203.414C74.6586 201.865 74.0588 200.382 73.2838 199.004L73.2255 198.9L73.2838 198.796C74.0371 197.48 74.7418 196.196 75.4708 194.953L75.4999 195.187L70.499 189.987H70.7031L67.1796 192.447L67.1019 192.499L67.0192 192.452C65.705 191.662 64.2976 191.064 62.8348 190.674H62.7522V190.585L61.7802 186.207L61.9065 186.311L54.9421 186.41L55.0345 186.326C54.6797 188.084 54.3881 189.53 54.15 190.731V190.778H54.1111C53.0116 191.099 51.9452 191.538 50.9278 192.088L50.1745 192.504C50.0962 192.559 50.0132 192.606 49.9266 192.644C49.9983 192.578 50.0765 192.521 50.1599 192.473C50.3203 192.369 50.5584 192.213 50.8938 192.02C51.9049 191.441 52.9703 190.978 54.0722 190.637L54.0236 190.689C54.252 189.488 54.5096 188.037 54.8547 186.274V186.196H54.9324L61.8968 186.035H61.994V186.139C62.3099 187.491 62.6404 188.921 63.0097 190.507L62.9077 190.398C64.3981 190.786 65.8332 191.386 67.1748 192.182H67.0144L70.5282 189.701L70.6399 189.628L70.7323 189.722L75.7527 194.891L75.8547 194.995L75.7818 195.125C75.0771 196.378 74.353 197.657 73.6045 198.978V198.775C74.4005 200.18 75.0167 201.693 75.4368 203.273L75.291 203.128L79.4122 204.043L79.5678 204.074V204.246C79.6066 206.672 79.6488 209.156 79.6941 211.697V211.869L79.5337 211.91L75.4465 212.987L75.5971 212.826C75.2325 214.424 74.6685 215.964 73.9204 217.402V217.168L76.2289 220.932L76.3213 221.083L76.2046 221.213L71.3689 226.58L71.2523 226.71L71.1065 226.616L67.5052 224.281H67.7239C66.4073 225.132 64.9902 225.792 63.5103 226.242L63.661 226.065C63.3694 227.583 63.0729 229.086 62.8056 230.474L62.7667 230.656H62.5966L55.6371 230.786H55.467L55.4281 230.615C55.0831 229.107 54.7429 227.609 54.427 226.242L54.5825 226.403C53.0887 226.006 51.6507 225.399 50.3057 224.598H50.5147L46.996 227.063L46.86 227.157L46.7482 227.042L41.7424 221.842L41.6306 221.728L41.7132 221.588L43.9002 217.745V217.948C43.107 216.539 42.494 215.022 42.0777 213.439L42.2089 213.574L38.0682 212.68L37.937 212.649V212.508C37.8981 209.908 37.8641 207.402 37.8301 205.057V204.88L37.9467 204.849L42.0388 203.809L41.9368 203.918C42.3099 202.329 42.8769 200.799 43.6232 199.368V199.508L41.3341 195.733L41.2855 195.655L41.3439 195.588L46.2039 190.258L46.2379 190.216L46.2865 190.247L48.9352 192.01L49.6204 192.473C49.7053 192.521 49.7851 192.578 49.8586 192.644Z" fill="#E0E0E0"/>
<path d="M189.011 29.7722L43.293 41.3037L57.0491 240.305L202.767 228.773L189.011 29.7722Z" fill="white"/>
<path d="M56.8619 240.578V240.318L43.0352 41.0802H43.2782L189.239 29.479V29.739L203.026 228.998H202.783L56.8619 240.578ZM43.5552 41.5378L57.2895 240.022L202.521 228.519L188.787 30.0354L43.5552 41.5378Z" fill="#263238"/>
<path d="M176.153 38.4557L136.894 41.5625L137.08 44.2591L176.339 41.1523L176.153 38.4557Z" fill="#006AFF"/>
<path d="M175.684 59.1557L175.446 59.2025L174.751 59.2805L172.204 59.5301L163.782 60.2789C160.492 60.5649 157.517 60.7989 155.36 60.9445L152.803 61.1057L152.108 61.1369C152.027 61.146 151.946 61.146 151.865 61.1369C151.942 61.1087 152.022 61.093 152.103 61.0901L152.798 61.0069L155.345 60.7625L163.782 60.0085C167.067 59.7173 170.042 59.4885 172.199 59.3377L174.756 59.1765L175.451 59.1453C175.529 59.1352 175.607 59.1387 175.684 59.1557Z" fill="#006AFF"/>
<path d="M178.036 69.3212C178.036 69.3992 169.483 70.1377 158.922 70.9749C148.361 71.8121 139.788 72.4257 139.783 72.3529C139.778 72.2801 148.337 71.5417 158.902 70.7045C169.468 69.8673 178.031 69.2484 178.036 69.3212Z" fill="#263238"/>
<path d="M178.683 82.2851C178.683 82.3631 170.129 83.1015 159.568 83.9387C149.007 84.7759 140.454 85.3947 140.454 85.3167C140.454 85.2387 149.007 84.5055 159.573 83.6683C170.139 82.8311 178.678 82.2123 178.683 82.2851Z" fill="#263238"/>
<path d="M178.683 75.8057C178.683 75.8785 170.129 76.6169 159.568 77.4541C149.007 78.2913 140.454 78.9101 140.454 78.8373C140.454 78.7645 149.007 78.0209 159.573 77.1837C170.139 76.3465 178.678 75.7329 178.683 75.8057Z" fill="#263238"/>
<path d="M98.3903 166.577C98.3903 166.65 93.958 167.066 88.4807 167.497C83.0035 167.929 78.5566 168.225 78.5518 168.147C78.5469 168.069 82.9841 167.664 88.4613 167.227C93.9385 166.79 98.3854 166.504 98.3903 166.577Z" fill="#006AFF"/>
<path d="M90.0994 179.036C90.0994 179.114 84.1605 179.645 76.8219 180.227C69.4833 180.809 63.5346 181.215 63.5298 181.142C63.5249 181.069 69.4638 180.539 76.8073 179.957C84.1508 179.374 90.0945 178.963 90.0994 179.036Z" fill="#006AFF"/>
<path d="M138.51 180.092C138.51 180.165 121.811 181.548 101.205 183.181C80.5983 184.813 63.8799 186.077 63.875 186.004C63.8701 185.931 80.5691 184.543 101.185 182.91C121.801 181.277 138.51 180.019 138.51 180.092Z" fill="#263238"/>
<path d="M90.9353 191.126C90.9353 191.199 84.9964 191.729 77.6627 192.312C70.3289 192.894 64.3706 193.305 64.3657 193.227C64.3609 193.149 70.3046 192.624 77.6432 192.041C84.9818 191.459 90.9305 191.048 90.9353 191.126Z" fill="#006AFF"/>
<path d="M139.336 192.177C139.336 192.255 122.637 193.638 102.031 195.271C81.4244 196.904 64.706 198.162 64.7012 198.089C64.6963 198.016 81.3953 196.633 102.011 195C122.627 193.368 139.331 192.104 139.336 192.177Z" fill="#263238"/>
<path d="M91.7713 203.211C91.7713 203.284 85.8324 203.814 78.4986 204.397C71.1649 204.979 65.2065 205.39 65.2017 205.317C65.1968 205.244 71.1406 204.709 78.4792 204.126C85.8178 203.544 91.7664 203.133 91.7713 203.211Z" fill="#006AFF"/>
<path d="M140.172 204.261C140.172 204.339 123.473 205.722 102.867 207.355C82.2604 208.988 65.542 210.252 65.5371 210.174C65.5323 210.096 82.2312 208.718 102.847 207.085C123.463 205.452 140.167 204.188 140.172 204.261Z" fill="#263238"/>
<path d="M93.618 215.447C93.618 215.519 87.6743 216.05 80.3405 216.632C73.0068 217.215 67.0679 217.625 67.0679 217.547C67.0679 217.469 73.0068 216.944 80.3454 216.362C87.684 215.779 93.6083 215.369 93.618 215.447Z" fill="#006AFF"/>
<path d="M142.019 216.497C142.019 216.575 125.315 217.958 104.709 219.617C84.1022 221.276 67.3838 222.513 67.3789 222.435C67.374 222.357 84.0779 220.979 104.689 219.347C125.3 217.714 142.009 216.424 142.019 216.497Z" fill="#263238"/>
<path d="M73.567 164.173L64.4551 164.894L64.8831 171.086L73.995 170.365L73.567 164.173Z" fill="#006AFF"/>
<path d="M71.2653 170.584L67.606 170.874L67.74 172.814L71.3993 172.524L71.2653 170.584Z" fill="#006AFF"/>
<path d="M72.8077 172.338C71.8031 172.572 70.7823 172.716 69.7556 172.77C68.736 172.914 67.7069 172.967 66.6792 172.926C67.6842 172.696 68.7048 172.554 69.7313 172.5C70.7511 172.358 71.7798 172.305 72.8077 172.338Z" fill="#006AFF"/>
<path d="M147.195 157.134L152.89 153.79L158.499 156.068L153.245 159.604L147.195 157.134Z" fill="#006AFF"/>
<path d="M148.56 158.532L148.789 162.328L157.566 161.502L157.265 157.841L153.211 160.462L148.56 158.532Z" fill="#006AFF"/>
<path d="M183.222 157.872C183.222 157.95 178.79 158.361 173.312 158.793C167.835 159.224 163.388 159.521 163.383 159.448C163.378 159.375 167.816 158.959 173.293 158.522C178.77 158.085 183.222 157.799 183.222 157.872Z" fill="#006AFF"/>
<path d="M162.873 170.924C162.873 170.997 159.826 171.299 156.069 171.595C152.312 171.891 149.241 172.079 149.236 172.001C149.231 171.923 152.283 171.626 156.04 171.325C159.797 171.023 162.868 170.846 162.873 170.924Z" fill="#263238"/>
<path d="M187.907 174.2C187.907 174.278 179.339 175.017 168.763 175.854C158.188 176.691 149.6 177.31 149.595 177.237C149.591 177.164 158.164 176.421 168.744 175.584C179.324 174.746 187.902 174.148 187.907 174.2Z" fill="#263238"/>
<path d="M163.894 184.424C163.894 184.502 160.851 184.803 157.09 185.1C153.328 185.396 150.286 185.583 150.261 185.505C150.237 185.427 153.304 185.131 157.065 184.829C160.827 184.528 163.889 184.351 163.894 184.424Z" fill="#263238"/>
<path d="M188.928 187.72C188.928 187.798 180.359 188.536 169.784 189.374C159.209 190.211 150.626 190.83 150.616 190.757C150.606 190.684 159.184 189.94 169.765 189.103C180.345 188.266 188.923 187.652 188.928 187.72Z" fill="#263238"/>
<path d="M164.671 197.767C164.671 197.845 161.624 198.146 157.867 198.443C154.111 198.739 151.063 198.921 151.034 198.848C151.005 198.776 154.081 198.474 157.838 198.172C161.595 197.871 164.666 197.694 164.671 197.767Z" fill="#263238"/>
<path d="M189.705 201.069C189.705 201.147 181.137 201.885 170.562 202.722C159.986 203.56 151.399 204.178 151.394 204.106C151.389 204.033 159.962 203.289 170.542 202.452C181.122 201.615 189.7 200.996 189.705 201.069Z" fill="#263238"/>
<path d="M166.061 211.879C166.061 211.952 163.019 212.254 159.257 212.555C155.496 212.857 152.453 213.034 152.429 212.961C152.405 212.888 155.471 212.581 159.233 212.285C162.994 211.989 166.056 211.807 166.061 211.879Z" fill="#263238"/>
<path d="M191.095 215.181C191.095 215.254 182.527 215.993 171.952 216.835C161.376 217.677 152.793 218.291 152.789 218.213C152.784 218.135 161.352 217.402 171.932 216.565C182.512 215.727 191.09 215.103 191.095 215.181Z" fill="#263238"/>
<path d="M144.065 58.7604C144.447 58.5417 144.761 58.208 144.969 57.8005C145.176 57.393 145.267 56.9295 145.231 56.4672C145.231 56.1615 145.172 55.8592 145.058 55.579C144.944 55.2988 144.777 55.0466 144.568 54.8382C144.359 54.6298 144.112 54.4696 143.843 54.3674C143.574 54.2653 143.288 54.2235 143.003 54.2446C142.718 54.2656 142.44 54.3491 142.186 54.4899C141.932 54.6307 141.709 54.8257 141.528 55.0629C141.348 55.3001 141.216 55.5743 141.138 55.8687C141.061 56.163 141.042 56.4712 141.081 56.774C141.108 57.2349 141.261 57.6773 141.52 58.0468C141.779 58.4164 142.133 58.6969 142.539 58.854C139.385 59.6184 139.788 63.3208 139.788 63.3208L147.336 62.7592C147.336 62.7592 147.258 59.0256 144.065 58.7604Z" fill="#006AFF"/>
<path d="M156.361 111.186C156.361 111.264 153.294 111.566 149.498 111.868C145.703 112.169 142.621 112.351 142.616 112.278C142.612 112.206 145.683 111.899 149.479 111.597C153.274 111.296 156.356 111.114 156.361 111.186Z" fill="#263238"/>
<path d="M156.881 117.681C156.881 117.754 153.814 118.061 150.018 118.362C146.223 118.664 143.141 118.846 143.136 118.768C143.132 118.69 146.203 118.388 149.999 118.092C153.794 117.796 156.876 117.608 156.881 117.681Z" fill="#263238"/>
<path d="M183.543 109.798L161.187 111.571C160.986 111.587 160.788 111.517 160.636 111.377C160.484 111.236 160.39 111.037 160.375 110.822C160.36 110.608 160.426 110.396 160.557 110.233C160.688 110.07 160.875 109.97 161.075 109.954L183.431 108.181C183.53 108.172 183.63 108.185 183.725 108.218C183.82 108.251 183.907 108.304 183.983 108.374C184.058 108.443 184.12 108.528 184.165 108.624C184.209 108.719 184.236 108.823 184.243 108.93C184.25 109.036 184.239 109.143 184.208 109.244C184.177 109.346 184.127 109.439 184.062 109.52C183.997 109.601 183.918 109.667 183.828 109.715C183.739 109.762 183.642 109.791 183.543 109.798Z" fill="#E0E0E0"/>
<path d="M180.277 110.058L161.172 111.572C160.972 111.587 160.774 111.517 160.621 111.377C160.469 111.236 160.375 111.037 160.36 110.823C160.346 110.608 160.411 110.396 160.542 110.234C160.674 110.071 160.86 109.97 161.06 109.954L180.165 108.441C180.365 108.425 180.563 108.495 180.716 108.636C180.868 108.776 180.962 108.976 180.977 109.19C180.99 109.404 180.924 109.615 180.793 109.778C180.662 109.94 180.477 110.041 180.277 110.058Z" fill="#006AFF"/>
<path d="M183.965 115.908L161.609 117.676C161.409 117.692 161.211 117.622 161.059 117.482C160.907 117.341 160.813 117.142 160.798 116.928C160.784 116.713 160.85 116.502 160.981 116.34C161.112 116.177 161.298 116.076 161.498 116.059L183.854 114.291C183.953 114.283 184.053 114.295 184.148 114.328C184.243 114.362 184.33 114.415 184.406 114.484C184.481 114.554 184.543 114.639 184.588 114.734C184.632 114.83 184.659 114.934 184.665 115.04C184.68 115.254 184.615 115.466 184.483 115.629C184.352 115.792 184.166 115.892 183.965 115.908Z" fill="#E0E0E0"/>
<path d="M177.293 116.433L161.595 117.676C161.394 117.692 161.196 117.622 161.044 117.481C160.892 117.341 160.798 117.142 160.783 116.927C160.77 116.713 160.836 116.502 160.967 116.34C161.098 116.177 161.283 116.076 161.483 116.059L177.181 114.816C177.381 114.8 177.579 114.87 177.732 115.011C177.884 115.151 177.978 115.351 177.992 115.565C178.007 115.779 177.942 115.991 177.811 116.154C177.679 116.317 177.493 116.417 177.293 116.433Z" fill="#006AFF"/>
<path d="M157.542 124.312C157.542 124.384 154.475 124.691 150.679 124.988C146.884 125.284 143.802 125.471 143.798 125.398C143.793 125.326 146.864 125.019 150.66 124.717C154.456 124.416 157.537 124.234 157.542 124.312Z" fill="#263238"/>
<path d="M158.062 130.801C158.062 130.879 154.995 131.181 151.199 131.482C147.404 131.784 144.322 131.966 144.318 131.893C144.313 131.82 147.384 131.514 151.18 131.212C154.976 130.91 158.057 130.728 158.062 130.801Z" fill="#263238"/>
<path d="M184.724 122.918L162.368 124.691C162.167 124.707 161.969 124.637 161.817 124.496C161.665 124.356 161.571 124.157 161.556 123.942C161.541 123.728 161.607 123.516 161.738 123.353C161.869 123.19 162.055 123.09 162.256 123.074L184.612 121.301C184.812 121.285 185.01 121.355 185.162 121.495C185.315 121.636 185.409 121.835 185.423 122.049C185.431 122.156 185.42 122.263 185.389 122.364C185.358 122.465 185.308 122.559 185.243 122.64C185.178 122.721 185.099 122.787 185.009 122.835C184.92 122.882 184.823 122.91 184.724 122.918Z" fill="#E0E0E0"/>
<path d="M181.453 123.178L162.353 124.691C162.153 124.707 161.954 124.637 161.802 124.496C161.65 124.356 161.556 124.157 161.541 123.942C161.527 123.728 161.592 123.516 161.723 123.353C161.855 123.19 162.041 123.09 162.241 123.074L181.341 121.561C181.541 121.545 181.739 121.615 181.892 121.755C182.044 121.896 182.138 122.095 182.153 122.31C182.161 122.416 182.149 122.523 182.118 122.624C182.087 122.726 182.037 122.819 181.972 122.9C181.907 122.981 181.828 123.047 181.738 123.095C181.649 123.142 181.552 123.171 181.453 123.178Z" fill="#006AFF"/>
<path d="M185.166 129.028L162.81 130.801C162.609 130.817 162.411 130.747 162.259 130.607C162.107 130.466 162.013 130.267 161.998 130.052C161.983 129.838 162.049 129.626 162.18 129.463C162.311 129.3 162.498 129.2 162.698 129.184L185.054 127.411C185.254 127.395 185.452 127.465 185.605 127.606C185.757 127.746 185.851 127.945 185.866 128.16C185.88 128.374 185.815 128.586 185.684 128.749C185.552 128.912 185.366 129.012 185.166 129.028Z" fill="#E0E0E0"/>
<path d="M178.474 129.558L162.776 130.801C162.575 130.817 162.377 130.747 162.225 130.606C162.073 130.466 161.979 130.267 161.964 130.052C161.949 129.838 162.015 129.626 162.146 129.463C162.277 129.3 162.464 129.2 162.664 129.184L178.362 127.92C178.562 127.904 178.76 127.974 178.912 128.115C179.065 128.255 179.159 128.455 179.173 128.669C179.183 128.777 179.173 128.886 179.143 128.989C179.113 129.093 179.064 129.189 178.999 129.272C178.934 129.354 178.854 129.423 178.763 129.472C178.673 129.521 178.575 129.55 178.474 129.558Z" fill="#006AFF"/>
<path d="M158.844 137.722C158.844 137.8 155.773 138.102 151.977 138.403C148.181 138.705 145.1 138.887 145.095 138.814C145.09 138.741 148.162 138.434 151.958 138.133C155.753 137.831 158.839 137.649 158.844 137.722Z" fill="#263238"/>
<path d="M186.026 136.334L163.67 138.102C163.47 138.117 163.271 138.047 163.119 137.907C162.967 137.767 162.873 137.567 162.858 137.353C162.846 137.139 162.913 136.929 163.043 136.767C163.174 136.604 163.359 136.503 163.558 136.485L185.914 134.717C186.115 134.701 186.314 134.771 186.467 134.911C186.62 135.051 186.715 135.25 186.731 135.465C186.744 135.68 186.677 135.892 186.545 136.055C186.413 136.218 186.227 136.318 186.026 136.334Z" fill="#E0E0E0"/>
<path d="M176.063 137.119L163.651 138.102C163.45 138.118 163.252 138.048 163.1 137.907C162.948 137.767 162.854 137.567 162.839 137.353C162.827 137.139 162.893 136.929 163.024 136.767C163.155 136.604 163.339 136.503 163.539 136.485L175.932 135.502C176.132 135.487 176.329 135.558 176.481 135.698C176.633 135.838 176.727 136.037 176.744 136.251C176.758 136.462 176.696 136.671 176.569 136.833C176.441 136.995 176.26 137.098 176.063 137.119Z" fill="#006AFF"/>
<path d="M148.92 104.572L148.133 103.09C148.63 102.248 148.815 101.236 148.65 100.255C148.486 99.2746 147.984 98.3952 147.244 97.7903C146.503 97.1855 145.578 96.899 144.651 96.9874C143.723 97.0757 142.86 97.5325 142.231 98.2677C141.602 99.0029 141.253 99.9633 141.253 100.96C141.253 101.956 141.602 102.917 142.231 103.652C142.859 104.387 143.722 104.844 144.65 104.933C145.578 105.021 146.503 104.735 147.243 104.13L148.92 104.572Z" fill="#006AFF"/>
<path d="M177.647 98.9302C177.647 99.0082 172.471 99.4814 166.071 99.9702C159.67 100.459 154.48 100.828 154.475 100.755C154.47 100.683 159.651 100.209 166.051 99.7154C172.452 99.2214 177.642 98.8574 177.647 98.9302Z" fill="#006AFF"/>
<path d="M46.2139 41.2776L55.4965 158.772L137.402 152.251L128.557 34.5488L46.2139 41.2776Z" fill="#EBEBEB"/>
<path d="M130.654 31.1398L49.4775 37.2197L57.1974 155.218L138.374 149.138L130.654 31.1398Z" fill="#FAFAFA"/>
<path d="M57.348 154.861V154.601L49.1929 36.6651H49.431L130.627 30.2119V30.4719L138.787 148.408H138.544L57.348 154.861ZM49.7129 37.1435L57.834 154.305L138.301 147.929L130.18 30.7735L49.7129 37.1435Z" fill="#263238"/>
<path d="M114.118 48.3078C114.102 48.243 114.09 48.1769 114.084 48.1102C114.084 47.9646 114.04 47.7722 114.006 47.5278C113.943 47.0078 113.851 46.2434 113.739 45.2814C113.627 44.3194 113.486 43.1026 113.326 41.7194C113.261 40.9819 113.156 40.2491 113.01 39.525C112.926 39.1369 112.776 38.7685 112.568 38.4382C112.353 38.0952 112.039 37.8376 111.673 37.705C111.273 37.5865 110.851 37.5818 110.449 37.6912C110.047 37.8007 109.678 38.0205 109.379 38.329C108.739 39.0396 108.327 39.9505 108.203 40.929C107.902 43.0914 107.961 45.2938 108.378 47.4342C108.568 48.573 108.772 49.7482 109.015 50.9338C109.234 52.1412 109.637 53.3022 110.206 54.371C110.803 55.4646 111.74 56.2985 112.854 56.7266C113.417 56.9396 114.023 56.9863 114.609 56.8618C115.201 56.7304 115.746 56.4242 116.183 55.9778C117.056 55.0638 117.601 53.851 117.724 52.551C117.835 51.2793 117.804 49.998 117.632 48.7342C117.369 46.2174 117.116 43.7942 116.873 41.4542C116.752 40.2998 116.635 39.1714 116.524 38.0794C116.412 36.9874 116.31 35.9214 116.125 34.9126C115.97 33.9367 115.691 32.9883 115.294 32.0942C114.928 31.2747 114.395 30.5533 113.734 29.983C112.56 29.0285 111.104 28.5579 109.632 28.657C108.519 28.695 107.449 29.1224 106.585 29.8738C106.055 30.3656 105.653 30.9963 105.418 31.7042C105.263 32.193 105.229 32.4634 105.209 32.4634C105.236 32.1996 105.29 31.9397 105.37 31.6886C105.588 30.9596 105.984 30.3061 106.517 29.7958C107.391 29.0112 108.483 28.5577 109.622 28.5062C111.132 28.3879 112.631 28.859 113.841 29.8322C114.53 30.4138 115.087 31.1552 115.469 32.0006C115.879 32.9106 116.17 33.8764 116.334 34.871C116.519 35.911 116.626 36.951 116.747 38.0534C116.869 39.1558 116.98 40.2738 117.107 41.4282C117.35 43.737 117.593 46.1654 117.875 48.677C118.053 49.9628 118.086 51.2671 117.972 52.5614C117.843 53.9251 117.27 55.1969 116.353 56.1546C115.881 56.632 115.294 56.9597 114.657 57.101C114.03 57.2322 113.381 57.1838 112.776 56.9606C111.607 56.5072 110.623 55.6319 109.992 54.4854C109.414 53.389 109.006 52.2003 108.782 50.965C108.539 49.769 108.339 48.599 108.15 47.4498C107.727 45.275 107.669 43.037 107.98 40.8406C108.122 39.824 108.561 38.8814 109.234 38.147C109.558 37.8154 109.958 37.5808 110.394 37.4667C110.83 37.3526 111.286 37.3631 111.717 37.497C112.115 37.6474 112.456 37.9321 112.689 38.3082C112.905 38.6567 113.06 39.0444 113.146 39.4522C113.288 40.187 113.388 40.9302 113.447 41.6778C113.588 43.061 113.714 44.2778 113.817 45.2398C113.919 46.2018 113.987 46.961 114.04 47.4914C114.04 47.741 114.079 47.9334 114.089 48.079C114.105 48.1541 114.115 48.2307 114.118 48.3078Z" fill="#263238"/>
<path d="M80.7832 44.1321L74.3583 41.2773C72.6233 42.4577 69.7899 45.7077 69.0123 49.3373C68.5648 51.3258 68.4009 53.3753 68.5263 55.4161C68.6332 57.6157 68.4486 59.9453 67.3113 61.7809C66.4997 63.0861 65.1924 64.2249 65.1681 65.7953C65.1438 67.5997 66.8885 69.1545 66.5337 70.9225C66.247 72.3369 64.7744 73.0494 64.0065 74.2402C62.8887 75.9665 63.4282 78.3274 64.1572 80.2774C65.9165 84.9834 62.1743 91.7537 65.4694 95.3937C68.7207 92.5389 78.3338 87.2453 81.5851 84.3905C82.35 83.8145 82.983 83.0608 83.4368 82.1857C84.0006 80.8597 83.6944 79.3258 83.4028 77.9062C81.1191 66.8246 80.238 55.4649 80.7832 44.1321Z" fill="#263238"/>
<path d="M119.206 125.289L116.038 121.857L82.1634 132.08C82.1634 132.08 80.302 148.013 80.4916 149.032C80.6811 150.051 80.4916 152.963 80.4916 152.963L127.24 149.063C127.24 149.063 127.77 135.497 119.206 125.289Z" fill="#263238"/>
<path d="M91.3244 139.142C91.2798 139.287 91.2142 139.424 91.13 139.547C90.9891 139.792 90.7849 140.15 90.4933 140.587C90.1563 141.083 89.7683 141.536 89.3367 141.939C88.7887 142.419 88.1579 142.78 87.4801 143C86.2661 143.414 84.9975 143.616 83.7234 143.598C83.3401 143.596 82.9572 143.572 82.5764 143.525C82.4336 143.524 82.2921 143.496 82.1584 143.442C82.1584 143.4 82.7611 143.442 83.7234 143.406C84.9725 143.366 86.2105 143.142 87.4024 142.74C88.0507 142.515 88.6541 142.162 89.1811 141.7C89.6081 141.314 89.9988 140.883 90.3475 140.416C90.955 139.651 91.2904 139.116 91.3244 139.142Z" fill="#455A64"/>
<path d="M102.468 151.164C102.405 151.006 102.36 150.84 102.337 150.67C102.269 150.353 102.177 149.885 102.08 149.302C101.875 148.143 101.637 146.536 101.453 144.747C101.268 142.958 101.171 141.325 101.132 140.15C101.132 139.563 101.103 139.11 101.108 138.751C101.092 138.578 101.101 138.402 101.137 138.231C101.23 138.86 101.288 139.494 101.312 140.129C101.399 141.299 101.521 142.922 101.705 144.705C101.89 146.489 102.099 148.096 102.255 149.261C102.366 149.889 102.437 150.525 102.468 151.164Z" fill="#455A64"/>
<path d="M105.705 150.332C105.632 150.332 105.345 147.638 105.064 144.305C104.782 140.972 104.578 138.262 104.67 138.252C104.762 138.242 105.03 140.946 105.311 144.279C105.593 147.612 105.773 150.326 105.705 150.332Z" fill="#455A64"/>
<path d="M122.132 131.737C122.042 131.887 121.936 132.024 121.816 132.147C121.602 132.402 121.286 132.761 120.844 133.187C120.359 133.688 119.83 134.138 119.265 134.529C118.561 135.015 117.775 135.347 116.951 135.507C116.118 135.649 115.265 135.546 114.482 135.21C113.855 134.936 113.265 134.572 112.728 134.129C112.367 133.835 112.023 133.519 111.698 133.182C111.57 133.068 111.455 132.937 111.357 132.792C111.387 132.756 111.911 133.271 112.815 133.973C113.35 134.385 113.931 134.722 114.546 134.976C115.293 135.283 116.103 135.373 116.893 135.236C117.683 135.085 118.439 134.773 119.119 134.316C119.682 133.941 120.214 133.515 120.708 133.042C121.597 132.236 122.103 131.705 122.132 131.737Z" fill="#455A64"/>
<path d="M124.722 141.825C124.585 141.938 124.435 142.032 124.275 142.106L123.026 142.802C121.972 143.395 120.528 144.243 118.988 145.262C117.447 146.281 116.072 147.29 115.1 148.034L113.957 148.918C113.825 149.039 113.678 149.14 113.52 149.219C113.632 149.077 113.757 148.948 113.894 148.834C114.147 148.6 114.521 148.273 114.993 147.878C117.469 145.836 120.139 144.077 122.958 142.631C123.498 142.355 123.93 142.142 124.251 142.007C124.399 141.923 124.558 141.861 124.722 141.825Z" fill="#455A64"/>
<path d="M93.8225 137.576C93.7885 137.576 93.6719 137.327 93.5163 136.885C93.317 136.304 93.1737 135.703 93.0887 135.091C93.0059 134.469 93.0389 133.837 93.1859 133.229C93.2327 132.972 93.3341 132.73 93.4823 132.522C93.3146 133.353 93.2671 134.207 93.3414 135.054C93.4239 135.652 93.5391 136.244 93.6864 136.828C93.7713 137.067 93.8173 137.32 93.8225 137.576Z" fill="#455A64"/>
<path d="M95.8636 137.706C95.7471 137.474 95.6666 137.223 95.6254 136.963C95.4682 136.35 95.3624 135.724 95.3095 135.091C95.2895 134.743 95.3058 134.395 95.3581 134.051C95.4105 133.763 95.5005 133.485 95.6254 133.224C95.8393 132.782 96.058 132.579 96.0774 132.6C95.9964 132.841 95.8989 133.076 95.7858 133.302C95.5892 133.875 95.5128 134.488 95.5623 135.096C95.606 135.814 95.7372 136.464 95.8053 136.942C95.8643 137.192 95.884 137.45 95.8636 137.706Z" fill="#455A64"/>
<path d="M108.378 136.448C108.373 135.151 108.121 133.868 107.639 132.677C107.157 131.487 106.455 130.413 105.574 129.521C105.894 129.706 106.181 129.95 106.42 130.244C107.033 130.919 107.527 131.706 107.878 132.569C108.227 133.431 108.427 134.354 108.466 135.293C108.501 135.681 108.471 136.072 108.378 136.448Z" fill="#455A64"/>
<path d="M110.628 135.605C110.409 134.436 110.11 133.286 109.734 132.163C109.274 131.083 108.741 130.04 108.14 129.043C108.4 129.265 108.623 129.533 108.801 129.833C109.75 131.228 110.365 132.851 110.589 134.56C110.653 134.904 110.666 135.257 110.628 135.605Z" fill="#455A64"/>
<path d="M102.021 133.811C102.021 133.811 102.109 133.671 102.362 133.546C102.723 133.378 103.131 133.361 103.504 133.499C103.767 133.592 104.002 133.759 104.184 133.983C104.39 134.248 104.508 134.579 104.519 134.924C104.533 135.302 104.44 135.675 104.252 135.995C104.15 136.17 104.017 136.322 103.86 136.442C103.704 136.561 103.526 136.646 103.338 136.692C102.977 136.772 102.6 136.72 102.269 136.546C101.937 136.372 101.669 136.085 101.506 135.73C101.383 135.415 101.352 135.066 101.419 134.732C101.456 134.436 101.569 134.157 101.744 133.926C102.018 133.623 102.387 133.438 102.779 133.406C102.851 133.393 102.924 133.396 102.994 133.415C103.065 133.434 103.13 133.468 103.188 133.515C103.055 133.503 102.922 133.503 102.789 133.515C102.436 133.582 102.116 133.777 101.88 134.066C101.739 134.274 101.652 134.518 101.628 134.773C101.576 135.064 101.607 135.365 101.715 135.637C101.862 135.933 102.094 136.171 102.376 136.315C102.659 136.459 102.978 136.502 103.285 136.437C103.585 136.346 103.847 136.149 104.029 135.878C104.211 135.607 104.301 135.278 104.286 134.945C104.283 134.651 104.191 134.367 104.024 134.134C103.868 133.938 103.669 133.786 103.445 133.692C103.11 133.551 102.739 133.538 102.396 133.655C102.153 133.733 102.06 133.832 102.021 133.811Z" fill="#455A64"/>
<path d="M71.7436 83.3296C71.4763 83.678 63.6809 88.9924 62.5096 92.414C61.3384 95.8356 63.224 109.792 63.5497 112.205C63.8753 114.618 68.2979 123.728 68.2979 123.728C68.2979 123.728 67.3696 127.66 68.5846 130.083C69.3742 131.582 70.5569 132.8 71.9866 133.588L79.8209 128.996L74.9609 105.461L71.7436 83.3296Z" fill="#006AFF"/>
<path d="M72.594 108.051C72.8175 107.713 73.1188 107.494 73.3035 107.239C73.4882 106.985 73.8867 106.87 74.0763 107.115C74.2658 107.359 74.0763 107.811 73.8284 108.082C74.6157 108.113 75.2135 106.959 75.9765 107.187C76.0931 107.244 76.1982 107.324 76.2858 107.424C76.3733 107.523 76.4416 107.641 76.4868 107.769C76.5319 107.897 76.553 108.033 76.5489 108.17C76.5447 108.306 76.5154 108.441 76.4625 108.565C76.2176 109.059 75.8307 109.454 75.3593 109.694C74.8875 109.928 74.4632 110.258 74.1103 110.666C73.945 110.895 73.8381 111.243 74.0179 111.462C74.3241 111.836 75.0337 111.394 75.3058 111.795C75.4857 112.065 75.267 112.429 75.058 112.679C74.2901 113.566 73.5255 114.459 72.7641 115.357C72.5803 115.613 72.3375 115.814 72.0594 115.939C71.9189 115.995 71.7641 115.992 71.6255 115.931C71.4869 115.871 71.3746 115.756 71.3109 115.611C71.2892 115.455 71.3141 115.296 71.3822 115.156C71.4503 115.016 71.558 114.902 71.69 114.831C71.9597 114.704 72.2184 114.551 72.4627 114.374C72.5821 114.283 72.6636 114.145 72.6899 113.991C72.7162 113.837 72.6853 113.677 72.6037 113.547C72.3461 113.266 71.9087 113.5 71.6317 113.745L68.9587 115.991C68.7754 116.176 68.5486 116.303 68.3026 116.36C68.1799 116.382 68.0541 116.353 67.951 116.278C67.8479 116.204 67.7755 116.09 67.7485 115.96C67.7515 115.821 67.792 115.685 67.8652 115.57C68.3493 114.663 69.0127 113.88 69.8092 113.277C70.1319 113.079 70.4224 112.826 70.6694 112.528C70.7895 112.377 70.862 112.189 70.8769 111.991C70.8917 111.793 70.848 111.595 70.752 111.425C70.2269 111.955 69.6463 112.417 69.0219 112.803C68.8032 112.944 68.4824 113.058 68.3172 112.845C68.1519 112.632 68.3172 112.325 68.497 112.091L71.2623 108.617C71.3618 108.455 71.4904 108.316 71.6405 108.207C71.7906 108.098 71.9594 108.022 72.1371 107.983L72.594 108.051Z" fill="white"/>
<path d="M76.448 75.7168L75.8162 79.83L70.062 84.7596C70.062 84.7596 68.7012 94.0468 69.9988 103.48C69.9988 103.48 78.4309 127.92 78.635 128.96C79.0189 130.941 82.4209 132.6 82.4209 132.6C82.4209 132.6 95.2659 132.73 99.6788 132.048C104.092 131.367 114.745 124.165 115.765 123.208C116.786 122.252 117.938 117.655 117.938 117.655L110.084 94.1196L109.642 77.5628L97.9049 74.3388L93.9197 71.042L76.448 75.7168Z" fill="#006AFF"/>
<path d="M111.061 92.8871C111.284 92.5491 111.586 92.3307 111.766 92.0759C111.945 91.8211 112.354 91.7067 112.543 91.9511C112.733 92.1955 112.543 92.6479 112.291 92.9183C113.083 92.9495 113.68 91.7951 114.443 92.0239C114.56 92.0801 114.665 92.1603 114.753 92.2601C114.84 92.3598 114.909 92.477 114.954 92.605C114.999 92.733 115.02 92.8693 115.016 93.006C115.012 93.1428 114.982 93.2773 114.929 93.4019C114.685 93.8951 114.298 94.2907 113.826 94.5303C113.355 94.7639 112.93 95.0943 112.577 95.5027C112.412 95.7367 112.305 96.0799 112.485 96.2983C112.786 96.6727 113.501 96.2307 113.773 96.6311C113.953 96.9015 113.734 97.2655 113.525 97.5151C112.757 98.406 111.992 99.2987 111.231 100.193C111.047 100.449 110.804 100.65 110.526 100.776C110.386 100.832 110.231 100.83 110.092 100.769C109.953 100.709 109.841 100.594 109.778 100.448C109.756 100.292 109.78 100.133 109.849 99.994C109.917 99.8546 110.025 99.7422 110.157 99.6731C110.426 99.5416 110.684 99.3868 110.93 99.2103C111.048 99.1184 111.129 98.9811 111.155 98.8271C111.181 98.6731 111.151 98.5143 111.071 98.3835C110.813 98.1027 110.376 98.3367 110.099 98.5811L107.406 100.828C107.225 101.013 107 101.141 106.755 101.197C106.632 101.218 106.506 101.189 106.403 101.115C106.3 101.04 106.228 100.926 106.201 100.796C106.204 100.657 106.244 100.522 106.318 100.406C106.802 99.4995 107.465 98.7168 108.262 98.1131C108.584 97.915 108.875 97.6621 109.122 97.3643C109.242 97.213 109.314 97.0252 109.329 96.8274C109.344 96.6295 109.3 96.4317 109.204 96.2619C108.679 96.791 108.099 97.2534 107.474 97.6399C107.251 97.7803 106.935 97.8947 106.77 97.6815C106.604 97.4683 106.77 97.1615 106.949 96.9275C107.873 95.7662 108.795 94.6083 109.715 93.4539C109.814 93.2917 109.943 93.1521 110.093 93.0432C110.243 92.9344 110.412 92.8583 110.59 92.8195L111.061 92.8871Z" fill="white"/>
<path d="M109.452 77.6411C109.452 77.6411 115.95 80.0799 117.651 84.2399C119.352 88.3999 125.864 108.16 125.456 111.8C125.048 115.44 123.964 119.6 121.019 119.787C118.074 119.974 114.701 116.766 114.701 116.766L112.057 112.164L112.198 107.344L109.195 94.5099L109.452 77.6411Z" fill="#006AFF"/>
<path d="M76.6958 77.7295C76.6958 77.7607 90.1191 95.3263 90.1191 95.3263L91.9416 79.0503L94.4834 71.0371L76.9874 75.6599L76.6958 77.7295Z" fill="#967262"/>
<g opacity="0.3">
<path opacity="0.3" d="M104.398 76.4657C103.606 76.0393 102.653 76.3773 101.851 76.7777C97.3119 79.0709 92.379 81.8529 91.0474 87.0269L90.9939 90.1469C91.4119 92.0293 93.2295 93.2669 95.0326 93.4333C96.8356 93.5997 98.6095 92.8821 100.223 92.0085C101.673 91.2286 103.055 90.3133 104.354 89.2733C105.073 88.6961 105.812 87.9889 105.953 87.0373C106.133 85.7373 105.112 84.6037 104.884 83.3141C104.665 82.1129 105.146 80.9065 105.37 79.7053C105.593 78.5041 105.423 77.0117 104.398 76.4657Z" fill="black"/>
</g>
<path d="M69.9844 103.506C70.0402 103.6 70.0843 103.701 70.1156 103.807L70.4461 104.691C70.7231 105.466 71.1216 106.584 71.5979 107.973C72.5699 110.749 73.78 114.623 75.1554 118.893C75.8504 121.025 76.5259 123.053 77.148 124.888C77.4591 125.809 77.7458 126.687 78.0471 127.488C78.3256 128.232 78.6689 128.946 79.0726 129.62C79.6655 130.592 80.446 131.416 81.3616 132.038C82.0177 132.47 82.4211 132.636 82.4065 132.662C82.3057 132.636 82.208 132.597 82.1149 132.548C81.8379 132.43 81.5698 132.289 81.313 132.127C80.3575 131.53 79.5415 130.708 78.9268 129.724C78.5039 129.048 78.1442 128.328 77.8527 127.577C77.5368 126.765 77.2452 125.892 76.9245 124.977C76.2927 123.141 75.6074 121.118 74.9173 118.981C73.5565 114.727 72.3269 110.874 71.4278 108.061C70.9807 106.683 70.6162 105.565 70.3537 104.749L70.067 103.844C70.029 103.734 70.0014 103.621 69.9844 103.506Z" fill="#263238"/>
<path d="M90.0558 95.8828C90.0081 95.8363 89.9656 95.7839 89.9295 95.7268L89.5844 95.2536C89.2831 94.8428 88.8457 94.2136 88.2722 93.4856C86.7094 91.4384 85.0156 89.5098 83.2032 87.7136L83.3976 87.6252C83.3442 90.0068 83.2858 92.6796 83.2227 95.498C83.2227 95.7476 83.2227 96.018 83.2227 96.226V96.7824L82.9991 96.2624C80.9336 91.7332 79.0819 87.6616 77.7309 84.6872C77.0796 83.2312 76.5547 82.0456 76.1708 81.1928C76.0007 80.7976 75.8646 80.4804 75.7626 80.236C75.7108 80.127 75.667 80.014 75.6313 79.8979C75.7008 79.9962 75.7595 80.1026 75.8063 80.2151C75.9229 80.4491 76.0736 80.7352 76.2583 81.146L77.8913 84.604C79.2618 87.568 81.1377 91.624 83.2372 96.1428L82.9991 96.2C82.9991 95.966 82.9991 95.7216 82.9991 95.472C83.072 92.6536 83.1352 89.9808 83.1935 87.5992V87.3236L83.3782 87.5108C85.1867 89.3267 86.8649 91.2857 88.3986 93.3712C88.9575 94.1356 89.3706 94.7596 89.6622 95.186L89.9781 95.68C90.0122 95.7436 90.0383 95.8118 90.0558 95.8828Z" fill="#263238"/>
<path d="M109.165 108.586C109.219 108.638 105.277 113.126 100.417 118.606C95.5575 124.087 91.5334 128.486 91.4848 128.44C91.4362 128.393 95.3485 123.905 100.233 118.419C105.117 112.933 109.117 108.534 109.165 108.586Z" fill="#263238"/>
<path d="M101.88 131.201C101.72 130.668 101.593 130.124 101.501 129.573C101.283 128.564 100.952 127.181 100.5 125.684C100.048 124.186 99.5523 122.855 99.1733 121.903C98.9486 121.396 98.7523 120.875 98.5852 120.343C98.8796 120.809 99.1319 121.303 99.3385 121.82C99.881 123.045 100.349 124.306 100.738 125.595C101.131 126.882 101.445 128.195 101.676 129.526C101.797 130.076 101.865 130.637 101.88 131.201Z" fill="#263238"/>
<path d="M68.9783 102.643C67.8471 101.985 66.7577 101.249 65.7173 100.438C64.6268 99.7047 63.5829 98.8952 62.5923 98.0146C63.7254 98.6695 64.8164 99.4043 65.8582 100.214C66.9471 100.949 67.9894 101.761 68.9783 102.643Z" fill="#263238"/>
<path d="M121.014 119.756C121.014 119.756 120.956 119.756 120.844 119.756H120.358C120.091 119.758 119.824 119.735 119.561 119.688C119.202 119.637 118.847 119.553 118.501 119.439C117.574 119.11 116.72 118.578 115.994 117.879C115.067 116.978 114.334 115.872 113.846 114.639C113.389 112.663 112.874 110.479 112.349 108.16C111.377 103.761 110.458 99.7825 109.802 96.8601L109.054 93.4281L108.864 92.4921C108.837 92.3851 108.821 92.2753 108.815 92.1646C108.862 92.2651 108.897 92.3717 108.917 92.4818C108.976 92.721 109.054 93.0277 109.151 93.4021C109.355 94.2445 109.637 95.3989 109.972 96.8133C110.653 99.7305 111.576 103.703 112.597 108.097C113.121 110.406 113.622 112.606 114.055 114.582C114.527 115.784 115.23 116.867 116.12 117.759C116.822 118.45 117.649 118.981 118.55 119.319C119.351 119.573 120.179 119.72 121.014 119.756Z" fill="#263238"/>
<path d="M73.5464 120.078C73.2266 120.174 72.9021 120.25 72.5744 120.307C71.0433 120.714 69.6987 121.694 68.7836 123.068C68.6146 123.37 68.4313 123.661 68.2344 123.942C68.3037 123.591 68.4393 123.258 68.6329 122.964C69.0613 122.225 69.631 121.59 70.3047 121.103C70.9738 120.608 71.7346 120.273 72.5355 120.12C72.8656 120.028 73.2106 120.014 73.5464 120.078Z" fill="#263238"/>
<path d="M73.6341 119.485C72.9292 119.931 72.1583 120.244 71.3548 120.411C70.5685 120.669 69.7462 120.778 68.9248 120.733C68.9248 120.655 69.9891 120.494 71.2819 120.151C72.5747 119.808 73.605 119.413 73.6341 119.485Z" fill="#263238"/>
<path d="M72.1125 90.5993C72.341 90.2613 72.6423 90.0429 72.8221 89.7881C73.0019 89.5333 73.4053 89.4137 73.5997 89.6633C73.7941 89.9129 73.5997 90.3549 73.347 90.6253C74.1392 90.6617 74.7369 89.5074 75.5 89.7362C75.6166 89.7923 75.7216 89.8726 75.8092 89.9723C75.8968 90.072 75.9651 90.1892 76.0102 90.3172C76.0554 90.4453 76.0765 90.5815 76.0723 90.7183C76.0681 90.855 76.0388 90.9896 75.986 91.1141C75.741 91.6073 75.3542 92.0029 74.8827 92.2425C74.4132 92.4777 73.9907 92.8079 73.6386 93.2149C73.4733 93.4437 73.3664 93.7921 73.5462 94.0105C73.8476 94.3849 74.562 93.9429 74.8293 94.3433C75.014 94.6137 74.7953 94.9777 74.5814 95.2221L72.2924 97.9053C72.1086 98.1616 71.8658 98.3623 71.5877 98.4877C71.4472 98.5434 71.2924 98.5406 71.1538 98.4799C71.0152 98.4192 70.9029 98.3051 70.8392 98.1602C70.8175 98.004 70.8424 97.8444 70.9105 97.7044C70.9786 97.5643 71.0863 97.4508 71.2183 97.3802C71.4866 97.2493 71.7449 97.0963 71.991 96.9225C72.1096 96.8306 72.1902 96.693 72.2156 96.5386C72.241 96.3843 72.2092 96.2255 72.1271 96.0957C71.8744 95.8097 71.437 96.0489 71.1551 96.2881L68.4773 98.5397C68.2963 98.725 68.0709 98.8528 67.826 98.909C67.7033 98.9307 67.5775 98.9014 67.4744 98.8269C67.3714 98.7524 67.2989 98.6385 67.272 98.5085C67.2741 98.3691 67.3146 98.2334 67.3886 98.1185C67.8784 97.208 68.5506 96.4249 69.3569 95.8253C69.6771 95.6254 69.9657 95.3727 70.2123 95.0765C70.3331 94.9258 70.4066 94.7383 70.4223 94.5404C70.438 94.3426 70.3951 94.1445 70.2998 93.9741C69.7724 94.5005 69.1921 94.9626 68.5696 95.3521C68.346 95.4925 68.0301 95.6017 67.8649 95.3937C67.6997 95.1857 67.8649 94.8738 68.0399 94.6346L70.8101 91.1662C71.0113 90.8377 71.3258 90.6078 71.6849 90.5265L72.1125 90.5993Z" fill="white"/>
<path d="M92.5344 97.6609C92.758 97.3229 93.0593 97.1045 93.244 96.8497C93.4286 96.5949 93.8272 96.4753 94.0167 96.7249C94.2062 96.9745 94.0167 97.4165 93.764 97.6869C94.5562 97.7233 95.1539 96.5689 95.917 96.7977C96.0336 96.8539 96.1386 96.9341 96.2262 97.0338C96.3138 97.1335 96.3821 97.2508 96.4272 97.3788C96.4724 97.5068 96.4935 97.6431 96.4893 97.7798C96.4851 97.9166 96.4558 98.0511 96.403 98.1757C96.1572 98.6669 95.7705 99.0606 95.2997 99.2989C94.8288 99.5362 94.4048 99.8681 94.0507 100.276C93.8855 100.505 93.7786 100.854 93.9584 101.072C94.2646 101.441 94.9741 101.004 95.2463 101.405C95.4261 101.675 95.2074 102.039 94.9984 102.284L92.7045 104.967C92.522 105.227 92.2791 105.431 91.9998 105.56C91.8588 105.615 91.7035 105.611 91.5648 105.55C91.4261 105.488 91.3142 105.373 91.2513 105.227C91.2299 105.071 91.2551 104.913 91.3232 104.774C91.3913 104.634 91.4988 104.522 91.6304 104.452C91.8983 104.32 92.1566 104.167 92.4032 103.994C92.6267 103.792 92.7482 103.391 92.5441 103.168C92.34 102.944 91.8491 103.121 91.5721 103.36L88.8991 105.612C88.7138 105.793 88.4878 105.92 88.243 105.981C88.1203 106.003 87.9945 105.973 87.8914 105.899C87.7884 105.824 87.7159 105.71 87.689 105.58C87.691 105.441 87.7316 105.305 87.8056 105.19C88.287 104.282 88.9509 103.498 89.7496 102.897C90.0713 102.697 90.3615 102.445 90.6098 102.148C90.7299 101.997 90.8025 101.809 90.8173 101.612C90.8321 101.414 90.7885 101.216 90.6925 101.046C90.166 101.574 89.5856 102.036 88.9623 102.424C88.7436 102.559 88.4228 102.674 88.2576 102.466C88.0924 102.258 88.2576 101.946 88.4374 101.706C89.3608 100.552 90.2826 99.3942 91.2028 98.2329C91.4068 97.9084 91.7203 97.681 92.0776 97.5985L92.5344 97.6609Z" fill="white"/>
<path d="M84.7537 118.362C84.9821 118.024 85.2834 117.806 85.4632 117.551C85.643 117.296 86.0464 117.182 86.2408 117.426C86.4352 117.671 86.2408 118.123 85.9881 118.388C86.7803 118.425 87.3781 117.27 88.1411 117.499C88.2577 117.555 88.3628 117.635 88.4503 117.735C88.5379 117.835 88.6062 117.952 88.6513 118.08C88.6965 118.208 88.7176 118.344 88.7134 118.481C88.7093 118.618 88.6799 118.752 88.6271 118.877C88.3821 119.37 87.9953 119.766 87.5239 120.005C87.0543 120.241 86.6318 120.571 86.2797 120.978C86.1145 121.207 86.0075 121.555 86.1874 121.773C86.4887 122.148 87.2031 121.706 87.4704 122.106C87.6551 122.377 87.4364 122.741 87.2225 122.985L84.9335 125.668C84.7498 125.924 84.5069 126.125 84.2288 126.251C84.0883 126.306 83.9335 126.303 83.7949 126.243C83.6563 126.182 83.5441 126.068 83.4803 125.923C83.4586 125.767 83.4835 125.607 83.5516 125.467C83.6197 125.327 83.7274 125.214 83.8594 125.143C84.1292 125.015 84.3878 124.862 84.6322 124.685C84.7508 124.593 84.8313 124.456 84.8567 124.301C84.8821 124.147 84.8504 123.988 84.7682 123.859C84.5155 123.573 84.0781 123.812 83.7962 124.051L81.1184 126.303C80.9375 126.488 80.712 126.616 80.4671 126.672C80.3444 126.694 80.2186 126.664 80.1155 126.59C80.0125 126.515 79.94 126.401 79.9131 126.271C79.9152 126.132 79.9558 125.996 80.0297 125.881C80.5138 124.975 81.1773 124.192 81.9737 123.588C82.2959 123.391 82.585 123.138 82.8291 122.839C82.9499 122.689 83.0234 122.501 83.0391 122.303C83.0548 122.105 83.0119 121.907 82.9166 121.737C82.3905 122.265 81.81 122.727 81.1864 123.115C80.9629 123.255 80.647 123.37 80.4817 123.157C80.3165 122.943 80.4817 122.637 80.6567 122.403L83.4269 118.929C83.6281 118.601 83.9426 118.371 84.3017 118.289L84.7537 118.362Z" fill="white"/>
<path d="M107.97 116.542C108.194 116.204 108.5 115.986 108.68 115.731C108.859 115.476 109.263 115.357 109.457 115.606C109.652 115.856 109.433 116.298 109.204 116.568C109.997 116.605 110.594 115.45 111.357 115.679C111.474 115.735 111.579 115.815 111.667 115.915C111.754 116.015 111.822 116.132 111.868 116.26C111.913 116.388 111.934 116.524 111.93 116.661C111.926 116.798 111.896 116.932 111.843 117.057C111.598 117.548 111.211 117.942 110.74 118.18C110.271 118.419 109.849 118.751 109.496 119.158C109.331 119.387 109.224 119.735 109.404 119.953C109.705 120.323 110.419 119.886 110.687 120.286C110.871 120.557 110.648 120.921 110.439 121.165L108.145 123.848C107.962 124.106 107.719 124.306 107.44 124.431C107.299 124.485 107.144 124.48 107.006 124.419C106.868 124.357 106.756 124.243 106.692 124.098C106.67 123.942 106.695 123.782 106.765 123.643C106.834 123.503 106.943 123.391 107.076 123.323C107.342 123.192 107.599 123.039 107.844 122.865C108.067 122.663 108.189 122.262 107.985 122.039C107.78 121.815 107.294 121.992 107.013 122.231L104.34 124.483C104.156 124.666 103.929 124.794 103.683 124.852C103.561 124.874 103.435 124.844 103.332 124.77C103.229 124.695 103.156 124.581 103.129 124.451C103.131 124.311 103.174 124.175 103.251 124.061C103.739 123.15 104.412 122.366 105.219 121.768C105.538 121.567 105.827 121.314 106.075 121.019C106.195 120.869 106.269 120.681 106.285 120.483C106.3 120.285 106.257 120.087 106.162 119.917C105.635 120.443 105.054 120.905 104.432 121.295C104.208 121.435 103.888 121.545 103.722 121.337C103.557 121.129 103.722 120.817 103.902 120.577L106.672 117.109C106.771 116.946 106.9 116.805 107.05 116.695C107.2 116.586 107.369 116.509 107.547 116.469L107.97 116.542Z" fill="white"/>
<path d="M99.1053 119.324C99.0526 119.26 99.0084 119.188 98.9741 119.111L98.6339 118.472C98.3423 117.92 97.934 117.104 97.4529 116.09C96.4809 114.062 95.2124 111.212 93.9634 108.004C92.7144 104.796 91.723 101.821 91.0474 99.6528C90.7169 98.566 90.4642 97.6872 90.299 97.0528C90.2261 96.772 90.1678 96.5328 90.1192 96.3456C90.0918 96.2636 90.0755 96.1778 90.0706 96.0908C90.1122 96.1659 90.1449 96.2462 90.1678 96.33C90.2261 96.5172 90.3038 96.746 90.3962 97.0216C90.6003 97.6612 90.8822 98.5244 91.2175 99.5696C91.9174 101.717 92.9331 104.671 94.1773 107.89C95.4214 111.108 96.6607 113.948 97.5793 115.991C98.0312 116.99 98.4055 117.806 98.6873 118.414L98.9838 119.075C99.0357 119.151 99.0767 119.235 99.1053 119.324Z" fill="#263238"/>
<path d="M125.476 111.353C125.476 111.743 123.794 112.559 123.434 112.517L123.012 112.377C122.739 112.673 122.409 112.84 122.195 113.063C121.981 113.287 121.563 113.334 121.408 113.063C121.252 112.793 121.529 112.382 121.797 112.153C121.019 111.992 120.261 113.032 119.541 112.673C119.326 112.522 119.176 112.285 119.124 112.015C119.072 111.744 119.123 111.463 119.264 111.233C119.578 110.787 120.018 110.46 120.518 110.302C121.016 110.147 121.481 109.891 121.889 109.548C122.083 109.345 122.239 109.028 122.093 108.773C121.85 108.357 121.082 108.675 120.873 108.253C120.732 107.957 120.999 107.635 121.247 107.427C122.127 106.667 123.337 105.612 124.222 104.853C124.222 104.827 125.441 109.574 125.476 111.353Z" fill="white"/>
<g opacity="0.3">
<path opacity="0.3" d="M91.6111 128.149C98.6581 124.036 104.947 117.411 108.359 109.637L91.6111 128.149Z" fill="black"/>
</g>
<g opacity="0.3">
<path opacity="0.3" d="M68.249 123.942C69.6293 120.77 72.346 119.901 74.985 119.938C75.0112 119.773 74.9795 119.604 74.8961 119.463C74.8126 119.321 74.6833 119.218 74.533 119.173C74.2291 119.085 73.9086 119.085 73.6047 119.173C72.3224 119.371 71.0861 119.824 69.9597 120.51C69.4416 120.867 69.0169 121.36 68.7253 121.941C68.4337 122.522 68.2849 123.173 68.2928 123.832" fill="black"/>
</g>
<g opacity="0.3">
<path opacity="0.3" d="M75.685 80.0068C77.4771 87.035 80.2633 93.7285 83.947 99.8552C85.3053 97.5994 85.883 94.9062 85.58 92.2424C86.6018 93.6641 88.0035 94.7196 89.5992 95.2688C87.7281 92.518 85.7841 89.9024 83.3541 87.7132C83.3541 87.7132 83.1451 96.5532 83.15 96.3088C80.6082 90.8436 78.1345 85.4616 75.6753 80.0068" fill="black"/>
</g>
<path d="M97.0981 55.4629C96.3739 57.9849 95.3436 59.9245 93.0594 60.9177C91.062 61.7861 88.8021 61.6197 86.6928 61.1569C79.8354 59.6437 72.6377 55.7333 68.9976 49.3373L70.9416 44.8029C72.9973 41.3449 78.0226 37.2473 83.8546 39.2753C85.4323 38.7926 87.0987 38.7464 88.6977 39.1411C90.2966 39.5359 91.7757 40.3585 92.9962 41.5321C97.4674 45.6037 97.0981 55.4629 97.0981 55.4629Z" fill="#263238"/>
<path d="M80.6227 42.728C76.6181 42.208 71.447 47.408 71.1166 51.7188C70.7472 56.5028 70.4751 62.358 70.9368 65.9408C71.8747 73.148 77.0069 74.1672 77.0069 74.1672L76.759 77.8332L92.0972 74.682L92.7581 48.9784L92.8408 46.6592L80.6227 42.728Z" fill="#967262"/>
<path d="M73.6098 56.9087C73.6031 57.1485 73.6842 57.3816 73.8358 57.5584C73.9874 57.7352 74.1975 57.8416 74.4214 57.8551C74.5311 57.8672 74.642 57.8558 74.7475 57.8213C74.853 57.7869 74.951 57.7302 75.0357 57.6546C75.1204 57.579 75.1901 57.486 75.2407 57.3811C75.2913 57.2762 75.3217 57.1616 75.3302 57.0439C75.3369 56.8041 75.2558 56.5709 75.1042 56.3942C74.9526 56.2174 74.7425 56.1109 74.5186 56.0975C74.4089 56.0853 74.298 56.0968 74.1925 56.1312C74.0869 56.1657 73.9889 56.2224 73.9042 56.298C73.8195 56.3736 73.7498 56.4666 73.6993 56.5715C73.6487 56.6763 73.6183 56.791 73.6098 56.9087Z" fill="#263238"/>
<path d="M72.4823 54.8024C72.5843 54.922 73.2453 54.4228 74.1735 54.4436C75.1018 54.4644 75.7725 54.9636 75.8745 54.8544C75.9766 54.7452 75.8211 54.584 75.5295 54.3344C75.132 54.0305 74.6572 53.8636 74.1687 53.856C73.6866 53.8457 73.2137 53.9985 72.8176 54.2928C72.5309 54.532 72.4142 54.7452 72.4823 54.8024Z" fill="#263238"/>
<path d="M82.2605 57.2673C82.2551 57.5068 82.3366 57.7392 82.4879 57.9157C82.6393 58.0921 82.8487 58.199 83.0721 58.2137C83.1815 58.2251 83.2918 58.2131 83.3968 58.1783C83.5017 58.1436 83.5991 58.0867 83.6833 58.0112C83.7675 57.9357 83.8367 57.8429 83.887 57.7384C83.9373 57.6339 83.9676 57.5197 83.9761 57.4025C83.9828 57.1622 83.9019 56.9285 83.7504 56.7509C83.5989 56.5732 83.3888 56.4657 83.1645 56.4509C83.0548 56.4395 82.944 56.4517 82.8388 56.4868C82.7335 56.5219 82.6359 56.5792 82.5517 56.6553C82.4674 56.7313 82.3983 56.8247 82.3483 56.9298C82.2983 57.0349 82.2684 57.1497 82.2605 57.2673Z" fill="#263238"/>
<path d="M81.585 55.177C81.6919 55.2966 82.3529 54.7974 83.2811 54.8182C84.2094 54.839 84.8752 55.3382 84.9773 55.229C85.0793 55.1198 84.9238 54.9586 84.6322 54.709C84.2365 54.4052 83.7633 54.2382 83.2763 54.2306C82.794 54.2192 82.3209 54.3722 81.9252 54.6674C81.6482 54.9066 81.5364 55.1198 81.585 55.177Z" fill="#263238"/>
<path d="M78.0909 62.4568C77.6038 62.2877 77.0997 62.1812 76.5891 62.1396C76.3558 62.1084 76.1323 62.0512 76.1031 61.8796C76.0877 61.6166 76.1488 61.355 76.2781 61.1308C76.5114 60.5224 76.7641 59.8828 77.0119 59.2172C78.0325 56.4924 78.7761 54.2512 78.6741 54.2096C78.572 54.168 77.6583 56.3364 76.6377 59.0612C76.3899 59.732 76.1517 60.3768 75.933 60.9904C75.7761 61.2907 75.726 61.6416 75.7921 61.9784C75.8237 62.0695 75.875 62.1513 75.9417 62.2172C76.0084 62.2832 76.0887 62.3314 76.176 62.358C76.3057 62.398 76.4396 62.4207 76.5745 62.4256C77.0767 62.5053 77.5862 62.5157 78.0909 62.4568Z" fill="#263238"/>
<path d="M77.0068 74.1881C80.2415 74.3093 83.4458 73.484 86.2748 71.8013C86.2748 71.8013 83.8205 76.7621 76.8853 75.9613L77.0068 74.1881Z" fill="#77574A"/>
<path d="M78.4407 64.8591C78.6202 64.6244 78.8529 64.4427 79.1167 64.3317C79.3804 64.2206 79.6664 64.1838 79.9473 64.2247C80.1512 64.2478 80.3485 64.3151 80.5273 64.4224C80.7061 64.5296 80.8626 64.6747 80.9873 64.8487C81.1082 65.0169 81.1781 65.2206 81.1877 65.4326C81.1972 65.6445 81.146 65.8545 81.0408 66.0343C80.8888 66.2091 80.6914 66.3313 80.474 66.385C80.2566 66.4388 80.0292 66.4217 79.8209 66.3359C79.3853 66.1633 78.9868 65.898 78.6497 65.5559C78.548 65.4743 78.4608 65.3739 78.3921 65.2595C78.3574 65.2051 78.3389 65.1408 78.3389 65.0749C78.3389 65.0091 78.3574 64.9447 78.3921 64.8903" fill="#77574A"/>
<path d="M80.8024 63.2008C80.6517 63.2008 80.6323 64.2408 79.7575 65.0104C78.8827 65.78 77.8135 65.6188 77.8135 65.7696C77.8135 65.832 78.0468 65.9828 78.4987 66.0036C79.0891 66.0255 79.6677 65.8228 80.1317 65.4316C80.5763 65.0574 80.8674 64.5129 80.9433 63.9132C80.9822 63.466 80.8753 63.1956 80.8024 63.2008Z" fill="#263238"/>
<path d="M81.4197 51.2873C81.5023 51.5577 82.4306 51.4485 83.5144 51.6097C84.5982 51.7709 85.4584 52.1297 85.6236 51.8697C85.6917 51.7553 85.541 51.5005 85.1911 51.2301C84.7251 50.8964 84.1924 50.6844 83.6359 50.6113C83.0814 50.5283 82.5164 50.5889 81.9883 50.7881C81.585 50.9597 81.3808 51.1573 81.4197 51.2873Z" fill="#263238"/>
<path d="M72.9001 51.9374C73.0557 52.1662 73.702 51.9374 74.4651 51.9374C75.2281 51.9374 75.8842 52.1194 76.0348 51.8854C76.1029 51.771 76.0057 51.5474 75.7238 51.3238C75.3499 51.0537 74.9063 50.9155 74.4553 50.9286C74.005 50.9302 73.5658 51.079 73.1966 51.355C72.9001 51.5994 72.8029 51.8282 72.9001 51.9374Z" fill="#263238"/>
<path d="M92.2186 45.9418C91.6791 44.7302 90.3524 44.231 89.1762 43.7734C87.5141 43.1286 85.9006 42.333 84.2045 41.8026C82.5175 41.2015 80.7125 41.0849 78.9702 41.4646C77.1963 41.9222 75.6606 43.1026 74.3046 44.4078C72.5162 46.129 70.9026 48.2402 70.4458 50.7674V51.6358C74.2998 50.4658 78.1343 46.155 80.924 43.0818C83.3297 46.6698 87.3343 53.0398 90.8821 54.5998C91.1202 52.7642 92.3401 50.1018 92.4762 48.2558C92.5724 47.4736 92.4838 46.678 92.2186 45.9418Z" fill="#263238"/>
<path d="M105.18 74.9576C104.918 73.5224 103.591 72.654 102.429 71.8844C101.268 71.1148 100.024 70.0124 100.092 68.5512C100.16 67.09 101.681 65.8316 101.55 64.308C101.419 62.7844 99.6544 61.9732 98.7164 60.72C97.3556 58.9104 97.0932 57.782 97.0932 55.4628C97.0932 50.9232 95.3971 44.9952 91.6597 42.832L86.7803 47.2156C88.1994 51.4536 89.638 55.884 89.1422 60.3612C88.8458 63.0132 87.8738 65.5924 88.0147 68.26C88.1654 71.1252 89.5796 73.7356 90.0608 76.554C90.5176 79.2268 90.124 81.9776 90.2503 84.692C90.3767 87.4064 91.2223 90.3392 93.3704 91.7796L101.482 87.6196C102.361 87.1672 103.353 86.5796 103.479 85.5396C103.606 84.4996 102.745 83.5844 102.507 82.5444C101.924 79.8248 105.676 77.6928 105.18 74.9576Z" fill="#263238"/>
<path d="M96.962 52.7744C96.5769 52.9612 96.1746 53.1041 95.7616 53.2008C94.7739 53.4982 93.7615 53.6915 92.7387 53.778C91.7099 53.8456 90.6779 53.726 89.6866 53.4244C89.2709 53.3225 88.8714 53.1561 88.5007 52.9304C88.525 52.8212 90.3524 53.6792 92.7241 53.5076C93.7325 53.4122 94.733 53.2384 95.7178 52.9876C96.1254 52.8753 96.542 52.8039 96.962 52.7744Z" fill="#455A64"/>
<path d="M97.1176 54.4438C96.7852 54.7147 96.4166 54.9304 96.0241 55.0835C95.0921 55.5034 94.0948 55.7327 93.0838 55.7595C92.0746 55.7687 91.0695 55.6215 90.0997 55.3227C89.6948 55.2246 89.303 55.0726 88.9333 54.8702C89.3423 54.9266 89.7468 55.0153 90.1435 55.1355C91.0993 55.3746 92.0779 55.4933 93.0595 55.4891C94.0429 55.4589 95.0156 55.2624 95.9415 54.9066C96.3255 54.7301 96.7181 54.5756 97.1176 54.4438Z" fill="#455A64"/>
<path d="M68.623 51.7552C69.0499 51.6901 69.4799 51.6519 69.9109 51.6408C70.3343 51.5412 70.7627 51.4683 71.194 51.4224C70.8184 51.686 70.3909 51.8532 69.9449 51.9109C69.499 51.9686 69.0466 51.9153 68.623 51.7552Z" fill="#455A64"/>
<path d="M68.3804 52.5771C68.4241 52.5147 68.9393 52.8943 69.6537 53.1543C70.3681 53.4143 70.9902 53.4611 70.9902 53.5443C70.5162 53.6684 70.0171 53.6209 69.5711 53.4091C69.098 53.283 68.6785 52.9898 68.3804 52.5771Z" fill="#455A64"/>
<path d="M91.1007 88.2907C90.9799 88.2721 90.8621 88.2354 90.7508 88.1815C90.4202 88.0326 90.1234 87.8091 89.8809 87.5263C89.4936 87.0763 89.2399 86.5135 89.1519 85.9091C89.0986 85.528 89.1252 85.139 89.2297 84.7703C89.3516 84.3664 89.5232 83.9817 89.7399 83.6263C89.9738 83.2486 90.1833 82.8542 90.3669 82.4459C90.5443 82.0018 90.6384 81.5248 90.6439 81.0419C90.6086 79.9621 90.3086 78.9112 89.774 77.9947C89.1635 76.9807 88.5016 76.0034 87.7911 75.0671C87.01 74.0385 86.4716 72.8239 86.2213 71.5259C86.0367 70.2173 86.1096 68.8818 86.4352 67.6051C86.7324 66.4295 87.1143 65.2804 87.5772 64.1679C87.9952 63.1019 88.4034 62.0879 88.7096 61.1259C89.0051 60.2311 89.212 59.3056 89.3269 58.3647C89.5263 57.0057 89.4484 55.6167 89.0984 54.2931C88.9545 53.8134 88.7536 53.3555 88.5007 52.9307C88.5876 53.0232 88.6642 53.1261 88.7291 53.2375C88.9308 53.5612 89.0941 53.9105 89.2151 54.2775C89.6056 55.6116 89.7119 57.0224 89.5261 58.4063C89.4205 59.3623 89.2201 60.3036 88.9283 61.2143C88.627 62.1971 88.2236 63.2111 87.8105 64.2823C87.3575 65.385 86.9854 66.5237 86.6976 67.6883C86.3816 68.9278 86.3105 70.2241 86.4886 71.4947C86.7324 72.7522 87.254 73.929 88.0098 74.9267C88.7234 75.8725 89.387 76.8603 89.9975 77.8855C90.5457 78.8436 90.8474 79.9396 90.8723 81.0627C90.8623 81.5734 90.7583 82.077 90.5662 82.5447C90.3717 82.9513 90.1525 83.3439 89.91 83.7199C89.6987 84.0601 89.5274 84.4269 89.3997 84.8119C89.3032 85.1482 89.2734 85.5025 89.3123 85.8519C89.3854 86.4298 89.6152 86.9721 89.9732 87.4119C90.2771 87.7981 90.664 88.0997 91.1007 88.2907Z" fill="#263238"/>
<path d="M84.112 39.1976C83.3904 39.5459 82.7322 40.0283 82.168 40.6224C81.6637 41.2725 81.269 42.0115 81.0016 42.8064C80.9735 42.5481 81.0086 42.2865 81.1037 42.0472C81.284 41.4492 81.5833 40.9001 81.9809 40.4378C82.3786 39.9755 82.8653 39.6109 83.4073 39.3692C83.6245 39.2481 83.8672 39.189 84.112 39.1976Z" fill="#455A64"/>
<path d="M109.865 88.0776L106.556 82.498L106.327 77.012L107.625 73.2576C107.625 73.2576 108.66 72.9924 108.83 74.2976C108.892 75.2896 108.761 76.2846 108.446 77.22L109.156 79.8824C109.156 79.8824 109.389 80.1684 109.608 79.0608C109.826 77.9532 109.447 69.7424 109.442 69.1808C109.438 68.6192 109.481 67.2724 110.264 67.3972C111.046 67.522 111.294 68.64 111.294 69.2068C111.294 69.7736 111.868 75.2856 111.868 75.2856C111.868 75.2856 112.052 75.7796 112.237 75.7068C112.422 75.634 112.072 69.7944 112.038 68.874C112.004 67.9536 111.809 65.9048 112.82 65.9048C113.831 65.9048 113.831 66.9448 113.889 68.0576C113.948 69.1704 114.604 75.5092 114.604 75.5092C114.604 75.5092 114.759 75.9044 114.905 75.374C115.051 74.8436 115.231 67.9692 115.342 67.6468C115.454 67.3244 116.047 66.898 116.504 67.678C116.961 68.458 116.854 70.278 116.791 73.476C116.732 76.362 116.65 77.558 116.956 77.7868C117.262 78.0156 118.414 76.2268 118.414 76.2268C118.414 76.2268 119.794 72.4204 120.965 72.5556C122.137 72.6908 121.349 73.6632 121.15 74.5472C120.98 75.296 118.934 79.7472 118.89 79.8044C118.847 79.8616 116.834 87.7916 116.834 87.7916L121.277 96.876C122.063 98.4559 122.364 100.261 122.137 102.034C121.869 103.974 120.941 106.137 118.283 107.021C116.339 107.676 114.881 106.74 113.909 105.638C113.086 104.661 112.541 103.452 112.339 102.154C111.77 98.6492 109.856 88.0672 109.856 88.0672L109.865 88.0776Z" fill="#967262"/>
<path d="M113.17 84.0736C113.126 84.0736 113.17 83.6472 113.063 83.0024C112.919 82.1604 112.543 81.3837 111.984 80.7716C111.542 80.2729 110.954 79.9517 110.317 79.8616C109.92 79.8112 109.518 79.9085 109.18 80.1372L109.132 80.1684V80.1216C109.068 79.976 109.039 79.8928 109.054 79.8876C109.068 79.8824 109.117 79.9396 109.209 80.0748H109.141C109.307 79.9224 109.499 79.8071 109.707 79.7356C109.915 79.6641 110.134 79.638 110.351 79.6588C111.049 79.7169 111.702 80.0505 112.184 80.5948C112.781 81.2423 113.16 82.0836 113.262 82.9868C113.318 83.3516 113.286 83.7253 113.17 84.0736Z" fill="#77574A"/>
<path d="M115.965 79.856C116.008 79.9236 115.561 80.3344 115.124 80.9428C114.888 81.3398 114.628 81.7202 114.346 82.0816C114.448 81.6066 114.645 81.1611 114.925 80.7766C115.204 80.3921 115.559 80.0778 115.965 79.856Z" fill="#77574A"/>
<path d="M71.0582 129.532C71.1201 131.85 71.9623 134.066 73.4299 135.772C74.5181 137.034 75.6665 138.235 76.8708 139.371L85.2397 143.385C85.2397 143.385 87.4218 143.739 89.6137 141.456C90.3153 140.799 90.8927 140.005 91.3147 139.116C91.3147 139.116 93.8225 140.317 94.8042 140.27C96.4566 140.192 96.1941 138.944 96.1941 138.944C96.1941 138.944 90.6683 135.689 89.3561 134.431C88.0439 133.172 84.2628 132.351 81.5801 132.72L80.0249 132.392L79.4611 130.156C79.4611 130.156 76.4285 125.325 73.6291 127.036C70.8298 128.747 71.0582 129.532 71.0582 129.532Z" fill="#967262"/>
</svg>
