<svg width="43" height="43" viewBox="0 0 43 43" fill="none" xmlns="http://www.w3.org/2000/svg">
<rect width="43" height="43" rx="3.95402" fill="#101425"/>
<path fill-rule="evenodd" clip-rule="evenodd" d="M10.3794 32.6208H13.2593V11.0815H10.3794V32.6208Z" fill="white"/>
<path fill-rule="evenodd" clip-rule="evenodd" d="M14.3228 21.6455L15.5336 22.8563L16.7445 21.6455L15.5336 20.4346L14.3228 21.6455Z" fill="white"/>
<path d="M28.6376 10.8735C30.5853 10.8735 31.6711 11.8379 31.8942 13.7668C31.9471 14.2239 31.6048 14.6189 31.1508 14.6945L30.1537 14.8607C29.5799 14.9563 29.125 14.4638 28.8092 13.9752C28.5974 13.6474 28.2501 13.4835 27.7675 13.4835L22.9977 13.4644H21.1582V29.7955H31.9375C31.9375 31.241 30.7657 32.4128 29.3202 32.4128H21.1582H18.2783V10.8735H28.6376Z" fill="white"/>
</svg>
