<svg width="21" height="17" viewBox="0 0 21 17" fill="none" xmlns="http://www.w3.org/2000/svg">
<path d="M18.8438 0.799805H2.35938C1.39133 0.799805 0.601562 1.58871 0.601562 2.55762V14.2764C0.601562 15.242 1.38781 16.0342 2.35938 16.0342H18.8438C19.8094 16.0342 20.6016 15.2479 20.6016 14.2764V2.55762C20.6016 1.59199 19.8153 0.799805 18.8438 0.799805ZM18.601 1.97168L10.6388 9.93391L2.60777 1.97168H18.601ZM1.77344 14.0337V2.79469L7.41715 8.39L1.77344 14.0337ZM2.60207 14.8623L8.24934 9.21504L10.2281 11.1768C10.4572 11.4039 10.8268 11.4032 11.055 11.175L12.9844 9.24563L18.6011 14.8623H2.60207ZM19.4297 14.0337L13.813 8.41699L19.4297 2.80027V14.0337Z" fill="#333333"/>
</svg>
