<svg width="260" height="260" viewBox="0 0 260 260" fill="none" xmlns="http://www.w3.org/2000/svg">
<path d="M260 198.848H0V198.978H260V198.848Z" fill="#EBEBEB"/>
<path d="M233.948 207.215H216.726V207.345H233.948V207.215Z" fill="#EBEBEB"/>
<path d="M172.234 208.629H167.716V208.759H172.234V208.629Z" fill="#EBEBEB"/>
<path d="M216.206 202.389H206.227V202.519H216.206V202.389Z" fill="#EBEBEB"/>
<path d="M49.7381 203.263H27.2793V203.393H49.7381V203.263Z" fill="#EBEBEB"/>
<path d="M57.6627 203.263H54.3711V203.393H57.6627V203.263Z" fill="#EBEBEB"/>
<path d="M117.078 205.457H68.3645V205.587H117.078V205.457Z" fill="#EBEBEB"/>
<path d="M123.24 175.656H22.8331C22.0466 175.655 21.2927 175.341 20.737 174.785C20.1813 174.228 19.8691 173.473 19.8691 172.687V31.5433C19.876 30.7612 20.1911 30.0134 20.7461 29.4624C21.3011 28.9113 22.051 28.6014 22.8331 28.6001H123.24C124.027 28.6001 124.783 28.9129 125.339 29.4698C125.896 30.0266 126.209 30.7818 126.209 31.5693V172.687C126.209 173.474 125.896 174.23 125.339 174.786C124.783 175.343 124.027 175.656 123.24 175.656ZM22.8331 28.7041C22.081 28.7055 21.3602 29.0052 20.8289 29.5375C20.2976 30.0698 19.9991 30.7912 19.9991 31.5433V172.687C19.9991 173.439 20.2976 174.16 20.8289 174.693C21.3602 175.225 22.081 175.525 22.8331 175.526H123.24C123.993 175.525 124.714 175.225 125.246 174.693C125.778 174.161 126.078 173.439 126.079 172.687V31.5433C126.078 30.7907 125.778 30.0694 125.246 29.5372C124.714 29.005 123.993 28.7055 123.24 28.7041H22.8331Z" fill="#EBEBEB"/>
<path d="M235.721 175.656H135.309C134.522 175.655 133.768 175.341 133.211 174.785C132.655 174.228 132.341 173.474 132.34 172.687V31.5433C132.348 30.7608 132.665 30.013 133.22 29.462C133.776 28.9111 134.527 28.6014 135.309 28.6001H235.721C236.502 28.6028 237.251 28.9133 237.805 29.4642C238.359 30.0151 238.673 30.7621 238.68 31.5433V172.687C238.68 173.473 238.369 174.226 237.814 174.783C237.26 175.339 236.507 175.653 235.721 175.656ZM135.309 28.7041C134.557 28.7055 133.835 29.005 133.303 29.5372C132.771 30.0694 132.471 30.7907 132.47 31.5433V172.687C132.471 173.439 132.771 174.161 133.303 174.693C133.835 175.225 134.557 175.525 135.309 175.526H235.721C236.474 175.525 237.195 175.225 237.727 174.693C238.26 174.161 238.559 173.439 238.56 172.687V31.5433C238.559 30.7907 238.26 30.0694 237.727 29.5372C237.195 29.005 236.474 28.7055 235.721 28.7041H135.309Z" fill="#EBEBEB"/>
<path d="M150.639 90.5112L222.284 90.5112V43.5916L150.639 43.5916V90.5112Z" fill="#E6E6E6"/>
<path d="M148.45 90.5112L221.26 90.5112V43.5916L148.45 43.5916V90.5112Z" fill="#F0F0F0"/>
<path d="M150.639 99.7153L222.284 99.7153V90.5061L150.639 90.5061V99.7153Z" fill="#E6E6E6"/>
<path d="M144.815 99.7153L217.625 99.7153V90.5061L144.815 90.5061V99.7153Z" fill="#F0F0F0"/>
<path d="M218.202 87.4538V46.6545L151.512 46.6545V87.4538H218.202Z" fill="#FAFAFA"/>
<path d="M203.164 87.4485L194.646 46.6545H181.355L189.873 87.4485H203.164Z" fill="white"/>
<path d="M216.788 84.4066C216.817 84.4066 216.846 84.4008 216.873 84.3895C216.9 84.3782 216.924 84.3616 216.944 84.3408C216.965 84.32 216.981 84.2953 216.991 84.2682C217.002 84.2411 217.007 84.2121 217.006 84.183V48.6462C217.006 48.5883 216.983 48.5327 216.942 48.4918C216.902 48.4508 216.846 48.4278 216.788 48.4278C216.759 48.4271 216.73 48.4322 216.704 48.443C216.677 48.4537 216.652 48.4698 216.632 48.4902C216.612 48.5106 216.596 48.535 216.585 48.5618C216.574 48.5886 216.569 48.6173 216.57 48.6462V84.183C216.569 84.2121 216.574 84.2411 216.585 84.2682C216.595 84.2953 216.611 84.32 216.632 84.3408C216.652 84.3616 216.676 84.3782 216.703 84.3895C216.73 84.4008 216.759 84.4066 216.788 84.4066Z" fill="#F0F0F0"/>
<path d="M187.018 87.4485L178.5 46.6545H173.316L181.839 87.4485H187.018Z" fill="white"/>
<path d="M151.902 87.4537V46.6545H151.512V87.4537H151.902Z" fill="#E6E6E6"/>
<path opacity="0.6" d="M147.732 51.2669H219.378L219.658 47.8401H148.013L147.732 51.2669Z" fill="#EBEBEB"/>
<path opacity="0.6" d="M147.732 56.8828H219.378L219.658 53.4612H148.013L147.732 56.8828Z" fill="#EBEBEB"/>
<path opacity="0.6" d="M147.732 62.4987H219.378L219.658 59.0771H148.013L147.732 62.4987Z" fill="#EBEBEB"/>
<path opacity="0.6" d="M147.732 68.1201H219.378L219.658 64.6934H148.013L147.732 68.1201Z" fill="#EBEBEB"/>
<path opacity="0.6" d="M147.732 73.7361H219.378L219.658 70.3093H148.013L147.732 73.7361Z" fill="#EBEBEB"/>
<path opacity="0.6" d="M147.732 79.3521H219.378L219.658 75.9253H148.013L147.732 79.3521Z" fill="#EBEBEB"/>
<path d="M211.999 164.726H196.976V167.69H211.999V164.726Z" fill="#E6E6E6"/>
<path d="M168.641 198.848H171.413V130.692H168.641V198.848Z" fill="#E6E6E6"/>
<path d="M159.032 167.69H196.971V164.726H159.032V167.69Z" fill="#F5F5F5"/>
<path d="M211.999 180.934H196.976V183.898H211.999V180.934Z" fill="#E6E6E6"/>
<path d="M159.032 183.893H196.971V180.929H159.032V183.893Z" fill="#F5F5F5"/>
<path d="M211.999 132.314H196.976V135.278H211.999V132.314Z" fill="#E6E6E6"/>
<path d="M159.032 135.273H196.971V132.309H159.032V135.273Z" fill="#F5F5F5"/>
<path d="M211.999 148.517H196.976V151.481H211.999V148.517Z" fill="#E6E6E6"/>
<path d="M159.032 151.481H196.971V148.517H159.032V151.481Z" fill="#F5F5F5"/>
<path d="M206.586 198.848H209.357V130.692H206.586V198.848Z" fill="#E6E6E6"/>
<path d="M194.199 198.848H196.971V130.692H194.199V198.848Z" fill="#F5F5F5"/>
<path d="M159.032 198.848H161.803V130.692H159.032V198.848Z" fill="#F5F5F5"/>
<path d="M33.9976 198.848H62.3792L62.3792 143.785H33.9976L33.9976 198.848Z" fill="#E6E6E6"/>
<path d="M41.574 198.848H33.9924V191.246H49.5196L41.574 198.848Z" fill="#FAFAFA"/>
<path d="M111.374 198.848H139.755V143.785H111.374V198.848Z" fill="#E6E6E6"/>
<path d="M33.9976 196.227H117.993V143.78H33.9976V196.227Z" fill="#FAFAFA"/>
<path d="M110.412 198.848H117.988V191.246H102.466L110.412 198.848Z" fill="#FAFAFA"/>
<path d="M39.8737 176.452H112.112V163.327H39.8737V176.452Z" fill="#F0F0F0"/>
<path d="M39.8737 192.379H112.112V179.255H39.8737V192.379Z" fill="#F0F0F0"/>
<path d="M98.3841 164.731H53.6069C52.9753 164.731 52.3695 164.48 51.9228 164.033C51.4762 163.587 51.2253 162.981 51.2253 162.349V162.188H100.76V162.349C100.76 162.98 100.51 163.585 100.065 164.032C99.6193 164.478 99.0148 164.73 98.3841 164.731Z" fill="#FAFAFA"/>
<path d="M39.8737 160.519H112.112V147.394H39.8737V160.519Z" fill="#F0F0F0"/>
<path d="M98.3841 148.798H53.6069C52.9753 148.798 52.3695 148.547 51.9228 148.101C51.4762 147.654 51.2253 147.048 51.2253 146.416V146.255H100.76V146.416C100.76 147.047 100.51 147.652 100.065 148.099C99.6193 148.545 99.0148 148.797 98.3841 148.798Z" fill="#FAFAFA"/>
<path d="M98.3841 180.664H53.6069C52.9753 180.664 52.3695 180.413 51.9228 179.966C51.4762 179.519 51.2253 178.914 51.2253 178.282V178.121H100.76V178.282C100.76 178.913 100.51 179.518 100.065 179.964C99.6193 180.411 99.0148 180.662 98.3841 180.664Z" fill="#FAFAFA"/>
<path d="M38.5165 90.5112L110.162 90.5112V43.5916L38.5165 43.5916V90.5112Z" fill="#E6E6E6"/>
<path d="M36.3324 90.5112L109.143 90.5112V43.5916L36.3324 43.5916V90.5112Z" fill="#F0F0F0"/>
<path d="M38.5165 99.7153L110.162 99.7153V90.5061L38.5165 90.5061V99.7153Z" fill="#E6E6E6"/>
<path d="M32.6872 99.7153L105.498 99.7153V90.5061L32.6872 90.5061V99.7153Z" fill="#F0F0F0"/>
<path d="M106.08 87.4537V46.6545L39.3901 46.6545V87.4537H106.08Z" fill="#FAFAFA"/>
<path d="M91.0417 87.4485L82.5241 46.6545H69.2329L77.7505 87.4485H91.0417Z" fill="white"/>
<path d="M104.66 84.4066C104.689 84.4066 104.718 84.4008 104.745 84.3895C104.772 84.3782 104.796 84.3616 104.817 84.3408C104.837 84.32 104.853 84.2953 104.864 84.2682C104.874 84.2411 104.879 84.2121 104.879 84.183V48.6462C104.879 48.6173 104.874 48.5886 104.864 48.5618C104.853 48.535 104.837 48.5106 104.816 48.4902C104.796 48.4698 104.772 48.4537 104.745 48.443C104.718 48.4322 104.689 48.4271 104.66 48.4278C104.602 48.4278 104.547 48.4508 104.506 48.4918C104.465 48.5327 104.442 48.5883 104.442 48.6462V84.183C104.441 84.2121 104.446 84.2411 104.457 84.2682C104.468 84.2953 104.484 84.32 104.504 84.3408C104.524 84.3616 104.549 84.3782 104.576 84.3895C104.602 84.4008 104.631 84.4066 104.66 84.4066Z" fill="#F0F0F0"/>
<path d="M74.8956 87.4485L66.378 46.6545H61.1936L69.7112 87.4485H74.8956Z" fill="white"/>
<path d="M39.78 87.4537V46.6545H39.39V87.4537H39.78Z" fill="#E6E6E6"/>
<path opacity="0.6" d="M35.6045 51.2669H107.25L107.531 47.8401H35.8853L35.6045 51.2669Z" fill="#EBEBEB"/>
<path opacity="0.6" d="M35.6045 53.2012H107.25L107.531 49.7744H35.8853L35.6045 53.2012Z" fill="#EBEBEB"/>
<path opacity="0.6" d="M35.6045 55.1306H107.25L107.531 51.709H35.8853L35.6045 55.1306Z" fill="#EBEBEB"/>
<path opacity="0.6" d="M35.6045 57.065H107.25L107.531 53.6382H35.8853L35.6045 57.065Z" fill="#EBEBEB"/>
<path opacity="0.6" d="M35.6045 58.9941H107.25L107.531 55.5725H35.8853L35.6045 58.9941Z" fill="#EBEBEB"/>
<path opacity="0.6" d="M35.6045 60.9285H107.25L107.531 57.5017H35.8853L35.6045 60.9285Z" fill="#EBEBEB"/>
<path d="M49.9303 142.101H52.4055V114.494H49.9303V142.101Z" fill="#F5F5F5"/>
<path d="M50.2423 142.085H50.9443V114.478H50.2423V142.085Z" fill="#FAFAFA"/>
<path d="M51.2356 142.085H51.5112V114.478H51.2356V142.085Z" fill="#FAFAFA"/>
<path d="M60.3357 143.785H42.0109C42.0109 143.173 42.2541 142.586 42.6871 142.153C43.1201 141.72 43.7074 141.477 44.3197 141.477H58.0217C58.634 141.477 59.2213 141.72 59.6543 142.153C60.0872 142.586 60.3305 143.173 60.3305 143.785H60.3357Z" fill="#F0F0F0"/>
<path d="M46.7169 131.633C46.9054 131.632 47.0858 131.556 47.2191 131.423C47.3524 131.289 47.4279 131.109 47.4293 130.921V112.84C47.4293 112.651 47.3542 112.47 47.2206 112.336C47.087 112.203 46.9058 112.128 46.7169 112.128C46.6229 112.127 46.5297 112.145 46.4426 112.18C46.3556 112.216 46.2765 112.268 46.2098 112.335C46.1431 112.401 46.0901 112.479 46.054 112.566C46.0179 112.653 45.9993 112.746 45.9993 112.84V130.941C46.006 131.127 46.0846 131.303 46.2184 131.432C46.3523 131.561 46.531 131.633 46.7169 131.633Z" fill="#F0F0F0"/>
<path d="M40.0764 121.056H62.2544L59.7012 105.56H42.6296L40.0764 121.056Z" fill="#E0E0E0"/>
<path d="M130 222.331C185.683 222.331 230.823 219.696 230.823 216.445C230.823 213.194 185.683 210.558 130 210.558C74.3171 210.558 29.1772 213.194 29.1772 216.445C29.1772 219.696 74.3171 222.331 130 222.331Z" fill="#F5F5F5"/>
<path d="M54.1417 105.227L53.623 105.264L54.3138 114.854L54.8325 114.817L54.1417 105.227Z" fill="#006AFF"/>
<path d="M55.1849 119.767L54.6663 119.805L54.9263 123.415L55.4449 123.377L55.1849 119.767Z" fill="#006AFF"/>
<path d="M175.609 163.883H64.2461C63.0064 163.861 61.819 163.38 60.9126 162.535C60.0061 161.689 59.445 160.537 59.3373 159.302L53.8669 83.3144C53.816 82.7283 53.8884 82.1381 54.0795 81.5818C54.2706 81.0255 54.5761 80.5153 54.9763 80.0842C55.3765 79.6532 55.8626 79.3107 56.4032 79.0789C56.9439 78.8471 57.5271 78.7311 58.1153 78.7384H169.478C170.717 78.7605 171.904 79.2402 172.81 80.0851C173.717 80.9299 174.278 82.0802 174.387 83.3144L179.858 159.302C179.909 159.888 179.836 160.479 179.645 161.035C179.454 161.592 179.149 162.102 178.748 162.534C178.348 162.965 177.862 163.308 177.322 163.541C176.781 163.773 176.198 163.89 175.609 163.883Z" fill="#006AFF"/>
<path d="M176.036 163.883H64.6723C63.4327 163.861 62.2452 163.38 61.3388 162.535C60.4324 161.689 59.8712 160.537 59.7635 159.302L54.2931 83.3144C54.2423 82.7283 54.3147 82.1381 54.5058 81.5818C54.6968 81.0255 55.0023 80.5153 55.4026 80.0842C55.8028 79.6532 56.2889 79.3107 56.8295 79.0789C57.3701 78.8471 57.9533 78.7311 58.5415 78.7384H169.905C171.144 78.7605 172.33 79.2402 173.237 80.0851C174.143 80.9299 174.705 82.0802 174.814 83.3144L180.284 159.302C180.336 159.888 180.264 160.479 180.073 161.036C179.882 161.593 179.577 162.104 179.177 162.536C178.776 162.967 178.29 163.31 177.749 163.542C177.208 163.774 176.624 163.891 176.036 163.883Z" fill="#006AFF"/>
<path opacity="0.5" d="M176.036 163.883H64.6723C63.4327 163.861 62.2452 163.38 61.3388 162.535C60.4324 161.689 59.8712 160.537 59.7635 159.302L54.2931 83.3144C54.2423 82.7283 54.3147 82.1381 54.5058 81.5818C54.6968 81.0255 55.0023 80.5153 55.4026 80.0842C55.8028 79.6532 56.2889 79.3107 56.8295 79.0789C57.3701 78.8471 57.9533 78.7311 58.5415 78.7384H169.905C171.144 78.7605 172.33 79.2402 173.237 80.0851C174.143 80.9299 174.705 82.0802 174.814 83.3144L180.284 159.302C180.336 159.888 180.264 160.479 180.073 161.036C179.882 161.593 179.577 162.104 179.177 162.536C178.776 162.967 178.29 163.31 177.749 163.542C177.208 163.774 176.624 163.891 176.036 163.883Z" fill="white"/>
<path d="M170.071 81.0264H58.708H58.3336C55.4892 81.2604 56.0716 85.592 58.942 85.592H170.492C173.368 85.592 173.326 81.2604 170.446 81.0264H170.071Z" fill="#006AFF"/>
<path d="M61.6096 83.3143C61.6205 83.4483 61.6032 83.5832 61.5588 83.7101C61.5144 83.8371 61.4438 83.9533 61.3517 84.0513C61.2596 84.1493 61.1479 84.2269 61.024 84.2791C60.9 84.3313 60.7665 84.3569 60.632 84.3543C60.3494 84.3503 60.0782 84.2418 59.8708 84.0498C59.6634 83.8578 59.5345 83.5958 59.5088 83.3143C59.4979 83.1807 59.5151 83.0462 59.5592 82.9196C59.6033 82.7931 59.6734 82.6771 59.7649 82.5792C59.8565 82.4812 59.9675 82.4035 60.0908 82.351C60.2142 82.2985 60.3471 82.2724 60.4812 82.2743C60.7647 82.277 61.0371 82.3848 61.2456 82.577C61.4541 82.7692 61.5838 83.0319 61.6096 83.3143Z" fill="#FAFAFA"/>
<path d="M65.1821 83.3143C65.193 83.4483 65.1757 83.5832 65.1313 83.7101C65.0869 83.8371 65.0163 83.9533 64.9242 84.0513C64.8321 84.1493 64.7205 84.2269 64.5965 84.2791C64.4725 84.3313 64.339 84.3569 64.2045 84.3543C63.9219 84.3503 63.6507 84.2418 63.4433 84.0498C63.2359 83.8578 63.107 83.5958 63.0813 83.3143C63.0704 83.1807 63.0876 83.0462 63.1317 82.9196C63.1758 82.7931 63.2459 82.6771 63.3374 82.5792C63.429 82.4812 63.54 82.4035 63.6634 82.351C63.7867 82.2985 63.9197 82.2724 64.0537 82.2743C64.3372 82.277 64.6097 82.3848 64.8181 82.577C65.0266 82.7692 65.1563 83.0319 65.1821 83.3143Z" fill="#FAFAFA"/>
<path d="M68.7492 83.3144C68.76 83.448 68.7429 83.5824 68.6988 83.709C68.6547 83.8356 68.5846 83.9516 68.493 84.0495C68.4015 84.1474 68.2904 84.2251 68.1671 84.2776C68.0437 84.3301 67.9108 84.3562 67.7767 84.3544C67.4938 84.3515 67.222 84.2435 67.0144 84.0512C66.8067 83.859 66.6781 83.5963 66.6535 83.3144C66.6418 83.1806 66.6584 83.0458 66.7022 82.9189C66.746 82.7919 66.8161 82.6756 66.9078 82.5775C66.9995 82.4794 67.1109 82.4017 67.2346 82.3495C67.3583 82.2973 67.4917 82.2717 67.6259 82.2744C67.9086 82.2783 68.1797 82.3868 68.3871 82.5788C68.5945 82.7709 68.7235 83.0329 68.7492 83.3144Z" fill="#FAFAFA"/>
<path d="M173.082 156.301H66.5601C66.1101 156.294 65.6789 156.12 65.3503 155.812C65.0217 155.505 64.819 155.086 64.7817 154.637L60.2837 92.1491C60.2637 91.9346 60.2895 91.7184 60.3594 91.5147C60.4294 91.311 60.5419 91.1246 60.6894 90.9677C60.8369 90.8108 61.0162 90.6871 61.2152 90.6048C61.4142 90.5225 61.6284 90.4834 61.8437 90.4903H168.392C168.841 90.4965 169.272 90.6697 169.601 90.9764C169.93 91.283 170.133 91.7011 170.17 92.1491L174.673 154.637C174.693 154.855 174.666 155.073 174.594 155.279C174.521 155.485 174.406 155.673 174.256 155.831C174.105 155.988 173.922 156.112 173.72 156.193C173.517 156.274 173.3 156.311 173.082 156.301Z" fill="white"/>
<path d="M128.196 132.496L126.459 108.41L121.207 105.248H106.746L108.711 132.496H128.196Z" fill="white"/>
<path d="M128.196 132.746H108.711C108.647 132.747 108.584 132.723 108.537 132.68C108.489 132.636 108.46 132.576 108.456 132.512L106.496 105.264C106.494 105.229 106.498 105.195 106.51 105.163C106.522 105.131 106.54 105.101 106.564 105.076C106.587 105.051 106.615 105.03 106.646 105.016C106.677 105.001 106.711 104.994 106.746 104.993H121.207C121.252 104.995 121.297 105.007 121.337 105.03L126.589 108.191C126.624 108.211 126.654 108.24 126.676 108.274C126.698 108.309 126.71 108.348 126.714 108.389L128.44 132.475C128.444 132.51 128.439 132.546 128.428 132.579C128.416 132.612 128.397 132.642 128.372 132.668C128.35 132.692 128.322 132.711 128.292 132.725C128.262 132.738 128.229 132.745 128.196 132.746ZM108.956 132.226H127.92L126.214 108.54L121.16 105.498H107.016L108.956 132.226Z" fill="#006AFF"/>
<path d="M126.459 108.41L121.207 105.248L123.136 109.439L126.459 108.41Z" fill="#EBEBEB"/>
<path d="M123.136 109.689C123.088 109.688 123.041 109.675 123.001 109.649C122.96 109.623 122.928 109.586 122.907 109.543L120.978 105.352C120.956 105.303 120.949 105.248 120.959 105.195C120.97 105.141 120.996 105.093 121.035 105.056C121.077 105.02 121.128 104.999 121.182 104.994C121.236 104.989 121.29 105.002 121.337 105.03L126.589 108.191C126.631 108.217 126.666 108.254 126.688 108.298C126.71 108.342 126.719 108.392 126.714 108.441C126.707 108.489 126.687 108.534 126.656 108.57C126.624 108.607 126.583 108.634 126.537 108.649L123.209 109.689H123.136ZM121.779 105.882L123.271 109.132L125.871 108.337L121.779 105.882Z" fill="#006AFF"/>
<path d="M114.92 117.52C114.928 117.661 114.907 117.803 114.858 117.936C114.809 118.068 114.734 118.19 114.636 118.293C114.539 118.395 114.422 118.477 114.292 118.533C114.162 118.589 114.022 118.617 113.88 118.617C113.583 118.612 113.299 118.497 113.082 118.294C112.865 118.092 112.731 117.816 112.705 117.52C112.691 117.377 112.709 117.233 112.755 117.098C112.802 116.962 112.877 116.838 112.975 116.734C113.074 116.629 113.193 116.547 113.326 116.493C113.459 116.438 113.602 116.413 113.745 116.418C114.042 116.424 114.327 116.54 114.543 116.744C114.76 116.947 114.894 117.224 114.92 117.52Z" fill="#006AFF"/>
<path d="M122.044 117.52C122.057 117.662 122.039 117.806 121.992 117.941C121.945 118.076 121.87 118.199 121.771 118.303C121.673 118.407 121.554 118.488 121.421 118.542C121.289 118.597 121.147 118.622 121.004 118.617C120.707 118.612 120.422 118.497 120.204 118.294C119.986 118.092 119.851 117.816 119.824 117.52C119.815 117.378 119.836 117.236 119.884 117.103C119.933 116.969 120.008 116.847 120.105 116.744C120.203 116.641 120.32 116.558 120.451 116.502C120.581 116.446 120.722 116.417 120.864 116.417C121.162 116.422 121.449 116.537 121.667 116.741C121.885 116.944 122.02 117.222 122.044 117.52Z" fill="#006AFF"/>
<path d="M124.062 124.665C123.998 124.664 123.938 124.639 123.892 124.596C123.846 124.553 123.817 124.494 123.812 124.431C123.682 122.657 120.905 121.217 117.624 121.217C115.445 121.217 113.49 121.867 112.523 122.907C112.324 123.099 112.168 123.33 112.066 123.587C111.964 123.843 111.918 124.118 111.93 124.394C111.932 124.428 111.928 124.463 111.917 124.495C111.906 124.528 111.889 124.558 111.867 124.583C111.821 124.636 111.757 124.668 111.688 124.672C111.619 124.677 111.551 124.655 111.499 124.609C111.447 124.564 111.415 124.5 111.41 124.431C111.394 124.086 111.451 123.742 111.577 123.42C111.702 123.099 111.893 122.807 112.138 122.564C113.178 121.425 115.294 120.713 117.608 120.713C121.212 120.713 124.15 122.33 124.296 124.394C124.298 124.427 124.293 124.46 124.283 124.491C124.272 124.522 124.255 124.551 124.234 124.575C124.212 124.6 124.186 124.62 124.156 124.635C124.126 124.649 124.094 124.657 124.062 124.659V124.665Z" fill="#006AFF"/>
<path d="M110.848 115.294C110.785 115.293 110.724 115.269 110.677 115.227C110.63 115.179 110.603 115.114 110.603 115.047C110.603 114.98 110.63 114.916 110.677 114.868L111.784 113.677C111.832 113.631 111.895 113.606 111.961 113.606C112.027 113.606 112.091 113.631 112.138 113.677C112.161 113.7 112.18 113.728 112.192 113.758C112.205 113.788 112.212 113.821 112.212 113.854C112.212 113.887 112.205 113.919 112.192 113.95C112.18 113.98 112.161 114.007 112.138 114.031L111.03 115.221C111.007 115.245 110.978 115.264 110.947 115.276C110.916 115.289 110.882 115.295 110.848 115.294Z" fill="#006AFF"/>
<path d="M123.542 115.294C123.479 115.291 123.418 115.268 123.37 115.227L122.096 114.036C122.072 114.013 122.053 113.985 122.04 113.954C122.027 113.923 122.02 113.89 122.02 113.856C122.02 113.823 122.027 113.79 122.04 113.759C122.053 113.728 122.072 113.7 122.096 113.677C122.144 113.631 122.207 113.606 122.273 113.606C122.339 113.606 122.402 113.631 122.45 113.677L123.724 114.868C123.747 114.891 123.765 114.919 123.778 114.949C123.791 114.979 123.797 115.012 123.797 115.045C123.797 115.078 123.791 115.11 123.778 115.14C123.765 115.171 123.747 115.198 123.724 115.221C123.674 115.268 123.609 115.294 123.542 115.294Z" fill="#006AFF"/>
<path d="M105.175 137.878H106.35L108.046 140.135L107.884 137.878H109.07L109.361 141.955H108.16L106.475 139.714L106.637 141.955H105.451L105.175 137.878Z" fill="#006AFF"/>
<path d="M109.892 139.916C109.851 139.64 109.871 139.357 109.948 139.088C110.025 138.819 110.158 138.57 110.339 138.356C110.536 138.162 110.773 138.012 111.033 137.916C111.293 137.82 111.57 137.781 111.847 137.8C112.433 137.768 113.008 137.964 113.454 138.346C113.861 138.752 114.098 139.299 114.114 139.875C114.157 140.272 114.103 140.673 113.958 141.045C113.823 141.344 113.598 141.593 113.313 141.757C112.972 141.94 112.587 142.028 112.2 142.012C111.803 142.025 111.407 141.95 111.041 141.794C110.72 141.64 110.45 141.398 110.261 141.097C110.038 140.742 109.91 140.335 109.892 139.916ZM111.155 139.916C111.15 140.235 111.253 140.547 111.446 140.8C111.528 140.89 111.627 140.96 111.739 141.007C111.85 141.054 111.97 141.076 112.091 141.071C112.206 141.079 112.322 141.059 112.428 141.013C112.534 140.967 112.627 140.896 112.7 140.806C112.849 140.522 112.898 140.196 112.84 139.88C112.842 139.574 112.739 139.277 112.549 139.038C112.465 138.95 112.364 138.881 112.252 138.835C112.14 138.789 112.02 138.768 111.899 138.772C111.786 138.767 111.673 138.789 111.57 138.836C111.467 138.883 111.376 138.954 111.306 139.043C111.154 139.311 111.1 139.624 111.155 139.927V139.916Z" fill="#006AFF"/>
<path d="M116.558 137.878H118.43C118.739 137.868 119.046 137.919 119.335 138.029C119.563 138.124 119.766 138.272 119.928 138.46C120.091 138.651 120.217 138.872 120.297 139.11C120.381 139.366 120.434 139.632 120.453 139.901C120.493 140.241 120.466 140.585 120.375 140.915C120.303 141.143 120.176 141.35 120.006 141.518C119.863 141.669 119.684 141.78 119.486 141.84C119.244 141.91 118.994 141.949 118.742 141.955H116.875L116.558 137.878ZM117.884 138.803L118.045 141.029H118.352C118.542 141.041 118.732 141.011 118.909 140.941C119.025 140.873 119.111 140.763 119.148 140.634C119.207 140.403 119.221 140.163 119.189 139.927C119.199 139.609 119.102 139.298 118.914 139.043C118.817 138.955 118.704 138.889 118.58 138.848C118.456 138.807 118.326 138.792 118.196 138.803H117.884Z" fill="#006AFF"/>
<path d="M123.474 141.279H122.044L121.893 141.955H120.609L121.846 137.878H123.24L125.065 141.955H123.744L123.474 141.279ZM123.146 140.4L122.595 138.934L122.252 140.4H123.146Z" fill="#006AFF"/>
<path d="M124.472 137.878H128.3L128.372 138.887H127.088L127.306 141.955H126.048L125.83 138.887H124.545L124.472 137.878Z" fill="#006AFF"/>
<path d="M131.232 141.279H129.802L129.652 141.955H128.367L129.605 137.878H130.978L132.798 141.955H131.482L131.232 141.279ZM130.905 140.4L130.348 138.934L130 140.4H130.905Z" fill="#006AFF"/>
<path d="M183.919 90.0018C184.382 89.7678 184.959 89.4818 185.448 89.1854C185.936 88.889 186.488 88.603 187.008 88.291C188.022 87.6618 189.051 87.043 190.023 86.3566C191.977 85.0202 193.807 83.5133 195.494 81.8534C195.707 81.6558 195.894 81.4374 196.097 81.2242L196.394 80.907L196.539 80.751L196.612 80.6678C196.539 80.8082 196.612 80.7666 196.612 80.6314C196.658 80.4457 196.684 80.2557 196.69 80.0646C196.678 78.9589 196.551 77.8575 196.31 76.7782C195.847 74.4486 195.146 72.0462 194.454 69.6958L196.471 68.8118C197.745 71.0668 198.808 73.4341 199.649 75.8838C200.121 77.2076 200.421 78.5864 200.543 79.9866C200.575 80.4219 200.561 80.8594 200.501 81.2918C200.424 81.9032 200.207 82.4886 199.867 83.0026L199.779 83.1222L199.711 83.2054L199.633 83.3042L199.472 83.5018L199.15 83.8918C198.936 84.1466 198.728 84.4118 198.5 84.6562C196.721 86.6295 194.737 88.4076 192.582 89.9602C191.542 90.7298 190.44 91.4682 189.311 92.139C188.755 92.477 188.188 92.7994 187.611 93.1166C187.034 93.4338 186.472 93.725 185.806 94.037L183.919 90.0018Z" fill="#FFB573"/>
<path d="M179.291 212.254C179.68 212.244 180.067 212.192 180.445 212.098C180.464 212.092 180.481 212.081 180.495 212.067C180.509 212.052 180.518 212.034 180.523 212.015C180.526 211.995 180.523 211.974 180.514 211.956C180.506 211.938 180.493 211.922 180.476 211.911C180.325 211.812 179.005 210.959 178.495 211.188C178.439 211.214 178.39 211.255 178.354 211.306C178.319 211.357 178.297 211.417 178.292 211.479C178.272 211.577 178.277 211.679 178.307 211.774C178.337 211.87 178.391 211.956 178.464 212.025C178.703 212.199 178.996 212.28 179.291 212.254ZM180.149 211.952C179.395 212.103 178.823 212.077 178.589 211.874C178.542 211.826 178.508 211.767 178.49 211.703C178.471 211.638 178.47 211.57 178.485 211.505C178.487 211.477 178.496 211.451 178.511 211.428C178.527 211.405 178.548 211.387 178.573 211.375C178.849 211.255 179.613 211.64 180.149 211.952Z" fill="#006AFF"/>
<path d="M180.44 212.098H180.492C180.507 212.088 180.52 212.075 180.529 212.06C180.538 212.045 180.543 212.027 180.544 212.009C180.544 211.952 180.544 210.699 180.065 210.283C180.008 210.228 179.939 210.186 179.863 210.162C179.788 210.138 179.707 210.131 179.629 210.142C179.547 210.143 179.467 210.172 179.404 210.224C179.34 210.276 179.297 210.348 179.28 210.428C179.181 210.948 179.972 211.858 180.388 212.098C180.405 212.103 180.423 212.103 180.44 212.098ZM179.696 210.335C179.781 210.335 179.862 210.367 179.925 210.423C180.199 210.828 180.341 211.307 180.331 211.796C179.915 211.463 179.421 210.756 179.483 210.46C179.483 210.413 179.519 210.35 179.649 210.335H179.696Z" fill="#006AFF"/>
<path d="M180.034 76.9966C179.514 79.5966 178.474 84.7966 180.268 86.5386C180.268 86.5386 179.561 89.1386 174.761 89.1386C169.478 89.1386 172.24 86.5386 172.24 86.5386C175.12 85.8522 175.042 83.715 174.543 81.7026L180.034 76.9966Z" fill="#FFB573"/>
<path d="M171.225 87.5784C170.399 87.6928 171.106 85.5452 171.439 85.3216C172.219 84.8016 182.286 84.0788 182.218 85.3216C182.177 85.8416 181.927 86.8816 181.49 87.2248C181.053 87.568 178.464 86.4968 171.225 87.5784Z" fill="#263238"/>
<path d="M172.869 86.8401C172.208 87.0637 172.271 84.9005 172.494 84.6405C173.014 84.0373 181.163 81.9469 181.402 83.1273C181.496 83.6473 181.542 84.6873 181.262 85.0565C180.981 85.4257 178.589 84.8173 172.869 86.8401Z" fill="#263238"/>
<path d="M169.837 72.3373C169.804 72.3387 169.772 72.3324 169.742 72.3188C169.712 72.3053 169.686 72.2849 169.665 72.2593C169.507 72.0546 169.302 71.8902 169.068 71.7791C168.834 71.668 168.578 71.6134 168.319 71.6197C168.292 71.6233 168.264 71.6214 168.238 71.6141C168.211 71.6069 168.187 71.5944 168.165 71.5774C168.144 71.5604 168.126 71.5392 168.113 71.5152C168.1 71.4912 168.092 71.4649 168.09 71.4377C168.085 71.3841 168.102 71.3309 168.136 71.2892C168.17 71.2475 168.218 71.2206 168.272 71.2141C168.599 71.1974 168.926 71.26 169.224 71.3968C169.521 71.5335 169.782 71.7402 169.983 71.9993C170.017 72.0415 170.034 72.0957 170.029 72.1502C170.025 72.2047 169.998 72.2551 169.957 72.2905C169.921 72.3158 169.88 72.3319 169.837 72.3373Z" fill="#263238"/>
<path d="M168.828 74.8801C168.592 75.7097 168.242 76.5025 167.788 77.2357C167.979 77.3454 168.191 77.412 168.411 77.4308C168.63 77.4497 168.85 77.4204 169.057 77.3449L168.828 74.8801Z" fill="#FF5652"/>
<path d="M169.083 74.2509C169.12 74.5993 168.958 74.9009 168.73 74.9217C168.501 74.9425 168.288 74.6825 168.256 74.3289C168.225 73.9754 168.381 73.6789 168.605 73.6581C168.828 73.6373 169.047 73.8973 169.083 74.2509Z" fill="#263238"/>
<path d="M168.709 73.6685L167.845 73.5073C167.845 73.5073 168.339 74.1209 168.709 73.6685Z" fill="#263238"/>
<path d="M185.484 211.999H181.126L181.469 201.911H185.827L185.484 211.999Z" fill="#FFB573"/>
<path d="M180.783 211.494H185.676C185.761 211.492 185.843 211.522 185.907 211.576C185.971 211.631 186.013 211.707 186.025 211.791L186.581 215.66C186.592 215.758 186.582 215.857 186.552 215.95C186.522 216.044 186.473 216.13 186.407 216.204C186.341 216.277 186.26 216.335 186.17 216.375C186.08 216.415 185.983 216.435 185.884 216.435C184.179 216.409 183.357 216.305 181.204 216.305C179.878 216.305 177.944 216.445 176.119 216.445C174.294 216.445 174.19 214.635 174.954 214.474C178.365 213.736 178.906 212.727 180.055 211.76C180.26 211.59 180.517 211.496 180.783 211.494Z" fill="#263238"/>
<g opacity="0.2">
<path opacity="0.2" d="M185.827 201.911H181.47L181.293 207.111H185.65L185.827 201.911Z" fill="black"/>
</g>
<path d="M168.152 92.5601C165.486 91.5233 162.874 90.3518 160.326 89.05C157.695 87.7643 155.188 86.2376 152.838 84.4896C152.21 83.9979 151.616 83.4645 151.06 82.8932C150.914 82.7372 150.769 82.5916 150.628 82.4096C150.464 82.2236 150.311 82.0274 150.171 81.822C149.787 81.2634 149.548 80.6185 149.474 79.9448C149.417 79.3062 149.504 78.6629 149.729 78.0624C149.909 77.5798 150.156 77.1248 150.462 76.7104C150.964 76.0236 151.557 75.4078 152.225 74.88C153.403 73.9419 154.675 73.1281 156.021 72.4516C156.666 72.1084 157.321 71.8016 157.986 71.5156C158.652 71.2296 159.307 70.9592 160.02 70.7148L160.94 72.7168C158.673 74.1468 156.322 75.7224 154.596 77.48C154.21 77.8715 153.869 78.306 153.582 78.7748C153.332 79.1856 153.337 79.4924 153.379 79.4664C153.421 79.4404 153.379 79.4664 153.452 79.5184L153.66 79.742C153.738 79.8356 153.847 79.9292 153.946 80.028C154.386 80.4334 154.854 80.8087 155.345 81.1512C156.418 81.9113 157.536 82.6059 158.694 83.2312C159.864 83.8864 161.07 84.5052 162.297 85.098C164.751 86.2732 167.289 87.4016 169.78 88.4312L168.152 92.5601Z" fill="#FFB573"/>
<path d="M162.24 71.3181L162.957 69.7581L159.671 68.6401C159.671 68.6401 158.631 71.7133 159.863 73.1277C160.379 73.0466 160.865 72.8388 161.28 72.523C161.695 72.2071 162.025 71.7931 162.24 71.3181Z" fill="#FFB573"/>
<path d="M162.942 66.3832L160.326 65.624L159.671 68.6192L162.942 69.758V66.3832Z" fill="#FFB573"/>
<path d="M196.742 69.9088L197.121 66.2688L193.752 67.08C193.752 67.08 193.7 70.5016 195.483 71.0424L196.742 69.9088Z" fill="#FFB573"/>
<path d="M195.499 63.7053L193.3 64.7297L193.752 67.0541L197.122 66.2585L195.499 63.7053Z" fill="#FFB573"/>
<path d="M180.721 71.8901C180.882 76.2113 181.038 78.0365 179.088 80.4545C176.15 84.0945 170.809 83.3405 169.364 79.1545C168.064 75.3897 168.022 68.9573 172.057 66.8357C172.945 66.364 173.938 66.1268 174.942 66.1467C175.947 66.1665 176.93 66.4427 177.797 66.949C178.665 67.4553 179.389 68.175 179.901 69.0398C180.413 69.9046 180.695 70.8857 180.721 71.8901Z" fill="#FFB573"/>
<path d="M178.838 80.4493C183.082 78.6137 185.869 74.7293 184.694 68.7077C183.565 62.9305 179.665 62.3585 178.053 63.5545C176.441 64.7505 172.422 62.9669 170.009 64.9949C165.849 68.5153 169.78 72.2749 171.839 74.5473C173.066 77.0745 174.678 82.2433 178.838 80.4493Z" fill="#263238"/>
<path d="M177.076 67.6728C177.593 68.3368 178.294 68.8347 179.091 69.105C179.889 69.3753 180.748 69.4063 181.562 69.194C182.377 68.9817 183.112 68.5355 183.676 67.9104C184.24 67.2853 184.609 66.5088 184.736 65.6766C184.864 64.8444 184.745 63.9931 184.395 63.2276C184.044 62.4621 183.477 61.816 182.764 61.3691C182.05 60.9222 181.221 60.694 180.38 60.7127C179.538 60.7314 178.72 60.9962 178.027 61.4744C177.079 62.1703 176.447 63.2142 176.268 64.3766C176.09 65.5389 176.38 66.7245 177.076 67.6728Z" fill="#006AFF"/>
<path d="M178.178 63.9601C177.57 60.4761 180.861 57.7929 185.271 59.0877C189.68 60.3825 187.351 64.2877 186.441 67.4077C185.531 70.5277 187.912 73.5021 188.9 71.1257C189.888 68.7493 188.224 68.0057 188.224 68.0057C188.224 68.0057 192.904 69.2173 188.557 74.4953C184.21 79.7733 180.274 73.9441 181.34 70.5069C182.203 67.7457 178.755 67.2517 178.178 63.9601Z" fill="#263238"/>
<path d="M173.773 65.2757C171.761 64.2357 168.355 63.3777 166.415 66.6433C165.5 68.2033 165.854 70.2833 165.854 70.2833L171.777 70.6733L173.773 65.2757Z" fill="#263238"/>
<path d="M165.157 69.2536C165.122 69.251 165.09 69.2348 165.066 69.2086C165.043 69.1824 165.031 69.1482 165.032 69.1132C165.032 69.0248 165.183 66.9344 166.447 65.624C169.499 62.452 173.077 65.104 174.096 65.962C174.118 65.9852 174.131 66.0157 174.131 66.0476C174.132 66.0795 174.121 66.1107 174.101 66.1351C174.08 66.1595 174.052 66.1755 174.02 66.18C173.988 66.1846 173.956 66.1773 173.93 66.1596C172.947 65.3172 169.525 62.7952 166.65 65.8008C165.454 67.0436 165.308 69.108 165.308 69.1288C165.307 69.1474 165.303 69.1656 165.295 69.1822C165.287 69.1989 165.275 69.2136 165.261 69.2255C165.247 69.2373 165.23 69.2459 165.212 69.2508C165.194 69.2556 165.175 69.2566 165.157 69.2536Z" fill="#263238"/>
<path d="M172.562 74.36C172.539 75.1781 172.236 75.9635 171.704 76.5856C170.986 77.428 170.144 77.012 169.972 76.0656C169.801 75.2284 169.972 73.7776 170.877 73.2732C171.782 72.7688 172.572 73.4136 172.562 74.36Z" fill="#FFB573"/>
<path d="M171.626 113.942C171.626 113.942 171.907 144.18 174.528 161.028C176.649 174.637 180.565 206.107 180.565 206.107H186.508C186.508 206.107 187.086 175.724 185.988 162.266C183.269 128.206 190.294 121.836 184.626 113.942H171.626Z" fill="#263238"/>
<path opacity="0.1" d="M171.626 113.942C171.626 113.942 171.907 144.18 174.528 161.028C176.649 174.637 180.565 206.107 180.565 206.107H186.508C186.508 206.107 187.086 175.724 185.988 162.266C183.269 128.206 190.294 121.836 184.626 113.942H171.626Z" fill="white"/>
<path opacity="0.3" d="M174.751 127.66C176.831 136.786 175.172 151.159 174.033 157.487C172.827 147.878 172.219 135.424 171.917 126.287C172.993 124.55 174.013 124.436 174.751 127.66Z" fill="black"/>
<path d="M179.754 206.222H187.32L187.715 203.57L179.712 203.299L179.754 206.222Z" fill="#006AFF"/>
<path d="M181.911 88.4C182.624 86.9856 186.451 86.0964 188.541 86.1016L190.101 93.0488C190.101 93.0488 185.941 99.2316 184.205 98.5764C182.161 97.8224 180.388 91.4524 181.911 88.4Z" fill="#006AFF"/>
<path opacity="0.4" d="M181.911 88.4C182.624 86.9856 186.451 86.0964 188.541 86.1016L190.101 93.0488C190.101 93.0488 185.941 99.2316 184.205 98.5764C182.161 97.8224 180.388 91.4524 181.911 88.4Z" fill="black"/>
<path d="M177.502 204.521C177.511 204.506 177.515 204.489 177.515 204.472C177.515 204.454 177.511 204.437 177.502 204.422C177.492 204.402 177.476 204.386 177.457 204.376C177.437 204.366 177.415 204.362 177.393 204.365C177.174 204.402 175.25 204.703 174.99 205.254C174.963 205.305 174.948 205.361 174.948 205.418C174.948 205.476 174.963 205.532 174.99 205.582C175.035 205.664 175.099 205.734 175.177 205.786C175.255 205.838 175.344 205.869 175.438 205.878C176.067 205.941 176.998 205.067 177.466 204.537L177.502 204.521ZM175.193 205.322C175.37 205.031 176.368 204.76 177.128 204.62C176.441 205.317 175.838 205.707 175.484 205.66C175.423 205.654 175.365 205.633 175.314 205.598C175.263 205.564 175.221 205.517 175.193 205.462C175.182 205.443 175.176 205.42 175.176 205.397C175.176 205.375 175.182 205.352 175.193 205.332C175.193 205.332 175.188 205.327 175.193 205.322Z" fill="#006AFF"/>
<path d="M182.042 202.675L178.058 204.449L176.285 200.751L173.966 195.915L173.69 195.354L177.674 193.581L177.98 194.215L180.227 198.9L182.042 202.675Z" fill="#FFB573"/>
<path opacity="0.2" d="M180.227 198.9L176.285 200.751L173.966 195.915L177.98 194.215L180.227 198.9Z" fill="black"/>
<path d="M166.956 113.942C166.956 113.942 154.232 145.6 157.68 160.472C160.8 173.935 174.58 199.43 174.58 199.43L179.92 196.758C179.92 196.758 171.397 165.979 170.477 159.292C168.678 146.292 180.237 127.92 180.237 113.942H166.956Z" fill="#263238"/>
<path opacity="0.1" d="M166.956 113.942C166.956 113.942 154.232 145.6 157.68 160.472C160.8 173.935 174.58 199.43 174.58 199.43L179.92 196.758C179.92 196.758 171.397 165.979 170.477 159.292C168.678 146.292 180.237 127.92 180.237 113.942H166.956Z" fill="white"/>
<path d="M177.351 203.892L181.303 201.016C181.37 200.964 181.453 200.939 181.538 200.944C181.622 200.95 181.702 200.987 181.761 201.048L184.491 203.85C184.557 203.924 184.607 204.01 184.638 204.104C184.668 204.198 184.679 204.297 184.668 204.395C184.658 204.493 184.627 204.588 184.578 204.673C184.528 204.759 184.461 204.833 184.381 204.89C182.983 205.868 182.26 206.274 180.523 207.537C179.452 208.317 177.32 210.038 175.843 211.115C174.366 212.191 173.243 210.787 173.763 210.21C176.093 207.61 176.582 205.998 176.945 204.537C177.002 204.281 177.145 204.053 177.351 203.892Z" fill="#263238"/>
<path d="M174.236 200.559L181.116 197.413L180.237 194.61L172.869 197.969L174.236 200.559Z" fill="#006AFF"/>
<path d="M170.331 88.0672C169.764 86.5904 164.793 84.9472 162.297 84.4272L161.2 92.6016C161.2 92.6016 165.277 98.4568 167.06 97.9732C169.172 97.4012 171.558 91.234 170.331 88.0672Z" fill="#006AFF"/>
<path opacity="0.4" d="M170.331 88.0672C169.764 86.5904 164.793 84.9472 162.297 84.4272L161.2 92.6016C161.2 92.6016 165.277 98.4568 167.06 97.9732C169.172 97.4012 171.558 91.234 170.331 88.0672Z" fill="black"/>
<path d="M164.876 87.6565C164.876 87.6565 162.796 88.3845 166.956 113.942H184.636C184.34 106.746 184.329 102.305 187.756 87.5265C185.279 87.0154 182.768 86.6852 180.242 86.5385C177.569 86.3459 174.886 86.3459 172.213 86.5385C168.787 86.8401 164.876 87.6565 164.876 87.6565Z" fill="#006AFF"/>
<path opacity="0.4" d="M164.876 87.6565C164.876 87.6565 162.796 88.3845 166.956 113.942H184.636C184.34 106.746 184.329 102.305 187.756 87.5265C185.279 87.0154 182.768 86.6852 180.242 86.5385C177.569 86.3459 174.886 86.3459 172.213 86.5385C168.787 86.8401 164.876 87.6565 164.876 87.6565Z" fill="black"/>
<path d="M184.912 112.908L185.707 114.468C185.77 114.592 185.624 114.717 185.421 114.717H166.868C166.707 114.717 166.577 114.639 166.566 114.535L166.405 112.975C166.405 112.866 166.535 112.772 166.707 112.772H184.6C184.659 112.763 184.72 112.771 184.775 112.795C184.831 112.819 184.878 112.858 184.912 112.908Z" fill="#006AFF"/>
<path opacity="0.3" d="M184.912 112.908L185.707 114.468C185.77 114.592 185.624 114.717 185.421 114.717H166.868C166.707 114.717 166.577 114.639 166.566 114.535L166.405 112.975C166.405 112.866 166.535 112.772 166.707 112.772H184.6C184.659 112.763 184.72 112.771 184.775 112.795C184.831 112.819 184.878 112.858 184.912 112.908Z" fill="white"/>
<path d="M182.52 114.92H182.998C183.097 114.92 183.17 114.868 183.16 114.811L182.936 112.731C182.936 112.668 182.848 112.622 182.754 112.622H182.27C182.177 112.622 182.104 112.668 182.109 112.731L182.333 114.811C182.328 114.858 182.411 114.92 182.52 114.92Z" fill="#263238"/>
<path d="M170.877 114.92H171.356C171.449 114.92 171.522 114.868 171.517 114.811L171.293 112.731C171.293 112.668 171.205 112.622 171.106 112.622H170.628C170.529 112.622 170.461 112.668 170.466 112.731L170.69 114.811C170.695 114.858 170.778 114.92 170.877 114.92Z" fill="#263238"/>
</svg>
