<svg width="36" height="36" viewBox="0 0 36 36" fill="none" xmlns="http://www.w3.org/2000/svg">
<g opacity="0.7">
<path d="M29.25 31.5H6.75V4.5H20.25V2.25H6.75C6.15326 2.25 5.58097 2.48705 5.15901 2.90901C4.73705 3.33097 4.5 3.90326 4.5 4.5V31.5C4.5 32.0967 4.73705 32.669 5.15901 33.091C5.58097 33.5129 6.15326 33.75 6.75 33.75H29.25C29.8467 33.75 30.419 33.5129 30.841 33.091C31.2629 32.669 31.5 32.0967 31.5 31.5V13.5H29.25V31.5Z" fill="#DF0101"/>
<path d="M24.75 11.25H31.5L22.5 2.25V9C22.5 9.59674 22.7371 10.169 23.159 10.591C23.581 11.0129 24.1533 11.25 24.75 11.25Z" fill="#DF0101"/>
<path d="M9 23.2765V15.9752H11.4525C11.9809 15.9658 12.5055 16.0654 12.9938 16.2677C13.4079 16.4416 13.7605 16.7355 14.0063 17.1115C14.2525 17.5138 14.3775 17.9786 14.3663 18.4502C14.3788 18.922 14.2537 19.3871 14.0063 19.789C13.7605 20.165 13.4079 20.4588 12.9938 20.6327C12.5072 20.8406 11.9814 20.9404 11.4525 20.9252H10.5412V23.2765H9ZM11.3737 17.3252H10.5412V19.5752H11.3737C11.7345 19.5913 12.0916 19.4971 12.3975 19.3052C12.5313 19.2088 12.6379 19.0793 12.7069 18.9295C12.7759 18.7797 12.8049 18.6146 12.7913 18.4502C12.8038 18.286 12.7743 18.1212 12.7054 17.9716C12.6365 17.822 12.5305 17.6924 12.3975 17.5952C12.0916 17.4033 11.7345 17.3091 11.3737 17.3252Z" fill="#DF0101"/>
<path d="M15.1641 23.2771V15.9758H17.7741C18.4325 15.9591 19.0838 16.1142 19.6641 16.4258C20.2083 16.7116 20.6577 17.1494 20.9578 17.6858C21.2613 18.2857 21.4194 18.9486 21.4194 19.6208C21.4194 20.2931 21.2613 20.956 20.9578 21.5558C20.6584 22.0957 20.2091 22.5372 19.6641 22.8271C19.0838 23.1387 18.4325 23.2938 17.7741 23.2771H15.1641ZM17.6503 17.3596H16.7053V21.8596H17.6503C17.9443 21.8757 18.2384 21.83 18.5135 21.7254C18.7887 21.6207 19.0389 21.4595 19.2478 21.2521C19.6548 20.796 19.865 20.1975 19.8328 19.5871C19.8514 19.0024 19.6416 18.4334 19.2478 18.0008C19.0418 17.7873 18.793 17.6198 18.5177 17.5093C18.2423 17.3988 17.9468 17.3478 17.6503 17.3596Z" fill="#DF0101"/>
<path d="M22.2422 23.2759V15.9746H27.0009V17.3359H23.7722V18.9784H26.6522V20.3509H23.7722V23.2759H22.2422Z" fill="#DF0101"/>
</g>
</svg>
