<svg width="242" height="242" viewBox="0 0 242 242" fill="none" xmlns="http://www.w3.org/2000/svg">
<path d="M242 185.08H0V185.201H242V185.08Z" fill="#E6E6E6"/>
<path d="M215.661 188.193H204.408V188.314H215.661V188.193Z" fill="#E6E6E6"/>
<path d="M174.724 190.82H121.276V190.941H174.724V190.82Z" fill="#E6E6E6"/>
<path d="M98.4116 190.885H93.1699V191.006H98.4116V190.885Z" fill="#E6E6E6"/>
<path d="M55.931 189.432H37.752V189.553H55.931V189.432Z" fill="#E6E6E6"/>
<path d="M199.723 188.193H189.084V188.314H199.723V188.193Z" fill="#E6E6E6"/>
<path d="M33.8025 189.432H24.9985V189.553H33.8025V189.432Z" fill="#E6E6E6"/>
<path d="M114.708 163.494H21.2525C20.5203 163.493 19.8186 163.201 19.3014 162.683C18.7842 162.165 18.4937 161.463 18.4937 160.731V29.3586C18.5 28.6307 18.7933 27.9346 19.3099 27.4217C19.8264 26.9088 20.5245 26.6204 21.2525 26.6191H114.708C115.441 26.6191 116.144 26.9103 116.662 27.4286C117.18 27.9469 117.472 28.6498 117.472 29.3828V160.731C117.472 161.464 117.18 162.167 116.662 162.685C116.144 163.203 115.441 163.494 114.708 163.494ZM21.2525 26.7159C20.5524 26.7172 19.8815 26.9962 19.387 27.4917C18.8924 27.9871 18.6147 28.6585 18.6147 29.3586V160.731C18.6147 161.431 18.8924 162.102 19.387 162.598C19.8815 163.093 20.5524 163.372 21.2525 163.373H114.708C115.409 163.372 116.08 163.093 116.575 162.598C117.071 162.103 117.349 161.431 117.351 160.731V29.3586C117.349 28.6581 117.071 27.9867 116.575 27.4914C116.08 26.9961 115.409 26.7172 114.708 26.7159H21.2525Z" fill="#E6E6E6"/>
<path d="M219.402 163.494H125.942C125.209 163.493 124.507 163.201 123.989 162.683C123.471 162.165 123.18 161.463 123.178 160.731V29.3586C123.186 28.6302 123.48 27.9342 123.998 27.4214C124.515 26.9086 125.213 26.6204 125.942 26.6191H219.402C220.129 26.6217 220.826 26.9106 221.342 27.4234C221.857 27.9362 222.15 28.6315 222.156 29.3586V160.731C222.156 161.462 221.866 162.163 221.35 162.681C220.834 163.199 220.134 163.492 219.402 163.494ZM125.942 26.7159C125.241 26.7172 124.57 26.9961 124.075 27.4914C123.579 27.9867 123.301 28.6581 123.299 29.3586V160.731C123.301 161.431 123.579 162.103 124.075 162.598C124.57 163.093 125.241 163.372 125.942 163.373H219.402C220.103 163.372 220.774 163.093 221.269 162.598C221.765 162.103 222.044 161.431 222.045 160.731V29.3586C222.044 28.6581 221.765 27.9867 221.269 27.4914C220.774 26.9961 220.103 26.7172 219.402 26.7159H125.942Z" fill="#E6E6E6"/>
<path d="M156.608 99.2773H193.184V35.5975L156.608 35.5975V99.2773Z" fill="#E6E6E6"/>
<path d="M154.633 99.2773H191.209V35.5975L154.633 35.5975V99.2773Z" fill="#F5F5F5"/>
<path d="M187.656 96.2904V38.5879H158.176V96.2904H187.656Z" fill="#FAFAFA"/>
<path d="M159.672 96.2904V38.5879H158.176V96.2904H159.672Z" fill="#E6E6E6"/>
<path d="M156.1 82.3613H189.743V78.349H156.1V82.3613Z" fill="#F5F5F5"/>
<path d="M94.4476 99.2773H131.023V35.5975L94.4476 35.5975V99.2773Z" fill="#E6E6E6"/>
<path d="M92.4729 99.2773H129.049V35.5975L92.4729 35.5975V99.2773Z" fill="#F5F5F5"/>
<path d="M125.501 96.2904V38.5879H96.0205V96.2904H125.501Z" fill="#FAFAFA"/>
<path d="M97.5112 96.2865V38.584H96.0157V96.2865H97.5112Z" fill="#E6E6E6"/>
<path d="M93.9397 82.3613H127.583V78.349H93.9397V82.3613Z" fill="#F5F5F5"/>
<path d="M32.2923 99.2773H68.8682L68.8682 35.5975L32.2923 35.5975L32.2923 99.2773Z" fill="#E6E6E6"/>
<path d="M30.3177 99.2773H66.8936L66.8936 35.5975L30.3177 35.5975L30.3177 99.2773Z" fill="#F5F5F5"/>
<path d="M63.3408 96.2865V38.584H33.8604V96.2865H63.3408Z" fill="#FAFAFA"/>
<path d="M35.3564 96.2904V38.5879H33.8609V96.2904H35.3564Z" fill="#E6E6E6"/>
<path d="M31.7844 82.3613H65.4272V78.349H31.7844V82.3613Z" fill="#F5F5F5"/>
<path d="M67.76 138.674C61.1631 139.584 57.083 125.248 71.6321 113.109C70.8722 127.16 79.2696 137.087 67.76 138.674Z" fill="#E6E6E6"/>
<path d="M62.9198 157.449C53.356 150.745 59.8997 127.325 89.4963 129.023C76.6993 146.264 79.5985 169.133 62.9198 157.449Z" fill="#E0E0E0"/>
<path d="M66.3081 157.3C72.663 150.456 63.617 133.23 40.748 139.522C53.6515 150.848 55.2196 169.226 66.3081 157.3Z" fill="#E0E0E0"/>
<path d="M58.1478 147.309C55.9505 144.632 53.3562 141.622 53.9854 138.437C54.6146 135.252 56.1876 132.886 54.9534 129.498C53.453 125.432 53.7434 120.582 56.2796 120.989C58.8158 121.395 61.6568 124.377 61.6036 128.302C61.56 132.116 64.0236 133.336 66.3952 135.364C68.7668 137.392 69.6041 140.358 70.0252 143.262C70.7609 147.875 76.7383 147.004 78.3258 151.006C79.9666 154.878 76.6947 160.033 71.4627 161.219C66.2306 162.405 62.5038 163.155 58.9368 159.06C55.3116 154.748 61.4003 151.142 58.1478 147.309Z" fill="#F5F5F5"/>
<path d="M76.1475 185.082H56.4923L55.0112 158.307H77.6286L76.1475 185.082Z" fill="#EBEBEB"/>
<path d="M79.0953 157.76H53.5449V160.644H79.0953V157.76Z" fill="#EBEBEB"/>
<path d="M192.022 181.445H205.245V124.106H192.022V181.445Z" fill="#EBEBEB"/>
<path d="M88.4027 185.08H202.704V181.445H88.4027V185.08Z" fill="#EBEBEB"/>
<path d="M192.022 124.107H85.8667V181.447H192.022V124.107Z" fill="#F5F5F5"/>
<path d="M186.824 131.164H91.0645V149.972H186.824V131.164Z" fill="#EBEBEB"/>
<path d="M186.824 155.58H91.0645V174.388H186.824V155.58Z" fill="#EBEBEB"/>
<path d="M109.157 141.855H168.732C169.073 141.854 169.4 141.718 169.641 141.477C169.882 141.235 170.018 140.909 170.02 140.568C170.02 140.226 169.884 139.898 169.643 139.656C169.401 139.413 169.074 139.277 168.732 139.275H109.157C108.815 139.277 108.487 139.413 108.246 139.656C108.005 139.898 107.869 140.226 107.869 140.568C107.87 140.909 108.006 141.235 108.248 141.477C108.489 141.718 108.816 141.854 109.157 141.855Z" fill="#F5F5F5"/>
<path d="M109.157 166.272H168.732C169.073 166.271 169.4 166.135 169.641 165.894C169.882 165.652 170.018 165.326 170.02 164.985C170.018 164.644 169.882 164.317 169.641 164.076C169.4 163.835 169.073 163.699 168.732 163.697H109.157C108.816 163.699 108.489 163.835 108.248 164.076C108.006 164.317 107.87 164.644 107.869 164.985C107.87 165.326 108.006 165.652 108.248 165.894C108.489 166.135 108.816 166.271 109.157 166.272Z" fill="#F5F5F5"/>
<path d="M162.716 115.738C162.716 115.738 177.865 130.093 186.858 115.68C186.858 115.68 184.467 111.048 181.945 110.651C179.423 110.254 179.322 114.659 177.105 113.299C174.888 111.939 172.299 107.287 170.886 109.77C169.472 112.253 167.532 108.715 165.417 108.512C163.301 108.309 162.716 115.738 162.716 115.738Z" fill="#F5F5F5"/>
<path d="M187.821 114.746C187.821 114.746 187.492 124.107 174.724 124.107C161.956 124.107 161.627 114.746 161.627 114.746H187.821Z" fill="#EBEBEB"/>
<path d="M123.231 109.867H130.583V124.106H108.997C108.997 120.331 110.496 116.71 113.165 114.039C115.835 111.369 119.455 109.868 123.231 109.867Z" fill="#F5F5F5"/>
<path d="M137.364 109.867H130.583V124.106H137.364V109.867Z" fill="#E6E6E6"/>
<path d="M121 206.938C172.828 206.938 214.843 204.485 214.843 201.459C214.843 198.433 172.828 195.98 121 195.98C69.1721 195.98 27.1572 198.433 27.1572 201.459C27.1572 204.485 69.1721 206.938 121 206.938Z" fill="#F5F5F5"/>
<path d="M105.512 95.7172L105.193 96.2012C105.096 96.3415 104.994 96.4674 104.898 96.5981C104.699 96.8594 104.491 97.0821 104.283 97.3483C103.862 97.8323 103.436 98.3163 102.981 98.7422C102.071 99.6163 101.101 100.425 100.077 101.162C99.0544 101.899 97.9786 102.559 96.8583 103.137C96.2921 103.413 95.7306 103.698 95.145 103.931L94.2689 104.279L94.0221 104.371C93.8866 104.415 93.7607 104.463 93.6107 104.497C93.318 104.57 93.0169 104.604 92.7153 104.599C92.1403 104.595 91.5745 104.454 91.0649 104.187C90.6551 103.973 90.2785 103.701 89.9468 103.379C89.4214 102.861 88.9673 102.275 88.5965 101.637C87.9625 100.532 87.4451 99.3636 87.0525 98.1517C86.2911 95.867 85.7466 93.5157 85.4263 91.1289L87.4494 90.6836C87.8172 91.7436 88.1947 92.8374 88.611 93.8925C89.0272 94.9476 89.4435 95.9979 89.9275 96.9949C90.3681 97.9573 90.8928 98.8789 91.4956 99.7489C91.7351 100.11 92.0234 100.435 92.3523 100.717C92.4468 100.794 92.553 100.857 92.6669 100.901C92.7347 100.901 92.7298 100.901 92.6959 100.901H92.6621L92.8218 100.823L93.5429 100.475C94.0269 100.243 94.4867 99.9909 94.9514 99.7102C95.8679 99.161 96.7534 98.5616 97.6037 97.9145C98.4427 97.2552 99.2397 96.5439 99.9898 95.7849C100.367 95.4171 100.726 95.0251 101.069 94.6282C101.239 94.4297 101.408 94.2313 101.553 94.0329L101.785 93.7376L101.974 93.4859L105.512 95.7172Z" fill="#B97964"/>
<path d="M99.651 95.5078L102.105 101.393L100.329 102.502L97.5698 97.1631L99.651 95.5078Z" fill="#263238"/>
<path d="M106.596 90.5512C102.594 90.498 98.5279 95.5654 98.4263 95.6913L101.592 103.135C101.592 103.135 108.634 97.4192 108.987 95.1831C109.355 92.855 109.132 90.5851 106.596 90.5512Z" fill="#006AFF"/>
<path opacity="0.3" d="M106.596 90.5512C102.594 90.498 98.5279 95.5654 98.4263 95.6913L101.592 103.135C101.592 103.135 108.634 97.4192 108.987 95.1831C109.355 92.855 109.132 90.5851 106.596 90.5512Z" fill="black"/>
<path d="M87.12 89.9136L84.3515 87.7598L83.79 91.9996C83.79 91.9996 86.4811 93.0547 87.9137 92.14L87.875 91.3656C87.8606 91.0836 87.7857 90.808 87.6554 90.5574C87.5251 90.3069 87.3425 90.0873 87.12 89.9136Z" fill="#B97964"/>
<path d="M80.6636 87.5469L80.8378 90.7655L83.8047 91.9997L84.3662 87.7598L80.6636 87.5469Z" fill="#B97964"/>
<path d="M141.328 89.569L145.607 88.4994L142.615 85.4453C142.615 85.4453 139.842 86.5779 140.52 88.9979L141.328 89.569Z" fill="#B97964"/>
<path d="M147.731 87.7398L147.378 84.3809L142.591 85.4457L145.582 88.4997L147.731 87.7398Z" fill="#B97964"/>
<path d="M127.374 197.217L123.391 197.599L120.066 188.2L124.049 187.812L127.374 197.217Z" fill="#B97964"/>
<path d="M170.015 177.454L167.082 180.3L159.541 174.414L162.479 171.568L170.015 177.454Z" fill="#B97964"/>
<path d="M166.235 179.748L168.49 175.746C168.528 175.677 168.59 175.624 168.664 175.597C168.738 175.571 168.819 175.572 168.892 175.6L172.319 176.926C172.404 176.963 172.48 177.018 172.542 177.086C172.604 177.154 172.652 177.234 172.681 177.322C172.71 177.41 172.721 177.503 172.712 177.594C172.703 177.686 172.674 177.775 172.629 177.856C171.82 179.24 171.361 179.864 170.368 181.626C169.758 182.71 168.568 185.193 167.726 186.689C166.884 188.184 165.359 187.429 165.577 186.732C166.545 183.601 166.38 181.854 166.119 180.469C166.071 180.223 166.112 179.967 166.235 179.748Z" fill="#263238"/>
<path d="M122.597 196.379H127.437C127.524 196.381 127.608 196.41 127.677 196.464C127.746 196.517 127.796 196.591 127.82 196.674L128.875 200.512C128.902 200.603 128.906 200.699 128.889 200.792C128.872 200.885 128.833 200.972 128.775 201.047C128.718 201.122 128.643 201.183 128.558 201.223C128.473 201.264 128.379 201.284 128.284 201.282C126.586 201.253 125.758 201.151 123.623 201.151C122.312 201.151 118.038 201.292 116.223 201.292C114.408 201.292 114.079 199.496 114.815 199.356C118.106 198.625 120.884 197.623 121.896 196.664C122.083 196.481 122.335 196.378 122.597 196.379Z" fill="#263238"/>
<path d="M120.071 188.2L121.779 193.049H125.903L124.054 187.812L120.071 188.2Z" fill="#A76755"/>
<path d="M162.484 171.568L159.546 174.419L163.432 177.449L166.37 174.603L162.484 171.568Z" fill="#A76755"/>
<path d="M102.7 91.8449C102.7 91.8449 101.054 93.0984 112.143 114.738L127.95 109.632C125.608 103.287 124.32 99.3227 123.11 85.127C120.766 85.3863 118.443 85.815 116.16 86.4096C113.719 87.0238 111.321 87.7983 108.982 88.7279C105.962 90.025 102.7 91.8449 102.7 91.8449Z" fill="#006AFF"/>
<path opacity="0.3" d="M102.7 91.8449C102.7 91.8449 101.054 93.0984 112.143 114.738L127.95 109.632C125.608 103.287 124.32 99.3227 123.11 85.127C120.766 85.3863 118.443 85.815 116.16 86.4096C113.719 87.0238 111.321 87.7983 108.982 88.7279C105.962 90.025 102.7 91.8449 102.7 91.8449Z" fill="black"/>
<path d="M112.816 78.5527C113.106 81.0115 114.021 85.3868 116.136 86.4081C116.136 86.4081 116.257 88.9539 111.969 90.3381C107.25 91.8627 108.958 88.7264 108.958 88.7264C111.335 87.2744 110.647 85.3868 109.621 83.7412L112.816 78.5527Z" fill="#B97964"/>
<path d="M104.883 90.6734C106.049 90.0684 107.535 89.3328 108.958 88.7374C111.3 87.7907 113.707 87.0127 116.16 86.4094C117.54 86.0319 118.934 85.7512 120.11 85.5527C120.221 85.8819 119.887 86.7337 119.069 87.9098C116.48 90.0588 110.957 92.8514 106.887 92.7498C105.106 92.0867 104.66 91.3849 104.883 90.6734Z" fill="#B97964"/>
<path d="M119.064 87.9102C117.306 90.2669 115.205 92.347 112.83 94.0812C110.808 93.835 108.816 93.3892 106.882 92.7502C110.933 92.8518 116.455 90.0591 119.064 87.9102Z" fill="#263238"/>
<path d="M111.514 80.668L109.621 83.7317C109.868 84.1135 110.08 84.5169 110.255 84.9369C111.194 84.4771 112.39 83.117 112.162 82.0329C112.027 81.5436 111.808 81.0817 111.514 80.668Z" fill="#A76755"/>
<path d="M113.774 74.0134C114.016 78.0645 114.21 79.773 112.429 82.0866C109.752 85.5617 104.723 84.9906 103.271 81.0798C101.969 77.5708 101.79 71.5354 105.532 69.4638C106.354 69.0019 107.28 68.7575 108.223 68.7539C109.166 68.7504 110.094 68.9876 110.92 69.4433C111.745 69.899 112.441 70.558 112.94 71.3578C113.44 72.1575 113.727 73.0717 113.774 74.0134Z" fill="#B97964"/>
<path d="M121.775 66.7534C122.69 62.7289 120.17 58.7246 116.145 57.8095C112.121 56.8944 108.116 59.4151 107.201 63.4396C106.286 67.4641 108.807 71.4684 112.831 72.3835C116.856 73.2985 120.86 70.7779 121.775 66.7534Z" fill="#263238"/>
<path d="M112.622 68.3413C114.161 69.3577 114.926 70.9162 114.331 71.8213C113.735 72.7264 112.002 72.6392 110.459 71.6228C108.915 70.6064 108.155 69.048 108.75 68.1429C109.345 67.2378 111.078 67.3249 112.622 68.3413Z" fill="#006AFF"/>
<path opacity="0.6" d="M112.622 68.3413C114.161 69.3577 114.926 70.9162 114.331 71.8213C113.735 72.7264 112.002 72.6392 110.459 71.6228C108.915 70.6064 108.155 69.048 108.75 68.1429C109.345 67.2378 111.078 67.3249 112.622 68.3413Z" fill="#FAFAFA"/>
<path d="M111.804 76.7777C112.206 75.8484 110.807 73.0896 111.107 72.0587C110.304 71.3085 102.158 73.9608 102.816 72.0248C103.445 70.1662 105.43 67.7027 109.96 68.7336C114.8 69.8371 115.221 74.0237 114.679 75.3595C114.137 76.6954 113.367 78.0845 113.367 78.0845L111.804 76.7777Z" fill="#263238"/>
<path d="M114.839 77.5661C114.849 78.3501 114.55 79.1065 114.006 79.6715C113.275 80.4121 112.395 79.8797 112.167 78.9213C111.959 78.0598 112.094 76.632 113.033 76.2545C113.24 76.1739 113.464 76.1465 113.685 76.175C113.905 76.2034 114.115 76.2868 114.294 76.4173C114.474 76.5479 114.618 76.7215 114.713 76.9222C114.808 77.123 114.851 77.3444 114.839 77.5661Z" fill="#B97964"/>
<path d="M112.143 114.737C112.143 114.737 104.815 150.475 108.9 162.261C113.15 174.52 120.066 191.635 120.066 191.635L126.527 191.267C126.527 191.267 121.203 169.642 119.892 159.874C118.096 146.41 125.787 110.352 125.787 110.352L112.143 114.737Z" fill="#006AFF"/>
<path opacity="0.6" d="M112.143 114.737C112.143 114.737 104.815 150.475 108.9 162.261C113.15 174.52 120.066 191.635 120.066 191.635L126.527 191.267C126.527 191.267 121.203 169.642 119.892 159.874C118.096 146.41 125.787 110.352 125.787 110.352L112.143 114.737Z" fill="#FAFAFA"/>
<path d="M127.036 191.423L119.558 191.854L118.357 188.911L126.605 188.055L127.036 191.423Z" fill="#006AFF"/>
<path opacity="0.2" d="M127.036 191.423L119.558 191.854L118.357 188.911L126.605 188.055L127.036 191.423Z" fill="black"/>
<path d="M119.892 117.486C118.769 121.639 119.708 127.863 121.828 132.229C122.346 128.841 122.897 125.559 123.42 122.622C122.331 120.516 121.131 118.648 119.892 117.486Z" fill="#006AFF"/>
<path opacity="0.4" d="M119.892 117.486C118.769 121.639 119.708 127.863 121.828 132.229C122.346 128.841 122.897 125.559 123.42 122.622C122.331 120.516 121.131 118.648 119.892 117.486Z" fill="#FAFAFA"/>
<path d="M116.315 113.387C116.315 113.387 127.195 139.392 134.402 153.67C140.21 165.218 161.763 177.304 161.763 177.304L165.635 173.199C165.635 173.199 149.527 158.897 145.51 151.066C132.655 126 135.297 115.052 127.96 109.631L116.315 113.387Z" fill="#006AFF"/>
<path opacity="0.6" d="M116.315 113.387C116.315 113.387 127.195 139.392 134.402 153.67C140.21 165.218 161.763 177.304 161.763 177.304L165.635 173.199C165.635 173.199 149.527 158.897 145.51 151.066C132.655 126 135.297 115.052 127.96 109.631L116.315 113.387Z" fill="#FAFAFA"/>
<path d="M166.356 172.615L161.032 178.273L157.663 176.501L163.795 170.248L166.356 172.615Z" fill="#006AFF"/>
<path opacity="0.2" d="M166.356 172.615L161.032 178.273L157.663 176.501L163.795 170.248L166.356 172.615Z" fill="black"/>
<path d="M127.887 108.629L129.054 109.815C129.146 109.907 129.054 110.062 128.87 110.12L112.293 115.444C112.148 115.492 112.007 115.444 111.969 115.371L111.373 114.006C111.33 113.909 111.426 113.788 111.581 113.735L127.587 108.571C127.638 108.554 127.692 108.55 127.745 108.56C127.798 108.571 127.847 108.594 127.887 108.629Z" fill="#263238"/>
<path d="M126.324 111.113L126.75 110.977C126.837 110.948 126.886 110.881 126.866 110.832L126.073 109.056C126.073 109.008 125.956 108.988 125.874 109.012L125.443 109.153C125.361 109.153 125.308 109.245 125.332 109.298L126.126 111.069C126.14 111.123 126.227 111.142 126.324 111.113Z" fill="#006AFF"/>
<path opacity="0.6" d="M126.324 111.113L126.75 110.977C126.837 110.948 126.886 110.881 126.866 110.832L126.073 109.056C126.073 109.008 125.956 108.988 125.874 109.012L125.443 109.153C125.361 109.153 125.308 109.245 125.332 109.298L126.126 111.069C126.14 111.123 126.227 111.142 126.324 111.113Z" fill="#FAFAFA"/>
<path d="M113.546 115.235L113.977 115.095C114.059 115.066 114.113 115.003 114.088 114.95L113.295 113.178C113.271 113.125 113.183 113.106 113.096 113.135L112.666 113.27C112.583 113.299 112.53 113.362 112.554 113.415L113.348 115.187C113.372 115.24 113.459 115.259 113.546 115.235Z" fill="#006AFF"/>
<path opacity="0.6" d="M113.546 115.235L113.977 115.095C114.059 115.066 114.113 115.003 114.088 114.95L113.295 113.178C113.271 113.125 113.183 113.106 113.096 113.135L112.666 113.27C112.583 113.299 112.53 113.362 112.554 113.415L113.348 115.187C113.372 115.24 113.459 115.259 113.546 115.235Z" fill="#FAFAFA"/>
<path d="M119.93 113.175L120.356 113.034C120.443 113.034 120.496 112.942 120.472 112.889L119.679 111.118C119.654 111.064 119.562 111.045 119.48 111.074L119.049 111.214C118.967 111.239 118.914 111.306 118.938 111.355L119.732 113.131C119.756 113.159 119.788 113.178 119.824 113.186C119.859 113.194 119.897 113.19 119.93 113.175Z" fill="#006AFF"/>
<path opacity="0.6" d="M119.93 113.175L120.356 113.034C120.443 113.034 120.496 112.942 120.472 112.889L119.679 111.118C119.654 111.064 119.562 111.045 119.48 111.074L119.049 111.214C118.967 111.239 118.914 111.306 118.938 111.355L119.732 113.131C119.756 113.159 119.788 113.178 119.824 113.186C119.859 113.194 119.897 113.19 119.93 113.175Z" fill="#FAFAFA"/>
<path d="M107.811 75.8826C107.85 76.2068 107.709 76.4972 107.496 76.5214C107.284 76.5456 107.075 76.3036 107.037 75.9745C106.998 75.6454 107.138 75.3599 107.351 75.3357C107.564 75.3115 107.772 75.5535 107.811 75.8826Z" fill="#263238"/>
<path d="M104.108 76.3326C104.152 76.6617 104.007 76.9473 103.794 76.9715C103.581 76.9957 103.373 76.7537 103.334 76.4294C103.295 76.1051 103.436 75.8147 103.649 75.7856C103.862 75.7566 104.06 75.9889 104.108 76.3326Z" fill="#263238"/>
<path d="M103.745 75.7947L102.932 75.6641C102.932 75.6641 103.411 76.2304 103.745 75.7947Z" fill="#263238"/>
<path d="M105.159 76.7773C104.957 77.5591 104.649 78.3098 104.244 79.0086C104.426 79.1058 104.627 79.163 104.834 79.1763C105.04 79.1897 105.246 79.1589 105.44 79.086L105.159 76.7773Z" fill="#A24E3F"/>
<path d="M106.737 80.2325C106.713 80.2328 106.691 80.2246 106.673 80.2095C106.655 80.1944 106.643 80.1733 106.64 80.1503C106.638 80.1243 106.646 80.0986 106.662 80.0781C106.678 80.0575 106.701 80.0436 106.727 80.0389C107.135 79.9983 107.527 79.8624 107.873 79.6421C108.218 79.4218 108.507 79.1234 108.716 78.7709C108.721 78.759 108.729 78.7482 108.738 78.7393C108.748 78.7304 108.759 78.7234 108.771 78.7189C108.783 78.7144 108.796 78.7124 108.809 78.713C108.822 78.7136 108.835 78.7168 108.847 78.7225C108.858 78.7281 108.869 78.736 108.877 78.7457C108.885 78.7553 108.892 78.7666 108.896 78.7787C108.9 78.7909 108.902 78.8037 108.901 78.8165C108.9 78.8293 108.896 78.8417 108.89 78.8532C108.671 79.2377 108.361 79.5637 107.989 79.8038C107.617 80.0439 107.192 80.1909 106.751 80.2325H106.737Z" fill="#263238"/>
<path d="M108.271 74.7197C108.225 74.7192 108.18 74.702 108.145 74.6713C107.966 74.5058 107.75 74.3855 107.515 74.3207C107.28 74.2558 107.033 74.2483 106.795 74.2986C106.77 74.306 106.744 74.3083 106.718 74.3054C106.693 74.3025 106.668 74.2945 106.645 74.2819C106.623 74.2693 106.603 74.2523 106.587 74.2319C106.571 74.2115 106.559 74.1881 106.553 74.1631C106.545 74.1386 106.543 74.1129 106.546 74.0876C106.549 74.0622 106.557 74.0377 106.57 74.0155C106.582 73.9933 106.599 73.974 106.62 73.9586C106.64 73.9432 106.664 73.9321 106.688 73.9259C106.988 73.86 107.3 73.8665 107.597 73.9447C107.894 74.023 108.168 74.1709 108.397 74.3761C108.415 74.3941 108.43 74.4155 108.44 74.4392C108.449 74.4629 108.455 74.4883 108.455 74.514C108.455 74.5397 108.449 74.5651 108.44 74.5888C108.43 74.6125 108.415 74.6339 108.397 74.6519C108.365 74.6894 108.32 74.7135 108.271 74.7197Z" fill="#263238"/>
<path d="M102.197 74.8321C102.168 74.8389 102.138 74.8389 102.109 74.8321C102.065 74.8075 102.031 74.7666 102.016 74.7179C102.001 74.6693 102.005 74.6166 102.027 74.5708C102.16 74.294 102.356 74.0527 102.6 73.8667C102.844 73.6807 103.129 73.5554 103.431 73.5011C103.481 73.4957 103.532 73.5104 103.572 73.5421C103.612 73.5738 103.638 73.6199 103.644 73.6705C103.647 73.696 103.645 73.7218 103.639 73.7466C103.632 73.7714 103.62 73.7946 103.605 73.8149C103.589 73.8352 103.569 73.8521 103.547 73.8647C103.525 73.8773 103.5 73.8853 103.474 73.8883C103.235 73.9328 103.011 74.0338 102.819 74.1828C102.627 74.3318 102.473 74.5246 102.371 74.745C102.352 74.7736 102.326 74.7968 102.295 74.8121C102.265 74.8274 102.231 74.8343 102.197 74.8321Z" fill="#263238"/>
<path d="M126.324 88.9061L126.508 89.1384L126.735 89.4143C126.89 89.5982 127.05 89.787 127.219 89.9709C127.553 90.3436 127.902 90.7114 128.274 91.0599C129.004 91.7754 129.775 92.4477 130.583 93.0733C131.404 93.6949 132.255 94.2748 133.134 94.8109C133.574 95.0771 134.024 95.3288 134.479 95.5756L135.171 95.9289L135.505 96.0983C135.588 96.1371 135.67 96.1758 135.747 96.2048C135.994 96.3078 136.259 96.362 136.527 96.3645C136.773 96.3505 137.009 96.2628 137.204 96.1129C137.853 95.5752 138.365 94.892 138.7 94.1188C139.149 93.1864 139.51 92.2142 139.779 91.2148C140.078 90.1955 140.326 89.1616 140.52 88.1172L142.586 88.2479C142.651 90.6305 142.311 93.0069 141.58 95.2755C141.373 95.894 141.105 96.4906 140.781 97.0567C140.421 97.7018 139.957 98.2825 139.406 98.7749C138.751 99.357 137.95 99.7501 137.088 99.9123C136.251 100.058 135.39 99.9986 134.581 99.738C134.392 99.6848 134.218 99.617 134.039 99.5493L133.618 99.375L132.795 99.0314C132.248 98.7845 131.711 98.5474 131.183 98.2473C130.124 97.6886 129.104 97.0596 128.129 96.3645C127.153 95.6607 126.223 94.8943 125.346 94.0704C124.911 93.6541 124.49 93.2137 124.078 92.7587C123.875 92.5264 123.672 92.2747 123.478 92.0521L123.183 91.6697C123.081 91.5342 123.004 91.4277 122.868 91.2341L126.324 88.9061Z" fill="#B97964"/>
<path d="M129.756 91.4563L126.726 96.5432L125.25 95.1492L128.047 90.0527L129.756 91.4563Z" fill="#263238"/>
<path d="M123.13 85.1271C124.872 85.098 129.102 90.0929 129.102 90.0929L125.424 96.4962C125.424 96.4962 120.739 92.3677 120.744 90.1074C120.748 87.7504 121.145 85.1852 123.13 85.1271Z" fill="#006AFF"/>
<path opacity="0.3" d="M123.13 85.1271C124.872 85.098 129.102 90.0929 129.102 90.0929L125.424 96.4962C125.424 96.4962 120.739 92.3677 120.744 90.1074C120.748 87.7504 121.145 85.1852 123.13 85.1271Z" fill="black"/>
<path d="M165.441 181.922C165.306 181.916 165.177 181.867 165.073 181.781C165.024 181.749 164.986 181.704 164.961 181.651C164.936 181.598 164.926 181.539 164.933 181.481C164.976 180.958 166.288 180.271 166.433 180.194C166.449 180.183 166.467 180.178 166.486 180.178C166.505 180.178 166.524 180.183 166.539 180.194C166.554 180.206 166.565 180.222 166.571 180.24C166.577 180.258 166.578 180.277 166.573 180.295C166.423 180.818 166.089 181.718 165.605 181.878C165.553 181.902 165.498 181.917 165.441 181.922ZM166.317 180.47C165.804 180.76 165.15 181.215 165.126 181.486C165.122 181.512 165.127 181.539 165.139 181.562C165.151 181.586 165.17 181.605 165.194 181.617C165.239 181.661 165.295 181.691 165.357 181.706C165.418 181.72 165.482 181.718 165.542 181.699C165.809 181.621 166.089 181.167 166.317 180.479V180.47Z" fill="#006AFF"/>
<path d="M165.262 180.654C165.049 180.672 164.837 180.619 164.657 180.504C164.599 180.454 164.559 180.385 164.545 180.309C164.531 180.234 164.543 180.155 164.58 180.088C164.606 180.017 164.648 179.954 164.702 179.903C164.757 179.852 164.822 179.814 164.894 179.792C165.456 179.604 166.482 180.17 166.525 180.194C166.541 180.203 166.554 180.215 166.564 180.23C166.573 180.246 166.578 180.263 166.579 180.281C166.578 180.298 166.573 180.314 166.565 180.328C166.556 180.343 166.544 180.355 166.53 180.363C166.135 180.555 165.701 180.654 165.262 180.654ZM165.16 179.947C165.092 179.946 165.023 179.956 164.957 179.976C164.912 179.99 164.871 180.014 164.837 180.046C164.803 180.078 164.776 180.117 164.759 180.16C164.71 180.276 164.759 180.325 164.759 180.359C164.976 180.543 165.78 180.465 166.24 180.276C165.904 180.098 165.538 179.987 165.16 179.947Z" fill="#006AFF"/>
<path d="M120.449 197.182C120.11 197.211 119.771 197.131 119.481 196.955C119.404 196.899 119.343 196.826 119.3 196.742C119.257 196.658 119.234 196.565 119.234 196.471C119.228 196.42 119.236 196.368 119.258 196.321C119.279 196.274 119.312 196.234 119.355 196.205C119.795 195.905 121.45 196.66 121.775 196.81C121.793 196.819 121.808 196.833 121.818 196.852C121.828 196.87 121.831 196.891 121.828 196.911C121.826 196.931 121.818 196.95 121.805 196.964C121.792 196.979 121.775 196.989 121.755 196.994C121.327 197.1 120.889 197.164 120.449 197.182ZM119.674 196.345C119.609 196.339 119.543 196.352 119.485 196.384C119.471 196.394 119.459 196.408 119.452 196.424C119.446 196.44 119.444 196.458 119.447 196.476C119.448 196.539 119.464 196.601 119.494 196.657C119.523 196.714 119.565 196.762 119.616 196.8C119.998 197.09 120.908 196.979 121.441 196.882C120.882 196.615 120.287 196.434 119.674 196.345Z" fill="#006AFF"/>
<path d="M121.755 197.013H121.717C121.17 196.79 120.066 195.904 120.129 195.445C120.129 195.343 120.206 195.217 120.458 195.188C121.426 195.062 121.833 196.829 121.847 196.901C121.851 196.919 121.851 196.937 121.846 196.954C121.84 196.971 121.831 196.986 121.818 196.998C121.799 197.009 121.777 197.015 121.755 197.013ZM120.545 195.372H120.482C120.381 195.372 120.323 195.416 120.318 195.464C120.284 195.725 121.044 196.432 121.605 196.732C121.484 196.316 121.126 195.372 120.545 195.372Z" fill="#006AFF"/>
<path d="M107.448 75.3397L106.635 75.209C106.635 75.209 107.114 75.7753 107.448 75.3397Z" fill="#263238"/>
<path d="M77.1691 41.5176C76.3124 42.5921 71.5934 43.8553 67.8424 43.5068C66.5501 51.9865 71.0658 61.7488 71.0658 61.7488C71.0658 61.7488 80.8668 60.5823 81.1088 56.5458C81.3508 52.5092 77.1691 41.5176 77.1691 41.5176Z" fill="#006AFF"/>
<path opacity="0.4" d="M77.1691 41.5176C76.3124 42.5921 71.5934 43.8553 67.8424 43.5068C66.5501 51.9865 71.0658 61.7488 71.0658 61.7488C71.0658 61.7488 80.8668 60.5823 81.1088 56.5458C81.3508 52.5092 77.1691 41.5176 77.1691 41.5176Z" fill="#FAFAFA"/>
<path d="M151.361 35.0664C152.237 36.3006 156.685 37.5251 160.127 36.8862C161.971 46.9244 158.554 58.8502 158.554 58.8502C158.554 58.8502 149.42 58.037 148.874 53.2406C148.327 48.4442 151.361 35.0664 151.361 35.0664Z" fill="#006AFF"/>
<path opacity="0.4" d="M151.361 35.0664C152.237 36.3006 156.685 37.5251 160.127 36.8862C161.971 46.9244 158.554 58.8502 158.554 58.8502C158.554 58.8502 149.42 58.037 148.874 53.2406C148.327 48.4442 151.361 35.0664 151.361 35.0664Z" fill="#FAFAFA"/>
<path d="M87.1202 122.002C87.0506 122.012 86.9796 122.008 86.9114 121.991C86.8431 121.974 86.779 121.943 86.7228 121.901C86.6665 121.858 86.6192 121.805 86.5836 121.744C86.5479 121.684 86.5247 121.617 86.5152 121.547L75.0202 40.0074C75.0108 39.9354 75.0159 39.8622 75.0353 39.7922C75.0547 39.7222 75.088 39.6568 75.1331 39.6C75.1782 39.5431 75.2344 39.4958 75.2981 39.4611C75.3619 39.4263 75.432 39.4047 75.5042 39.3975C75.5741 39.388 75.6452 39.3923 75.7135 39.4102C75.7817 39.4282 75.8458 39.4594 75.902 39.5021C75.9581 39.5448 76.0054 39.5981 76.0409 39.6591C76.0765 39.72 76.0997 39.7874 76.1092 39.8573L87.6042 121.392C87.6137 121.464 87.6085 121.537 87.5891 121.607C87.5697 121.677 87.5365 121.742 87.4913 121.799C87.4462 121.856 87.3901 121.903 87.3263 121.938C87.2626 121.973 87.1925 121.995 87.1202 122.002Z" fill="#006AFF"/>
<path opacity="0.2" d="M87.1202 122.002C87.0506 122.012 86.9796 122.008 86.9114 121.991C86.8431 121.974 86.779 121.943 86.7228 121.901C86.6665 121.858 86.6192 121.805 86.5836 121.744C86.5479 121.684 86.5247 121.617 86.5152 121.547L75.0202 40.0074C75.0108 39.9354 75.0159 39.8622 75.0353 39.7922C75.0547 39.7222 75.088 39.6568 75.1331 39.6C75.1782 39.5431 75.2344 39.4958 75.2981 39.4611C75.3619 39.4263 75.432 39.4047 75.5042 39.3975C75.5741 39.388 75.6452 39.3923 75.7135 39.4102C75.7817 39.4282 75.8458 39.4594 75.902 39.5021C75.9581 39.5448 76.0054 39.5981 76.0409 39.6591C76.0765 39.72 76.0997 39.7874 76.1092 39.8573L87.6042 121.392C87.6137 121.464 87.6085 121.537 87.5891 121.607C87.5697 121.677 87.5365 121.742 87.4913 121.799C87.4462 121.856 87.3901 121.903 87.3263 121.938C87.2626 121.973 87.1925 121.995 87.1202 122.002Z" fill="black"/>
<path d="M141.894 115.944C141.966 115.953 142.039 115.948 142.109 115.929C142.179 115.909 142.245 115.876 142.302 115.831C142.358 115.786 142.406 115.729 142.44 115.666C142.475 115.602 142.497 115.532 142.504 115.46L154.023 33.925C154.033 33.855 154.03 33.7838 154.012 33.7153C153.995 33.6467 153.965 33.5823 153.922 33.5256C153.88 33.469 153.827 33.4212 153.766 33.3851C153.705 33.349 153.638 33.3252 153.568 33.3151C153.496 33.3057 153.423 33.3108 153.353 33.3302C153.283 33.3496 153.218 33.3829 153.161 33.428C153.104 33.4732 153.057 33.5293 153.022 33.593C152.987 33.6568 152.966 33.7269 152.958 33.7991L141.439 115.334C141.42 115.475 141.457 115.618 141.542 115.732C141.627 115.846 141.753 115.922 141.894 115.944Z" fill="#006AFF"/>
<path opacity="0.2" d="M141.894 115.944C141.966 115.953 142.039 115.948 142.109 115.929C142.179 115.909 142.245 115.876 142.302 115.831C142.358 115.786 142.406 115.729 142.44 115.666C142.475 115.602 142.497 115.532 142.504 115.46L154.023 33.925C154.033 33.855 154.03 33.7838 154.012 33.7153C153.995 33.6467 153.965 33.5823 153.922 33.5256C153.88 33.469 153.827 33.4212 153.766 33.3851C153.705 33.349 153.638 33.3252 153.568 33.3151C153.496 33.3057 153.423 33.3108 153.353 33.3302C153.283 33.3496 153.218 33.3829 153.161 33.428C153.104 33.4732 153.057 33.5293 153.022 33.593C152.987 33.6568 152.966 33.7269 152.958 33.7991L141.439 115.334C141.42 115.475 141.457 115.618 141.542 115.732C141.627 115.846 141.753 115.922 141.894 115.944Z" fill="black"/>
<path d="M74.5603 41.7309L76.7383 57.7417C76.7516 57.8429 76.7867 57.9399 76.8411 58.0263C76.8955 58.1126 76.968 58.1861 77.0536 58.2418C77.1391 58.2974 77.2357 58.3339 77.3367 58.3487C77.4377 58.3634 77.5406 58.3561 77.6385 58.3273C82.5076 56.9334 109.583 49.9831 151.173 54.4069C151.349 54.4273 151.527 54.3803 151.671 54.2753C151.814 54.1704 151.913 54.0151 151.947 53.8406C152.731 49.7847 154.081 38.2316 154.425 35.2744C154.446 35.088 154.392 34.9009 154.277 34.7534C154.161 34.6059 153.992 34.5097 153.806 34.4855C148.22 33.7788 110.096 29.5535 75.0491 40.9565C74.8906 41.009 74.7552 41.115 74.666 41.2562C74.5769 41.3974 74.5395 41.5652 74.5603 41.7309Z" fill="#006AFF"/>
<path opacity="0.6" d="M74.5603 41.7309L76.7383 57.7417C76.7516 57.8429 76.7867 57.9399 76.8411 58.0263C76.8955 58.1126 76.968 58.1861 77.0536 58.2418C77.1391 58.2974 77.2357 58.3339 77.3367 58.3487C77.4377 58.3634 77.5406 58.3561 77.6385 58.3273C82.5076 56.9334 109.583 49.9831 151.173 54.4069C151.349 54.4273 151.527 54.3803 151.671 54.2753C151.814 54.1704 151.913 54.0151 151.947 53.8406C152.731 49.7847 154.081 38.2316 154.425 35.2744C154.446 35.088 154.392 34.9009 154.277 34.7534C154.161 34.6059 153.992 34.5097 153.806 34.4855C148.22 33.7788 110.096 29.5535 75.0491 40.9565C74.8906 41.009 74.7552 41.115 74.666 41.2562C74.5769 41.3974 74.5395 41.5652 74.5603 41.7309Z" fill="#FAFAFA"/>
<path d="M81.5444 44.5287L83.8386 44.0447L85.46 48.2603L85.8714 43.6333L88.1607 43.1493L90.1693 47.2827L90.1984 42.7379L92.4828 42.2539L92.1828 50.4335L89.816 50.9175L87.546 46.2614L87.062 51.4693L84.6953 51.9533L81.5444 44.5287Z" fill="#FAFAFA"/>
<path d="M93.6055 42.1672L100.135 41.1992L100.348 42.8835L96.2626 43.4837L96.4223 44.7421L100.212 44.1855L100.415 45.7972L96.6256 46.3538L96.7999 47.9171L101.006 47.3025L101.233 49.0933L94.5831 50.0613L93.6055 42.1672Z" fill="#FAFAFA"/>
<path d="M101.795 41.0103L104.244 40.7441L104.767 46.7312L108.585 46.3198L108.76 48.2558L102.468 48.9334L101.795 41.0103Z" fill="#FAFAFA"/>
<path d="M114.737 44.5571L116.92 45.0411C116.83 45.6002 116.623 46.1343 116.315 46.6092C116.032 47.0368 115.646 47.3863 115.192 47.6256C114.649 47.8876 114.057 48.0358 113.454 48.0612C112.735 48.138 112.007 48.0604 111.32 47.8338C110.725 47.5766 110.22 47.1488 109.868 46.6044C109.405 45.8924 109.155 45.0629 109.147 44.2134C109.02 43.0991 109.34 41.9798 110.037 41.1013C110.411 40.7048 110.861 40.3877 111.36 40.1689C111.859 39.9502 112.397 39.8344 112.941 39.8284C113.763 39.721 114.597 39.8734 115.328 40.264C115.969 40.6905 116.452 41.3165 116.702 42.0451L114.558 42.684C114.499 42.4976 114.409 42.3225 114.292 42.1661C114.143 41.9903 113.954 41.854 113.74 41.7692C113.392 41.6272 113.005 41.6155 112.649 41.7365C112.293 41.8574 111.993 42.1028 111.804 42.4275C111.569 42.9248 111.48 43.4787 111.548 44.0247C111.589 44.9056 111.751 45.5009 112.032 45.8106C112.178 45.965 112.358 46.0828 112.558 46.1543C112.758 46.2257 112.973 46.249 113.183 46.222C113.382 46.2196 113.578 46.1752 113.758 46.0918C113.938 46.0084 114.099 45.8878 114.229 45.738C114.497 45.3944 114.671 44.9877 114.737 44.5571Z" fill="#FAFAFA"/>
<path d="M117.815 43.6328C117.778 43.0761 117.85 42.5173 118.03 41.989C118.209 41.4606 118.492 40.9731 118.861 40.5546C119.257 40.165 119.727 39.8589 120.243 39.6544C120.759 39.4498 121.311 39.3511 121.866 39.3639C122.418 39.309 122.974 39.3665 123.502 39.5329C124.031 39.6993 124.52 39.9711 124.94 40.3319C125.317 40.7238 125.61 41.1888 125.801 41.6982C125.991 42.2077 126.076 42.7507 126.048 43.294C126.09 44.0889 125.941 44.8823 125.613 45.6075C125.316 46.2115 124.851 46.7161 124.272 47.0595C123.599 47.4353 122.841 47.632 122.07 47.6306C121.308 47.6841 120.545 47.5616 119.839 47.2725C119.231 46.9931 118.724 46.5335 118.387 45.956C117.99 45.2475 117.792 44.4446 117.815 43.6328ZM120.269 43.565C120.227 44.1781 120.398 44.787 120.753 45.2881C120.904 45.4588 121.093 45.5916 121.305 45.6757C121.517 45.7598 121.746 45.7928 121.973 45.7721C122.205 45.7773 122.435 45.7299 122.647 45.6336C122.858 45.5372 123.045 45.3942 123.193 45.2155C123.53 44.6526 123.675 43.9949 123.604 43.3424C123.645 42.758 123.473 42.1785 123.12 41.7113C122.965 41.5412 122.774 41.409 122.56 41.3251C122.345 41.2411 122.115 41.2077 121.886 41.2273C121.658 41.2266 121.434 41.2772 121.228 41.3752C121.023 41.4732 120.843 41.6162 120.7 41.7936C120.36 42.3162 120.208 42.9395 120.269 43.5602V43.565Z" fill="#FAFAFA"/>
<path d="M127.539 39.3457H130.767L131.881 44.2196L133.25 39.3796L136.479 39.4086L136.261 47.3946H134.247L134.412 41.3011L132.699 47.3801H130.879L129.499 41.272L129.335 47.3656H127.321L127.539 39.3457Z" fill="#FAFAFA"/>
<path d="M138.25 39.4844L144.818 39.7796L144.716 41.4833L140.602 41.2994L140.52 42.5917L144.334 42.7611L144.232 44.3631L140.418 44.1937L140.321 45.7715L144.552 45.9555L144.435 47.7656L137.747 47.4655L138.25 39.4844Z" fill="#FAFAFA"/>
</svg>
