<svg width="20" height="20" viewBox="0 0 20 20" fill="none" xmlns="http://www.w3.org/2000/svg">
<path d="M16.7707 1.66699C17.6336 1.66699 18.3332 2.36655 18.3332 3.22949V16.7712C18.3332 17.6341 17.6336 18.3337 16.7707 18.3337H3.229C2.36606 18.3337 1.6665 17.6341 1.6665 16.7712V3.22949C1.6665 2.36655 2.36606 1.66699 3.229 1.66699H16.7707ZM16.7707 2.70866H3.229C2.94136 2.70866 2.70817 2.94184 2.70817 3.22949V16.7712C2.70817 17.0588 2.94136 17.292 3.229 17.292H16.7707C17.0583 17.292 17.2915 17.0588 17.2915 16.7712V3.22949C17.2915 2.94184 17.0583 2.70866 16.7707 2.70866ZM12.6044 13.4301L15.3607 10.6737C15.5641 10.4703 15.8939 10.4703 16.0973 10.6737C16.2781 10.8545 16.2982 11.1352 16.1576 11.3381L16.0973 11.4103L13.3412 14.1664C13.1458 14.3619 12.8807 14.4717 12.6044 14.4717C12.3675 14.4717 12.1389 14.391 11.9554 14.245L11.8677 14.1665L10.521 12.8199L7.76396 15.5769C7.56056 15.7803 7.23078 15.7803 7.02739 15.5769C6.84659 15.3961 6.8265 15.1155 6.96712 14.9125L7.02739 14.8404L9.78421 12.0835C9.97958 11.8881 10.2446 11.7782 10.521 11.7782C10.7579 11.7782 10.9865 11.8589 11.1699 12.005L11.2577 12.0834L12.6044 13.4301L15.3607 10.6737L12.6044 13.4301ZM7.39567 3.75033H7.41082C9.41739 3.75852 11.0415 5.38767 11.0415 7.39616C11.0415 9.4097 9.40921 11.042 7.39567 11.042C5.38213 11.042 3.74984 9.4097 3.74984 7.39616C3.74984 5.38262 5.38213 3.75033 7.39567 3.75033ZM6.87484 7.39616L6.87385 4.84429C5.68568 5.08595 4.7915 6.13663 4.7915 7.39616C4.7915 8.8344 5.95743 10.0003 7.39567 10.0003C7.92633 10.0003 8.41992 9.8416 8.83155 9.56904L7.02739 7.76444C6.94925 7.6863 6.8985 7.58589 6.88133 7.47813L6.87484 7.39616L6.87385 4.84429L6.87484 7.39616ZM7.91666 4.84412L7.9165 7.18042L9.56855 8.83204C9.84111 8.42041 9.99984 7.92682 9.99984 7.39616C9.99984 6.13634 9.10525 5.08546 7.91666 4.84412ZM13.1248 6.87533H15.2082C15.4958 6.87533 15.729 7.10851 15.729 7.39616C15.729 7.65766 15.5363 7.87415 15.2851 7.91135L15.2082 7.91699H13.1248C12.8372 7.91699 12.604 7.68381 12.604 7.39616C12.604 7.13466 12.7967 6.91817 13.0479 6.88097L13.1248 6.87533H15.2082H13.1248ZM13.1248 4.79199H15.2082C15.4958 4.79199 15.729 5.02518 15.729 5.31283C15.729 5.57432 15.5363 5.79081 15.2851 5.82801L15.2082 5.83366H13.1248C12.8372 5.83366 12.604 5.60047 12.604 5.31283C12.604 5.05133 12.7967 4.83484 13.0479 4.79764L13.1248 4.79199H15.2082H13.1248Z" fill="#F3F6FF" fill-opacity="0.7"/>
</svg>
