<svg width="24" height="24" viewBox="0 0 24 24" fill="none" xmlns="http://www.w3.org/2000/svg">
<path d="M16.5165 11.0589C16.2452 10.9721 15.4575 10.7339 15.424 10.7237C15.1242 10.633 14.8058 10.7923 14.6985 11.0866L13.213 15.1625L12.8635 12.7425L13.5324 11.5839C13.6379 11.4013 13.6379 11.1762 13.5324 10.9936C13.427 10.8109 13.2321 10.6984 13.0212 10.6984H11.5171C11.3061 10.6984 11.1113 10.811 11.0058 10.9936C10.9004 11.1763 10.9004 11.4013 11.0058 11.5839L11.6749 12.7428L11.3312 15.1788L9.83969 11.0866C9.73241 10.7923 9.41391 10.6329 9.11417 10.7237C9.08075 10.7338 8.29301 10.9721 8.02175 11.0589C6.53621 11.5343 5.53809 12.9162 5.53809 14.4975V20.4997C5.53809 20.8257 5.8024 21.09 6.12842 21.09H18.4097C18.7357 21.09 19 20.8257 19 20.4997V14.4975C19.0001 12.9162 18.0019 11.5343 16.5165 11.0589ZM6.71882 19.9093V14.4975C6.71882 13.4316 7.38707 12.5017 8.38165 12.1833C8.49581 12.1468 8.71262 12.0801 8.92179 12.0162L11.7144 19.6785C11.7472 19.7686 11.8005 19.847 11.8678 19.9094H6.71882V19.9093ZM17.8194 19.9093H12.6703C12.7376 19.8469 12.7909 19.7684 12.8238 19.6784L15.6164 12.0161C15.8255 12.08 16.0425 12.1467 16.1566 12.1833C17.1511 12.5016 17.8194 13.4315 17.8194 14.4974V19.9093Z" fill="#F3F6FF" fill-opacity="0.7"/>
<path d="M12.269 9.32129C14.2875 9.32129 15.9297 7.6791 15.9297 5.66061C15.9297 3.64213 14.2876 2 12.269 2C10.2505 2 8.6084 3.64213 8.6084 5.66061C8.6084 7.6791 10.2505 9.32129 12.269 9.32129ZM12.269 3.18074C13.6364 3.18074 14.749 4.29321 14.749 5.66061C14.749 7.02802 13.6365 8.14062 12.269 8.14062C10.9016 8.14062 9.78914 7.02808 9.78914 5.66061C9.78914 4.29315 10.9016 3.18074 12.269 3.18074Z" fill="#F3F6FF" fill-opacity="0.7"/>
</svg>
