<svg width="55" height="61" viewBox="0 0 55 61" fill="none" xmlns="http://www.w3.org/2000/svg">
<path d="M16.8531 9.18239C19.3656 9.65755 21.7875 8.00484 22.2617 5.49157C22.7358 2.97817 21.0852 0.556164 18.5727 0.08113C16.0584 -0.39302 13.6344 1.25956 13.1602 3.77309C12.6843 6.28737 14.3387 8.70736 16.8531 9.18239Z" fill="#1A1A36"/>
<path d="M54.3838 57.227L51.8262 48.0508L52.0571 40.3717C52.0749 39.78 52.0284 39.1882 51.9185 38.6068L49.18 24.1071C48.9831 23.0674 48.3831 22.1486 47.5096 21.5525C46.6361 20.9564 45.5599 20.732 44.5211 20.9277L42.8488 21.2445C41.7725 21.4472 40.8812 22.0659 40.3048 22.9021C40.903 22.8106 41.6586 22.6817 42.2171 22.6374L35.0027 25.1608L26.7216 23.9783C25.7341 23.8374 24.8525 24.4632 24.5772 25.386C22.6098 23.5976 24.046 24.9039 19.2947 20.5854L15.8122 14.0928C16.1035 14.3732 17.2408 15.7868 17.5161 16.1233L17.6399 15.4652C18.0491 13.3009 16.6247 11.2155 14.4605 10.8074L12.7882 10.4906C10.6279 10.0834 8.54056 11.5009 8.12927 13.6701L5.43914 27.9125C5.29775 28.6613 5.28917 29.4292 5.41414 30.1811L6.57705 37.1848L2.99441 46.5812C2.52809 47.808 3.14198 49.1811 4.36978 49.6493C5.58355 50.1147 6.96485 49.5117 7.43698 48.2751L11.246 38.2826C11.3935 37.892 11.4368 37.4688 11.3718 37.0569L10.8997 34.137L14.1932 38.0394L14.0791 47.3995C14.0633 48.7119 15.1139 49.7891 16.4264 49.8048C16.4362 49.8048 16.4458 49.8048 16.4557 49.8048C17.7562 49.8048 18.8167 48.7601 18.8324 47.4568L18.9562 37.2123C18.9623 36.6417 18.7634 36.0869 18.3956 35.6511L14.6635 31.2284L15.8576 24.9022L15.3402 24.432C14.9938 24.1172 14.746 23.939 14.6045 23.4885C14.4471 22.977 12.4363 16.5129 12.3359 15.9896L15.966 22.7586C16.0681 22.9503 16.204 23.1098 16.3533 23.2524C16.3632 23.2633 16.3672 23.2769 16.3789 23.2879L22.3836 28.7445C23.196 29.4834 24.4453 29.4145 25.1813 28.6107C25.4211 28.347 25.5451 28.0313 25.618 27.7066C25.7911 27.7874 25.9641 27.871 26.163 27.8994L34.9218 29.1508C35.2133 29.1941 35.5417 29.1684 35.8546 29.0603L43.5393 26.3718C43.1538 26.6345 40.5507 28.114 40.1319 28.355L42.1858 39.2261L37.8595 41.0401C37.1216 41.3489 36.5905 42.0071 36.4428 42.7921L34.7668 51.6897C34.5228 52.9795 35.3727 54.2219 36.6614 54.4649C36.8108 54.4933 36.9585 54.5072 37.1039 54.5072C38.2256 54.5072 39.223 53.7104 39.4372 52.5693L40.8776 44.9288L47.1911 42.2805L47.0651 48.3018C47.0611 48.534 47.0908 48.7663 47.1519 48.9905L49.804 58.504C50.0971 59.5545 51.0532 60.2431 52.0921 60.2431C52.3046 60.2431 52.519 60.2147 52.7315 60.1546C53.9962 59.8024 54.736 58.492 54.3838 57.227Z" fill="#1A1A36"/>
<path d="M43.1731 19.0069C45.6877 18.5316 47.3423 16.1117 46.866 13.5973C46.3919 11.0839 43.9682 9.43119 41.4536 9.90534C38.9414 10.3805 37.2906 12.8024 37.7648 15.3158C38.239 17.8293 40.6609 19.4819 43.1731 19.0069Z" fill="#1A1A36"/>
<path d="M43.2463 55.2909H31.6875V51.4967C31.6875 50.8575 31.1682 50.3389 30.5287 50.3389H0V55.2909V57.3056V60.2429H44.405V56.4487C44.405 55.8095 43.8857 55.2909 43.2463 55.2909Z" fill="#1A1A36"/>
</svg>
