<svg width="33" height="33" viewBox="0 0 33 33" fill="none" xmlns="http://www.w3.org/2000/svg">
<rect width="33" height="33" rx="3.03448" fill="white"/>
<path fill-rule="evenodd" clip-rule="evenodd" d="M7.96533 25.034H10.1755V8.50391H7.96533V25.034Z" fill="black"/>
<path fill-rule="evenodd" clip-rule="evenodd" d="M10.9917 16.6119L11.921 17.5412L12.8503 16.6119L11.921 15.6826L10.9917 16.6119Z" fill="black"/>
<path d="M21.9775 8.34473C23.4723 8.34473 24.3055 9.08485 24.4767 10.5651C24.5173 10.916 24.2546 11.2191 23.9062 11.2771L23.141 11.4046C22.7007 11.478 22.3515 11.1001 22.1092 10.7251C21.9466 10.4735 21.6801 10.3477 21.3097 10.3477L17.6492 10.3331H16.2375V22.8662H24.51C24.51 23.9756 23.6107 24.8748 22.5013 24.8748H16.2375H14.0273V8.34473H21.9775Z" fill="black"/>
</svg>
