<svg width="24" height="24" viewBox="0 0 24 24" fill="none" xmlns="http://www.w3.org/2000/svg">
<path fill-rule="evenodd" clip-rule="evenodd" d="M18 3.75H20.25C20.6478 3.75 21.0294 3.90804 21.3107 4.18934C21.592 4.47064 21.75 4.85218 21.75 5.25V10.5H2.25V5.25C2.25 4.85218 2.40804 4.47064 2.68934 4.18934C2.97064 3.90804 3.35218 3.75 3.75 3.75H6V2.25H7.5V3.75H16.5V2.25H18V3.75ZM3.75 9H20.25V5.25H18V7.5H16.5V5.25H7.5V7.5H6V5.25H3.75V9ZM3.75 20.25H20.25V12H21.75V20.25C21.75 20.6478 21.592 21.0294 21.3107 21.3107C21.0294 21.592 20.6478 21.75 20.25 21.75H3.75C3.35218 21.75 2.97064 21.592 2.68934 21.3107C2.40804 21.0294 2.25 20.6478 2.25 20.25V12H3.75V20.25ZM9 13.5V15H6V13.5H9ZM9 18V16.5H6V18H9ZM10.5 13.5H13.5V15H10.5V13.5ZM13.5 16.5H10.5V18H13.5V16.5ZM18 13.5V15H15V13.5H18ZM18 18V16.5H15V18H18Z" fill="#006AFF"/>
</svg>
