<svg width="20" height="20" viewBox="0 0 20 20" fill="none" xmlns="http://www.w3.org/2000/svg">
<path d="M19.1255 16.276C19.6599 15.8229 20 15.1472 20 14.3932C20 13.2339 19.1965 12.2591 18.1172 11.9954V11.569C18.1172 10.3808 17.1505 9.41406 15.9622 9.41406H10.5859V8.07555H11.8829C12.2064 8.07555 12.4688 7.8132 12.4688 7.48961V6.23438C12.4688 5.48043 12.1287 4.8048 11.5943 4.3516C12.1287 3.8984 12.4688 3.22277 12.4688 2.46883C12.4688 1.1075 11.3613 0 10 0C8.63871 0 7.53129 1.1075 7.53129 2.46879C7.53129 3.22273 7.87137 3.89836 8.40578 4.35156C7.87137 4.80477 7.53129 5.48039 7.53129 6.23434V7.48961C7.53129 7.8132 7.79363 8.07555 8.11723 8.07555H9.41406V9.41406H4.03777C2.84953 9.41406 1.88285 10.3808 1.88285 11.569V11.9954C0.803555 12.2591 0 13.2339 0 14.3932C0 15.1472 0.340117 15.8229 0.874531 16.276C0.340117 16.7293 0 17.4049 0 18.1589V19.4141C0 19.7377 0.262344 20 0.585938 20H4.35156C4.67516 20 4.9375 19.7377 4.9375 19.4141V18.1589C4.9375 17.4049 4.59742 16.7292 4.06301 16.276C4.59742 15.8229 4.9375 15.1472 4.9375 14.3932C4.9375 13.2339 4.13398 12.2591 3.05473 11.9954V11.569C3.05473 11.027 3.4957 10.5859 4.03777 10.5859H9.41406V11.9954C8.3348 12.2591 7.53129 13.2339 7.53129 14.3932C7.53129 15.1472 7.87137 15.8229 8.40578 16.276C7.87137 16.7293 7.53129 17.4049 7.53129 18.1589V19.4141C7.53129 19.7377 7.79363 20 8.11723 20H11.8829C12.2064 20 12.4688 19.7377 12.4688 19.4141V18.1589C12.4688 17.4049 12.1287 16.7292 11.5943 16.276C12.1287 15.8229 12.4688 15.1472 12.4688 14.3932C12.4688 13.2339 11.6652 12.2591 10.5859 11.9954V10.5859H15.9622C16.5043 10.5859 16.9454 11.027 16.9454 11.569V11.9954C15.8661 12.2591 15.0625 13.2339 15.0625 14.3932C15.0625 15.1472 15.4026 15.8229 15.937 16.276C15.4026 16.7293 15.0625 17.4049 15.0625 18.1589V19.4141C15.0625 19.7377 15.3248 20 15.6484 20H19.4141C19.7377 20 20 19.7377 20 19.4141V18.1589C20 17.4049 19.6599 16.7293 19.1255 16.276ZM8.70316 2.46879C8.70316 1.75367 9.28492 1.17188 10 1.17188C10.7152 1.17188 11.2969 1.75367 11.2969 2.46879C11.2969 3.18387 10.7151 3.76562 10 3.76562C9.28492 3.76562 8.70316 3.18387 8.70316 2.46879ZM8.70316 6.23438C8.70316 5.5193 9.28496 4.93754 10 4.93754C10.7152 4.93754 11.2969 5.5193 11.2969 6.23438V6.90371H8.70316V6.23438ZM3.76562 18.1589V18.8281H1.17188V18.1589C1.17188 17.4438 1.75367 16.862 2.46879 16.862C3.18387 16.862 3.76562 17.4438 3.76562 18.1589ZM3.76562 14.3932C3.76562 15.1083 3.18383 15.6901 2.46879 15.6901C1.75367 15.6901 1.17188 15.1083 1.17188 14.3932C1.17188 13.6782 1.75367 13.0964 2.46879 13.0964C3.18387 13.0964 3.76562 13.6782 3.76562 14.3932ZM11.2969 18.1589V18.8281H8.70316V18.1589C8.70316 17.4438 9.28496 16.862 10 16.862C10.7152 16.862 11.2969 17.4438 11.2969 18.1589ZM11.2969 14.3932C11.2969 15.1083 10.7151 15.6901 10 15.6901C9.28492 15.6901 8.70316 15.1083 8.70316 14.3932C8.70316 13.6782 9.28496 13.0964 10 13.0964C10.7152 13.0964 11.2969 13.6782 11.2969 14.3932ZM16.2344 14.3932C16.2344 13.6782 16.8162 13.0964 17.5313 13.0964C18.2464 13.0964 18.8281 13.6782 18.8281 14.3932C18.8281 15.1083 18.2463 15.6901 17.5313 15.6901C16.8161 15.6901 16.2344 15.1083 16.2344 14.3932ZM18.8281 18.8281H16.2344V18.1589C16.2344 17.4438 16.8162 16.862 17.5313 16.862C18.2464 16.862 18.8281 17.4438 18.8281 18.1589V18.8281Z" fill="#F3F6FF" fill-opacity="0.7"/>
</svg>
