<svg width="20" height="21" viewBox="0 0 20 21" fill="none" xmlns="http://www.w3.org/2000/svg">
<g clip-path="url(#clip0)">
<path d="M19.1255 16.776C19.6599 16.3229 20 15.6472 20 14.8932C20 13.7339 19.1965 12.7591 18.1172 12.4954V12.069C18.1172 10.8808 17.1505 9.91406 15.9622 9.91406H10.5859V8.57555H11.8829C12.2064 8.57555 12.4688 8.3132 12.4688 7.98961V6.73438C12.4688 5.98043 12.1287 5.3048 11.5943 4.8516C12.1287 4.3984 12.4688 3.72277 12.4688 2.96883C12.4688 1.6075 11.3613 0.5 10 0.5C8.63871 0.5 7.53129 1.6075 7.53129 2.96879C7.53129 3.72273 7.87137 4.39836 8.40578 4.85156C7.87137 5.30477 7.53129 5.98039 7.53129 6.73434V7.98961C7.53129 8.3132 7.79363 8.57555 8.11723 8.57555H9.41406V9.91406H4.03777C2.84953 9.91406 1.88285 10.8808 1.88285 12.069V12.4954C0.803555 12.7591 0 13.7339 0 14.8932C0 15.6472 0.340117 16.3229 0.874531 16.776C0.340117 17.2293 0 17.9049 0 18.6589V19.9141C0 20.2377 0.262344 20.5 0.585938 20.5H4.35156C4.67516 20.5 4.9375 20.2377 4.9375 19.9141V18.6589C4.9375 17.9049 4.59742 17.2292 4.06301 16.776C4.59742 16.3229 4.9375 15.6472 4.9375 14.8932C4.9375 13.7339 4.13398 12.7591 3.05473 12.4954V12.069C3.05473 11.527 3.4957 11.0859 4.03777 11.0859H9.41406V12.4954C8.3348 12.7591 7.53129 13.7339 7.53129 14.8932C7.53129 15.6472 7.87137 16.3229 8.40578 16.776C7.87137 17.2293 7.53129 17.9049 7.53129 18.6589V19.9141C7.53129 20.2377 7.79363 20.5 8.11723 20.5H11.8829C12.2064 20.5 12.4688 20.2377 12.4688 19.9141V18.6589C12.4688 17.9049 12.1287 17.2292 11.5943 16.776C12.1287 16.3229 12.4688 15.6472 12.4688 14.8932C12.4688 13.7339 11.6652 12.7591 10.5859 12.4954V11.0859H15.9622C16.5043 11.0859 16.9454 11.527 16.9454 12.069V12.4954C15.8661 12.7591 15.0625 13.7339 15.0625 14.8932C15.0625 15.6472 15.4026 16.3229 15.937 16.776C15.4026 17.2293 15.0625 17.9049 15.0625 18.6589V19.9141C15.0625 20.2377 15.3248 20.5 15.6484 20.5H19.4141C19.7377 20.5 20 20.2377 20 19.9141V18.6589C20 17.9049 19.6599 17.2293 19.1255 16.776ZM8.70316 2.96879C8.70316 2.25367 9.28492 1.67188 10 1.67188C10.7152 1.67188 11.2969 2.25367 11.2969 2.96879C11.2969 3.68387 10.7151 4.26562 10 4.26562C9.28492 4.26562 8.70316 3.68387 8.70316 2.96879ZM8.70316 6.73438C8.70316 6.0193 9.28496 5.43754 10 5.43754C10.7152 5.43754 11.2969 6.0193 11.2969 6.73438V7.40371H8.70316V6.73438ZM3.76562 18.6589V19.3281H1.17188V18.6589C1.17188 17.9438 1.75367 17.362 2.46879 17.362C3.18387 17.362 3.76562 17.9438 3.76562 18.6589ZM3.76562 14.8932C3.76562 15.6083 3.18383 16.1901 2.46879 16.1901C1.75367 16.1901 1.17188 15.6083 1.17188 14.8932C1.17188 14.1782 1.75367 13.5964 2.46879 13.5964C3.18387 13.5964 3.76562 14.1782 3.76562 14.8932ZM11.2969 18.6589V19.3281H8.70316V18.6589C8.70316 17.9438 9.28496 17.362 10 17.362C10.7152 17.362 11.2969 17.9438 11.2969 18.6589ZM11.2969 14.8932C11.2969 15.6083 10.7151 16.1901 10 16.1901C9.28492 16.1901 8.70316 15.6083 8.70316 14.8932C8.70316 14.1782 9.28496 13.5964 10 13.5964C10.7152 13.5964 11.2969 14.1782 11.2969 14.8932ZM16.2344 14.8932C16.2344 14.1782 16.8162 13.5964 17.5313 13.5964C18.2464 13.5964 18.8281 14.1782 18.8281 14.8932C18.8281 15.6083 18.2463 16.1901 17.5313 16.1901C16.8161 16.1901 16.2344 15.6083 16.2344 14.8932ZM18.8281 19.3281H16.2344V18.6589C16.2344 17.9438 16.8162 17.362 17.5313 17.362C18.2464 17.362 18.8281 17.9438 18.8281 18.6589V19.3281Z" fill="#006AFF"/>
</g>
<defs>
<clipPath id="clip0">
<rect width="20" height="20" fill="white" transform="translate(0 0.5)"/>
</clipPath>
</defs>
</svg>
