<svg width="20" height="21" viewBox="0 0 20 21" fill="none" xmlns="http://www.w3.org/2000/svg">
<path fill-rule="evenodd" clip-rule="evenodd" d="M17.5 11.125H16.9319H15.9744L15.725 12.0494C15.5912 12.5444 15.3962 13.0169 15.145 13.4537L14.6669 14.2838L15.3444 14.9606L15.745 15.3612L14.8612 16.245L14.4606 15.8444L13.7831 15.1669L12.9531 15.645C12.5169 15.8962 12.045 16.0906 11.5494 16.225L10.625 16.475V17.4319V18H9.375V17.4319V16.475L8.45062 16.225C7.955 16.0906 7.48313 15.8962 7.04688 15.645L6.21688 15.1669L5.53937 15.8444L5.13875 16.245L4.255 15.3612L4.65562 14.9606L5.3325 14.2838L4.855 13.4537C4.60375 13.0169 4.40875 12.5444 4.275 12.0494L4.02562 11.125H3.06813H2.5V9.875H3.06813H4.02562L4.275 8.95062C4.40875 8.45563 4.60375 7.98313 4.855 7.54625L5.3325 6.71625L4.65562 6.03937L4.255 5.63875L5.13875 4.755L5.53937 5.15562L6.21688 5.8325L7.04688 5.355C7.48313 5.10375 7.955 4.90937 8.45062 4.775L9.375 4.525V3.56813V3H10.625V3.56813V4.525L11.5494 4.775C12.0444 4.90937 12.5169 5.10375 12.9531 5.355L13.7831 5.8325L14.4606 5.15562L14.8612 4.755L15.745 5.63875L15.3444 6.03937L14.6669 6.71625L15.145 7.54625C15.3962 7.98313 15.5912 8.45563 15.725 8.95062L15.9744 9.875H16.9319H17.5V11.125ZM17.5 8.625H16.9319C16.7694 8.0225 16.5325 7.45188 16.2281 6.92313L16.6288 6.5225C17.115 6.03625 17.115 5.24125 16.6288 4.755L15.745 3.87125C15.5019 3.6275 15.1819 3.50688 14.8612 3.50688C14.5406 3.50688 14.22 3.6275 13.9775 3.87125L13.5769 4.27125C13.0481 3.9675 12.4775 3.73125 11.875 3.56813V3C11.875 2.3125 11.3125 1.75 10.625 1.75H9.375C8.6875 1.75 8.125 2.3125 8.125 3V3.56813C7.5225 3.73125 6.95188 3.9675 6.42313 4.27125L6.0225 3.87125C5.77938 3.6275 5.45875 3.50688 5.13875 3.50688C4.81813 3.50688 4.4975 3.6275 4.255 3.87125L3.37125 4.755C2.885 5.24125 2.885 6.03625 3.37125 6.5225L3.77187 6.92313C3.4675 7.45188 3.23062 8.0225 3.06813 8.625H2.5C1.8125 8.625 1.25 9.1875 1.25 9.875V11.125C1.25 11.8125 1.8125 12.375 2.5 12.375H3.06813C3.23062 12.9775 3.4675 13.5481 3.77187 14.0769L3.37125 14.4775C2.885 14.9637 2.885 15.7587 3.37125 16.245L4.255 17.1288C4.4975 17.3719 4.81813 17.4931 5.13875 17.4931C5.45875 17.4931 5.77938 17.3719 6.0225 17.1288L6.42313 16.7281C6.95188 17.0325 7.5225 17.2688 8.125 17.4319V18C8.125 18.6875 8.6875 19.25 9.375 19.25H10.625C11.3125 19.25 11.875 18.6875 11.875 18V17.4319C12.4775 17.2688 13.0481 17.0325 13.5769 16.7281L13.9775 17.1288C14.22 17.3719 14.5406 17.4931 14.8612 17.4931C15.1819 17.4931 15.5019 17.3719 15.745 17.1288L16.6288 16.245C17.115 15.7587 17.115 14.9637 16.6288 14.4775L16.2281 14.0769C16.5325 13.5481 16.7694 12.9775 16.9319 12.375H17.5C18.1875 12.375 18.75 11.8125 18.75 11.125V9.875C18.75 9.1875 18.1875 8.625 17.5 8.625Z" fill="#006AFF"/>
<path fill-rule="evenodd" clip-rule="evenodd" d="M10 13.3125C8.44938 13.3125 7.1875 12.0506 7.1875 10.5C7.1875 8.94938 8.44938 7.6875 10 7.6875C11.5506 7.6875 12.8125 8.94938 12.8125 10.5C12.8125 12.0506 11.5506 13.3125 10 13.3125ZM10 6.4375C7.75625 6.4375 5.9375 8.25625 5.9375 10.5C5.9375 12.7438 7.75625 14.5625 10 14.5625C12.2438 14.5625 14.0625 12.7438 14.0625 10.5C14.0625 8.25625 12.2438 6.4375 10 6.4375Z" fill="#006AFF"/>
</svg>
