<svg width="20" height="20" viewBox="0 0 20 20" fill="none" xmlns="http://www.w3.org/2000/svg">
<path fill-rule="evenodd" clip-rule="evenodd" d="M10 17.5C9.31 17.5 8.75 16.9394 8.75 16.25H7.5C7.5 17.6306 8.61937 18.75 10 18.75C11.3806 18.75 12.5 17.6306 12.5 16.25H11.25C11.25 16.9394 10.69 17.5 10 17.5Z" fill="#9C9C9C"/>
<path fill-rule="evenodd" clip-rule="evenodd" d="M4.66436 13.75C4.87811 13.3819 4.99999 12.955 4.99999 12.5V7.5C4.99999 4.74313 7.24311 2.5 9.99999 2.5C12.7569 2.5 15 4.74313 15 7.5V12.5C15 12.955 15.1219 13.3819 15.3356 13.75H4.66436ZM16.25 12.5V7.5C16.25 4.04813 13.4519 1.25 10 1.25C6.54875 1.25 3.75 4.04813 3.75 7.5V12.5C3.75 13.19 3.19063 13.75 2.5 13.75V15H17.5V13.75C16.81 13.75 16.25 13.19 16.25 12.5Z" fill="#9C9C9C"/>
</svg>
