<svg width="20" height="20" viewBox="0 0 20 20" fill="none" xmlns="http://www.w3.org/2000/svg">
<path d="M3.63672 8.06641H9.61328C9.90452 8.06641 10.1406 7.8303 10.1406 7.53906C10.1406 7.24783 9.90452 7.01172 9.61328 7.01172H3.63672C3.34548 7.01172 3.10938 7.24783 3.10938 7.53906C3.10938 7.8303 3.34548 8.06641 3.63672 8.06641Z" fill="#9C9C9C"/>
<path d="M3.63672 10.1758H8.20703C8.49827 10.1758 8.73438 9.93967 8.73438 9.64844C8.73438 9.3572 8.49827 9.12109 8.20703 9.12109H3.63672C3.34548 9.12109 3.10938 9.3572 3.10938 9.64844C3.10938 9.93967 3.34548 10.1758 3.63672 10.1758Z" fill="#9C9C9C"/>
<path d="M3.63672 12.2852H8.20703C8.49827 12.2852 8.73438 12.049 8.73438 11.7578C8.73438 11.4666 8.49827 11.2305 8.20703 11.2305H3.63672C3.34548 11.2305 3.10938 11.4666 3.10938 11.7578C3.10938 12.049 3.34548 12.2852 3.63672 12.2852Z" fill="#9C9C9C"/>
<path d="M9.61328 13.3398H3.63672C3.34548 13.3398 3.10938 13.576 3.10938 13.8672C3.10938 14.1584 3.34548 14.3945 3.63672 14.3945H9.61328C9.90452 14.3945 10.1406 14.1584 10.1406 13.8672C10.1406 13.576 9.90452 13.3398 9.61328 13.3398Z" fill="#9C9C9C"/>
<path d="M18.8455 10.3303L16.7361 8.22088C16.5302 8.01494 16.1963 8.01494 15.9904 8.22088C15.7844 8.42683 15.7844 8.76071 15.9904 8.96665L17.1995 10.1758H14.7109V5.04297C14.7109 4.90312 14.6554 4.769 14.5565 4.6701L11.041 1.15448C10.9421 1.05558 10.808 1 10.6681 1H2.93359C1.86741 1 1 1.86741 1 2.93359V17.0664C1 18.1326 1.86741 19 2.93359 19H12.7773C13.8435 19 14.7109 18.1326 14.7109 17.0664V11.2305H17.1995L15.9904 12.4396C15.7844 12.6456 15.7844 12.9795 15.9904 13.1854C16.0934 13.2884 16.2283 13.3398 16.3633 13.3398C16.4982 13.3398 16.6332 13.2884 16.7361 13.1854L18.8455 11.076C19.0515 10.8701 19.0515 10.5362 18.8455 10.3303ZM12.9105 4.51562H11.1953V2.80049L12.9105 4.51562ZM13.6562 17.0664C13.6562 17.551 13.262 17.9453 12.7773 17.9453H2.93359C2.44896 17.9453 2.05469 17.551 2.05469 17.0664V2.93359C2.05469 2.44896 2.44896 2.05469 2.93359 2.05469H10.1406V5.04297C10.1406 5.3342 10.3767 5.57031 10.668 5.57031H13.6562V10.1758H10.0352C9.74392 10.1758 9.50781 10.4119 9.50781 10.7031C9.50781 10.9944 9.74392 11.2305 10.0352 11.2305H13.6562V17.0664Z" fill="#9C9C9C"/>
</svg>
