<svg width="15" height="15" viewBox="0 0 15 15" fill="none" xmlns="http://www.w3.org/2000/svg">
<path fill-rule="evenodd" clip-rule="evenodd" d="M9.91574 9.33726H10.5594L14.625 13.411L13.411 14.625L9.33726 10.5594V9.91574L9.11728 9.68761C8.18846 10.4861 6.98263 10.9668 5.67088 10.9668C2.74593 10.9668 0.375 8.59584 0.375 5.67088C0.375 2.74593 2.74593 0.375 5.67088 0.375C8.59584 0.375 10.9668 2.74593 10.9668 5.67088C10.9668 6.98263 10.4861 8.18846 9.68761 9.11728L9.91574 9.33726ZM2.0045 5.67088C2.0045 7.69961 3.64215 9.33726 5.67088 9.33726C7.69961 9.33726 9.33726 7.69961 9.33726 5.67088C9.33726 3.64215 7.69961 2.0045 5.67088 2.0045C3.64215 2.0045 2.0045 3.64215 2.0045 5.67088Z" fill="#006AFF"/>
<mask id="mask0" mask-type="alpha" maskUnits="userSpaceOnUse" x="0" y="0" width="15" height="15">
<path fill-rule="evenodd" clip-rule="evenodd" d="M9.91574 9.33726H10.5594L14.625 13.411L13.411 14.625L9.33726 10.5594V9.91574L9.11728 9.68761C8.18846 10.4861 6.98263 10.9668 5.67088 10.9668C2.74593 10.9668 0.375 8.59584 0.375 5.67088C0.375 2.74593 2.74593 0.375 5.67088 0.375C8.59584 0.375 10.9668 2.74593 10.9668 5.67088C10.9668 6.98263 10.4861 8.18846 9.68761 9.11728L9.91574 9.33726ZM2.0045 5.67088C2.0045 7.69961 3.64215 9.33726 5.67088 9.33726C7.69961 9.33726 9.33726 7.69961 9.33726 5.67088C9.33726 3.64215 7.69961 2.0045 5.67088 2.0045C3.64215 2.0045 2.0045 3.64215 2.0045 5.67088Z" fill="white"/>
</mask>
<g mask="url(#mask0)">
</g>
</svg>
