<svg width="20" height="20" viewBox="0 0 20 20" fill="none" xmlns="http://www.w3.org/2000/svg">
<path fill-rule="evenodd" clip-rule="evenodd" d="M12.5 5H13.75V3.75H12.5V5ZM15 3.75C15 3.0625 14.4375 2.5 13.75 2.5H12.5C11.8125 2.5 11.25 3.0625 11.25 3.75H1.875V5H11.25C11.25 5.6875 11.8125 6.25 12.5 6.25H13.75C14.4375 6.25 15 5.6875 15 5H18.125V3.75H15Z" fill="#9C9C9C"/>
<path fill-rule="evenodd" clip-rule="evenodd" d="M12.5 16.25H13.75V15H12.5V16.25ZM13.75 13.75H12.5C11.8125 13.75 11.25 14.3125 11.25 15H1.875V16.25H11.25C11.25 16.9375 11.8125 17.5 12.5 17.5H13.75C14.4375 17.5 15 16.9375 15 16.25H18.125V15H15C15 14.3125 14.4375 13.75 13.75 13.75Z" fill="#9C9C9C"/>
<path fill-rule="evenodd" clip-rule="evenodd" d="M5.625 10.625H6.875V9.375H5.625V10.625ZM6.875 8.125H5.625C4.9375 8.125 4.375 8.6875 4.375 9.375H1.875V10.625H4.375C4.375 11.3125 4.9375 11.875 5.625 11.875H6.875C7.5625 11.875 8.125 11.3125 8.125 10.625H18.125V9.375H8.125C8.125 8.6875 7.5625 8.125 6.875 8.125Z" fill="#9C9C9C"/>
</svg>
