<svg width="20" height="20" viewBox="0 0 20 20" fill="none" xmlns="http://www.w3.org/2000/svg">
<path fill-rule="evenodd" clip-rule="evenodd" d="M10 15C5.56442 15 3.30317 11.3331 2.6288 10.0031C3.30505 8.685 5.59067 5 10 5C14.4357 5 16.6975 8.66687 17.3713 9.99687C16.695 11.315 14.4094 15 10 15ZM10 3.75C3.75 3.75 1.25 10 1.25 10C1.25 10 3.75 16.25 10 16.25C16.25 16.25 18.75 10 18.75 10C18.75 10 16.25 3.75 10 3.75Z" fill="#9C9C9C"/>
<path fill-rule="evenodd" clip-rule="evenodd" d="M10 11.875C8.96625 11.875 8.125 11.0338 8.125 10C8.125 8.96625 8.96625 8.125 10 8.125C11.0338 8.125 11.875 8.96625 11.875 10C11.875 11.0338 11.0338 11.875 10 11.875ZM10 6.875C8.27375 6.875 6.875 8.27375 6.875 10C6.875 11.7256 8.27375 13.125 10 13.125C11.7256 13.125 13.125 11.7256 13.125 10C13.125 8.27375 11.7256 6.875 10 6.875Z" fill="#9C9C9C"/>
</svg>
