<svg width="114" height="114" viewBox="0 0 114 114" fill="none" xmlns="http://www.w3.org/2000/svg">
<path fill-rule="evenodd" clip-rule="evenodd" d="M42.75 14.25L34.0575 23.75H19C13.775 23.75 9.5 28.025 9.5 33.25V90.25C9.5 95.475 13.775 99.75 19 99.75H95C100.225 99.75 104.5 95.475 104.5 90.25V33.25C104.5 28.025 100.225 23.75 95 23.75H79.9425L71.25 14.25H42.75ZM57 38C70.11 38 80.75 48.64 80.75 61.75C80.75 74.86 70.11 85.5 57 85.5C43.89 85.5 33.25 74.86 33.25 61.75C33.25 48.64 43.89 38 57 38ZM42.75 61.75C42.75 53.8799 49.1299 47.5 57 47.5C64.8701 47.5 71.25 53.8799 71.25 61.75C71.25 69.6201 64.8701 76 57 76C49.1299 76 42.75 69.6201 42.75 61.75Z" fill="#D1D1D1"/>
</svg>
